<svg width="17" height="18" viewBox="0 0 17 18" fill="none" xmlns="http://www.w3.org/2000/svg">
<g clip-path="url(#clip0_5069_3236)">
<mask id="path-1-inside-1_5069_3236" fill="white">
<path d="M13.2344 2.49877C13.3339 2.49877 13.533 2.52173 13.709 2.69013L15.2629 4.20574C15.4389 4.37414 15.4696 4.58081 15.4696 4.68032C15.4696 4.77983 15.4466 4.9865 15.2782 5.16255L14.2448 6.22654L5.22011 15.5038L2.74769 15.5727L2.69411 13.0391L12.7598 2.70544C12.9359 2.52939 13.1349 2.49877 13.2421 2.49877M13.2344 0.967861C12.6603 0.967861 12.0862 1.18984 11.6499 1.63381L1.5842 11.9674C1.30098 12.2583 1.14789 12.6487 1.15555 13.0544L1.20913 15.5957C1.22444 16.4224 1.89804 17.0807 2.72473 17.0807C2.73238 17.0807 2.74769 17.0807 2.75535 17.0807L5.24308 17.0271C5.64111 17.0194 6.02384 16.851 6.2994 16.5678L15.3394 7.29052L16.3728 6.22654C17.2224 5.35392 17.2071 3.95313 16.3345 3.10348L14.7806 1.58788C14.352 1.16688 13.7932 0.960205 13.2421 0.960205L13.2344 0.967861Z"/>
</mask>
<path d="M13.2344 2.49877C13.3339 2.49877 13.533 2.52173 13.709 2.69013L15.2629 4.20574C15.4389 4.37414 15.4696 4.58081 15.4696 4.68032C15.4696 4.77983 15.4466 4.9865 15.2782 5.16255L14.2448 6.22654L5.22011 15.5038L2.74769 15.5727L2.69411 13.0391L12.7598 2.70544C12.9359 2.52939 13.1349 2.49877 13.2421 2.49877M13.2344 0.967861C12.6603 0.967861 12.0862 1.18984 11.6499 1.63381L1.5842 11.9674C1.30098 12.2583 1.14789 12.6487 1.15555 13.0544L1.20913 15.5957C1.22444 16.4224 1.89804 17.0807 2.72473 17.0807C2.73238 17.0807 2.74769 17.0807 2.75535 17.0807L5.24308 17.0271C5.64111 17.0194 6.02384 16.851 6.2994 16.5678L15.3394 7.29052L16.3728 6.22654C17.2224 5.35392 17.2071 3.95313 16.3345 3.10348L14.7806 1.58788C14.352 1.16688 13.7932 0.960205 13.2421 0.960205L13.2344 0.967861Z" fill="#A4A7B2"/>
<path d="M13.709 2.69013L13.7876 2.60955L13.7868 2.60879L13.709 2.69013ZM15.2629 4.20574L15.1843 4.28632L15.1851 4.28708L15.2629 4.20574ZM15.2782 5.16255L15.3589 5.24098L15.3595 5.24036L15.2782 5.16255ZM14.2448 6.22654L14.3255 6.30503L14.3256 6.30496L14.2448 6.22654ZM5.22011 15.5038L5.22325 15.6164L5.26893 15.6151L5.3008 15.5823L5.22011 15.5038ZM2.74769 15.5727L2.63515 15.5751L2.63755 15.6884L2.75083 15.6853L2.74769 15.5727ZM2.69411 13.0391L2.61348 12.9605L2.58057 12.9943L2.58157 13.0415L2.69411 13.0391ZM12.7598 2.70544L12.6802 2.62584L12.6792 2.6269L12.7598 2.70544ZM13.2344 0.967861V1.08043H13.2811L13.314 1.04745L13.2344 0.967861ZM11.6499 1.63381L11.5696 1.5549L11.5693 1.55526L11.6499 1.63381ZM1.5842 11.9674L1.50357 11.8889L1.50355 11.8889L1.5842 11.9674ZM1.15555 13.0544L1.043 13.0565L1.04301 13.0568L1.15555 13.0544ZM1.20913 15.5957L1.32168 15.5936L1.32167 15.5933L1.20913 15.5957ZM2.75535 17.0807V17.1933L2.75777 17.1932L2.75535 17.0807ZM5.24308 17.0271L5.24091 16.9146L5.24065 16.9146L5.24308 17.0271ZM6.2994 16.5678L6.21878 16.4893L6.21872 16.4893L6.2994 16.5678ZM15.3394 7.29052L15.42 7.36908L15.4202 7.36894L15.3394 7.29052ZM16.3728 6.22654L16.2921 6.14801L16.292 6.14811L16.3728 6.22654ZM16.3345 3.10348L16.2559 3.18406L16.256 3.18413L16.3345 3.10348ZM14.7806 1.58788L14.7018 1.66819L14.702 1.66846L14.7806 1.58788ZM13.2421 0.960205V0.847638H13.1954L13.1625 0.880616L13.2421 0.960205ZM13.2344 2.49877V2.61134C13.3179 2.61134 13.4839 2.63058 13.6312 2.77148L13.709 2.69013L13.7868 2.60879C13.582 2.41289 13.35 2.3862 13.2344 2.3862V2.49877ZM13.709 2.69013L13.6304 2.77072L15.1843 4.28632L15.2629 4.20574L15.3415 4.12515L13.7876 2.60955L13.709 2.69013ZM15.2629 4.20574L15.1851 4.28708C15.3315 4.42713 15.357 4.59944 15.357 4.68032H15.4696H15.5821C15.5821 4.56218 15.5464 4.32114 15.3407 4.12439L15.2629 4.20574ZM15.4696 4.68032H15.357C15.357 4.76504 15.3372 4.93804 15.1968 5.08474L15.2782 5.16255L15.3595 5.24036C15.556 5.03495 15.5821 4.79461 15.5821 4.68032H15.4696ZM15.2782 5.16255L15.1974 5.08413L14.1641 6.14811L14.2448 6.22654L14.3256 6.30496L15.3589 5.24098L15.2782 5.16255ZM14.2448 6.22654L14.1641 6.14804L5.13942 15.4254L5.22011 15.5038L5.3008 15.5823L14.3255 6.30503L14.2448 6.22654ZM5.22011 15.5038L5.21698 15.3913L2.74456 15.4602L2.74769 15.5727L2.75083 15.6853L5.22325 15.6164L5.22011 15.5038ZM2.74769 15.5727L2.86024 15.5704L2.80665 13.0367L2.69411 13.0391L2.58157 13.0415L2.63515 15.5751L2.74769 15.5727ZM2.69411 13.0391L2.77475 13.1176L12.8405 2.78399L12.7598 2.70544L12.6792 2.6269L2.61348 12.9605L2.69411 13.0391ZM12.7598 2.70544L12.8394 2.78504C12.9882 2.63624 13.1548 2.61134 13.2421 2.61134V2.49877V2.3862C13.1151 2.3862 12.8836 2.42253 12.6802 2.62584L12.7598 2.70544ZM13.2344 0.967861V0.855294C12.6313 0.855294 12.0279 1.08862 11.5696 1.5549L11.6499 1.63381L11.7302 1.71271C12.1446 1.29106 12.6894 1.08043 13.2344 1.08043V0.967861ZM11.6499 1.63381L11.5693 1.55526L1.50357 11.8889L1.5842 11.9674L1.66484 12.046L11.7306 1.71235L11.6499 1.63381ZM1.5842 11.9674L1.50355 11.8889C1.19919 12.2015 1.03478 12.621 1.043 13.0565L1.15555 13.0544L1.26809 13.0523C1.261 12.6764 1.40278 12.3151 1.66485 12.046L1.5842 11.9674ZM1.15555 13.0544L1.04301 13.0568L1.09659 15.5981L1.20913 15.5957L1.32167 15.5933L1.26809 13.052L1.15555 13.0544ZM1.20913 15.5957L1.09658 15.5978C1.11303 16.4861 1.83696 17.1933 2.72473 17.1933V17.0807V16.9681C1.95911 16.9681 1.33584 16.3587 1.32168 15.5936L1.20913 15.5957ZM2.72473 17.0807V17.1933C2.72474 17.1933 2.72476 17.1933 2.72477 17.1933C2.72479 17.1933 2.7248 17.1933 2.72482 17.1933C2.72483 17.1933 2.72485 17.1933 2.72486 17.1933C2.72488 17.1933 2.7249 17.1933 2.72491 17.1933C2.72493 17.1933 2.72494 17.1933 2.72496 17.1933C2.72497 17.1933 2.72499 17.1933 2.725 17.1933C2.72502 17.1933 2.72503 17.1933 2.72505 17.1933C2.72506 17.1933 2.72508 17.1933 2.72509 17.1933C2.72511 17.1933 2.72512 17.1933 2.72514 17.1933C2.72516 17.1933 2.72517 17.1933 2.72519 17.1933C2.7252 17.1933 2.72522 17.1933 2.72523 17.1933C2.72525 17.1933 2.72526 17.1933 2.72528 17.1933C2.7253 17.1933 2.72531 17.1933 2.72533 17.1933C2.72534 17.1933 2.72536 17.1933 2.72537 17.1933C2.72539 17.1933 2.72541 17.1933 2.72542 17.1933C2.72544 17.1933 2.72545 17.1933 2.72547 17.1933C2.72548 17.1933 2.7255 17.1933 2.72552 17.1933C2.72553 17.1933 2.72555 17.1933 2.72556 17.1933C2.72558 17.1933 2.7256 17.1933 2.72561 17.1933C2.72563 17.1933 2.72564 17.1933 2.72566 17.1933C2.72568 17.1933 2.72569 17.1933 2.72571 17.1933C2.72573 17.1933 2.72574 17.1933 2.72576 17.1933C2.72577 17.1933 2.72579 17.1933 2.72581 17.1933C2.72582 17.1933 2.72584 17.1933 2.72585 17.1933C2.72587 17.1933 2.72589 17.1933 2.7259 17.1933C2.72592 17.1933 2.72594 17.1933 2.72595 17.1933C2.72597 17.1933 2.72599 17.1933 2.726 17.1933C2.72602 17.1933 2.72603 17.1933 2.72605 17.1933C2.72607 17.1933 2.72608 17.1933 2.7261 17.1933C2.72612 17.1933 2.72613 17.1933 2.72615 17.1933C2.72617 17.1933 2.72618 17.1933 2.7262 17.1933C2.72622 17.1933 2.72623 17.1933 2.72625 17.1933C2.72627 17.1933 2.72628 17.1933 2.7263 17.1933C2.72632 17.1933 2.72633 17.1933 2.72635 17.1933C2.72637 17.1933 2.72638 17.1933 2.7264 17.1933C2.72642 17.1933 2.72644 17.1933 2.72645 17.1933C2.72647 17.1933 2.72649 17.1933 2.7265 17.1933C2.72652 17.1933 2.72654 17.1933 2.72655 17.1933C2.72657 17.1933 2.72659 17.1933 2.72661 17.1933C2.72662 17.1933 2.72664 17.1933 2.72666 17.1933C2.72667 17.1933 2.72669 17.1933 2.72671 17.1933C2.72672 17.1933 2.72674 17.1933 2.72676 17.1933C2.72678 17.1933 2.72679 17.1933 2.72681 17.1933C2.72683 17.1933 2.72685 17.1933 2.72686 17.1933C2.72688 17.1933 2.7269 17.1933 2.72691 17.1933C2.72693 17.1933 2.72695 17.1933 2.72697 17.1933C2.72698 17.1933 2.727 17.1933 2.72702 17.1933C2.72704 17.1933 2.72705 17.1933 2.72707 17.1933C2.72709 17.1933 2.72711 17.1933 2.72712 17.1933C2.72714 17.1933 2.72716 17.1933 2.72718 17.1933C2.72719 17.1933 2.72721 17.1933 2.72723 17.1933C2.72725 17.1933 2.72726 17.1933 2.72728 17.1933C2.7273 17.1933 2.72732 17.1933 2.72734 17.1933C2.72735 17.1933 2.72737 17.1933 2.72739 17.1933C2.72741 17.1933 2.72742 17.1933 2.72744 17.1933C2.72746 17.1933 2.72748 17.1933 2.7275 17.1933C2.72751 17.1933 2.72753 17.1933 2.72755 17.1933C2.72757 17.1933 2.72759 17.1933 2.7276 17.1933C2.72762 17.1933 2.72764 17.1933 2.72766 17.1933C2.72768 17.1933 2.72769 17.1933 2.72771 17.1933C2.72773 17.1933 2.72775 17.1933 2.72777 17.1933C2.72778 17.1933 2.7278 17.1933 2.72782 17.1933C2.72784 17.1933 2.72786 17.1933 2.72787 17.1933C2.72789 17.1933 2.72791 17.1933 2.72793 17.1933C2.72795 17.1933 2.72797 17.1933 2.72798 17.1933C2.728 17.1933 2.72802 17.1933 2.72804 17.1933C2.72806 17.1933 2.72808 17.1933 2.72809 17.1933C2.72811 17.1933 2.72813 17.1933 2.72815 17.1933C2.72817 17.1933 2.72819 17.1933 2.7282 17.1933C2.72822 17.1933 2.72824 17.1933 2.72826 17.1933C2.72828 17.1933 2.7283 17.1933 2.72831 17.1933C2.72833 17.1933 2.72835 17.1933 2.72837 17.1933C2.72839 17.1933 2.72841 17.1933 2.72843 17.1933C2.72844 17.1933 2.72846 17.1933 2.72848 17.1933C2.7285 17.1933 2.72852 17.1933 2.72854 17.1933C2.72856 17.1933 2.72858 17.1933 2.72859 17.1933C2.72861 17.1933 2.72863 17.1933 2.72865 17.1933C2.72867 17.1933 2.72869 17.1933 2.72871 17.1933C2.72873 17.1933 2.72874 17.1933 2.72876 17.1933C2.72878 17.1933 2.7288 17.1933 2.72882 17.1933C2.72884 17.1933 2.72886 17.1933 2.72888 17.1933C2.7289 17.1933 2.72891 17.1933 2.72893 17.1933C2.72895 17.1933 2.72897 17.1933 2.72899 17.1933C2.72901 17.1933 2.72903 17.1933 2.72905 17.1933C2.72907 17.1933 2.72909 17.1933 2.7291 17.1933C2.72912 17.1933 2.72914 17.1933 2.72916 17.1933C2.72918 17.1933 2.7292 17.1933 2.72922 17.1933C2.72924 17.1933 2.72926 17.1933 2.72928 17.1933C2.7293 17.1933 2.72932 17.1933 2.72933 17.1933C2.72935 17.1933 2.72937 17.1933 2.72939 17.1933C2.72941 17.1933 2.72943 17.1933 2.72945 17.1933C2.72947 17.1933 2.72949 17.1933 2.72951 17.1933C2.72953 17.1933 2.72955 17.1933 2.72957 17.1933C2.72959 17.1933 2.72961 17.1933 2.72962 17.1933C2.72964 17.1933 2.72966 17.1933 2.72968 17.1933C2.7297 17.1933 2.72972 17.1933 2.72974 17.1933C2.72976 17.1933 2.72978 17.1933 2.7298 17.1933C2.72982 17.1933 2.72984 17.1933 2.72986 17.1933C2.72988 17.1933 2.7299 17.1933 2.72992 17.1933C2.72994 17.1933 2.72996 17.1933 2.72998 17.1933C2.73 17.1933 2.73002 17.1933 2.73004 17.1933C2.73006 17.1933 2.73007 17.1933 2.73009 17.1933C2.73011 17.1933 2.73013 17.1933 2.73015 17.1933C2.73017 17.1933 2.73019 17.1933 2.73021 17.1933C2.73023 17.1933 2.73025 17.1933 2.73027 17.1933C2.73029 17.1933 2.73031 17.1933 2.73033 17.1933C2.73035 17.1933 2.73037 17.1933 2.73039 17.1933C2.73041 17.1933 2.73043 17.1933 2.73045 17.1933C2.73047 17.1933 2.73049 17.1933 2.73051 17.1933C2.73053 17.1933 2.73055 17.1933 2.73057 17.1933C2.73059 17.1933 2.73061 17.1933 2.73063 17.1933C2.73065 17.1933 2.73067 17.1933 2.73069 17.1933C2.73071 17.1933 2.73073 17.1933 2.73075 17.1933C2.73077 17.1933 2.73079 17.1933 2.73081 17.1933C2.73083 17.1933 2.73085 17.1933 2.73087 17.1933C2.73089 17.1933 2.73091 17.1933 2.73093 17.1933C2.73095 17.1933 2.73097 17.1933 2.73099 17.1933C2.73101 17.1933 2.73103 17.1933 2.73105 17.1933C2.73107 17.1933 2.73109 17.1933 2.73111 17.1933C2.73114 17.1933 2.73116 17.1933 2.73118 17.1933C2.7312 17.1933 2.73122 17.1933 2.73124 17.1933C2.73126 17.1933 2.73128 17.1933 2.7313 17.1933C2.73132 17.1933 2.73134 17.1933 2.73136 17.1933C2.73138 17.1933 2.7314 17.1933 2.73142 17.1933C2.73144 17.1933 2.73146 17.1933 2.73148 17.1933C2.7315 17.1933 2.73152 17.1933 2.73154 17.1933C2.73156 17.1933 2.73158 17.1933 2.7316 17.1933C2.73163 17.1933 2.73165 17.1933 2.73167 17.1933C2.73169 17.1933 2.73171 17.1933 2.73173 17.1933C2.73175 17.1933 2.73177 17.1933 2.73179 17.1933C2.73181 17.1933 2.73183 17.1933 2.73185 17.1933C2.73187 17.1933 2.73189 17.1933 2.73191 17.1933C2.73193 17.1933 2.73196 17.1933 2.73198 17.1933C2.732 17.1933 2.73202 17.1933 2.73204 17.1933C2.73206 17.1933 2.73208 17.1933 2.7321 17.1933C2.73212 17.1933 2.73214 17.1933 2.73216 17.1933C2.73218 17.1933 2.7322 17.1933 2.73222 17.1933C2.73225 17.1933 2.73227 17.1933 2.73229 17.1933C2.73231 17.1933 2.73233 17.1933 2.73235 17.1933C2.73237 17.1933 2.73239 17.1933 2.73241 17.1933C2.73243 17.1933 2.73245 17.1933 2.73248 17.1933C2.7325 17.1933 2.73252 17.1933 2.73254 17.1933C2.73256 17.1933 2.73258 17.1933 2.7326 17.1933C2.73262 17.1933 2.73264 17.1933 2.73266 17.1933C2.73268 17.1933 2.73271 17.1933 2.73273 17.1933C2.73275 17.1933 2.73277 17.1933 2.73279 17.1933C2.73281 17.1933 2.73283 17.1933 2.73285 17.1933C2.73287 17.1933 2.7329 17.1933 2.73292 17.1933C2.73294 17.1933 2.73296 17.1933 2.73298 17.1933C2.733 17.1933 2.73302 17.1933 2.73304 17.1933C2.73306 17.1933 2.73309 17.1933 2.73311 17.1933C2.73313 17.1933 2.73315 17.1933 2.73317 17.1933C2.73319 17.1933 2.73321 17.1933 2.73323 17.1933C2.73326 17.1933 2.73328 17.1933 2.7333 17.1933C2.73332 17.1933 2.73334 17.1933 2.73336 17.1933C2.73338 17.1933 2.7334 17.1933 2.73343 17.1933C2.73345 17.1933 2.73347 17.1933 2.73349 17.1933C2.73351 17.1933 2.73353 17.1933 2.73355 17.1933C2.73357 17.1933 2.7336 17.1933 2.73362 17.1933C2.73364 17.1933 2.73366 17.1933 2.73368 17.1933C2.7337 17.1933 2.73372 17.1933 2.73375 17.1933C2.73377 17.1933 2.73379 17.1933 2.73381 17.1933C2.73383 17.1933 2.73385 17.1933 2.73387 17.1933C2.7339 17.1933 2.73392 17.1933 2.73394 17.1933C2.73396 17.1933 2.73398 17.1933 2.734 17.1933C2.73402 17.1933 2.73405 17.1933 2.73407 17.1933C2.73409 17.1933 2.73411 17.1933 2.73413 17.1933C2.73415 17.1933 2.73417 17.1933 2.7342 17.1933C2.73422 17.1933 2.73424 17.1933 2.73426 17.1933C2.73428 17.1933 2.7343 17.1933 2.73433 17.1933C2.73435 17.1933 2.73437 17.1933 2.73439 17.1933C2.73441 17.1933 2.73443 17.1933 2.73445 17.1933C2.73448 17.1933 2.7345 17.1933 2.73452 17.1933C2.73454 17.1933 2.73456 17.1933 2.73458 17.1933C2.73461 17.1933 2.73463 17.1933 2.73465 17.1933C2.73467 17.1933 2.73469 17.1933 2.73471 17.1933C2.73474 17.1933 2.73476 17.1933 2.73478 17.1933C2.7348 17.1933 2.73482 17.1933 2.73485 17.1933C2.73487 17.1933 2.73489 17.1933 2.73491 17.1933C2.73493 17.1933 2.73495 17.1933 2.73498 17.1933C2.735 17.1933 2.73502 17.1933 2.73504 17.1933C2.73506 17.1933 2.73508 17.1933 2.73511 17.1933C2.73513 17.1933 2.73515 17.1933 2.73517 17.1933C2.73519 17.1933 2.73522 17.1933 2.73524 17.1933C2.73526 17.1933 2.73528 17.1933 2.7353 17.1933C2.73532 17.1933 2.73535 17.1933 2.73537 17.1933C2.73539 17.1933 2.73541 17.1933 2.73543 17.1933C2.73546 17.1933 2.73548 17.1933 2.7355 17.1933C2.73552 17.1933 2.73554 17.1933 2.73557 17.1933C2.73559 17.1933 2.73561 17.1933 2.73563 17.1933C2.73565 17.1933 2.73567 17.1933 2.7357 17.1933C2.73572 17.1933 2.73574 17.1933 2.73576 17.1933C2.73578 17.1933 2.73581 17.1933 2.73583 17.1933C2.73585 17.1933 2.73587 17.1933 2.73589 17.1933C2.73592 17.1933 2.73594 17.1933 2.73596 17.1933C2.73598 17.1933 2.736 17.1933 2.73603 17.1933C2.73605 17.1933 2.73607 17.1933 2.73609 17.1933C2.73611 17.1933 2.73614 17.1933 2.73616 17.1933C2.73618 17.1933 2.7362 17.1933 2.73623 17.1933C2.73625 17.1933 2.73627 17.1933 2.73629 17.1933C2.73631 17.1933 2.73634 17.1933 2.73636 17.1933C2.73638 17.1933 2.7364 17.1933 2.73642 17.1933C2.73645 17.1933 2.73647 17.1933 2.73649 17.1933C2.73651 17.1933 2.73653 17.1933 2.73656 17.1933C2.73658 17.1933 2.7366 17.1933 2.73662 17.1933C2.73664 17.1933 2.73667 17.1933 2.73669 17.1933C2.73671 17.1933 2.73673 17.1933 2.73676 17.1933C2.73678 17.1933 2.7368 17.1933 2.73682 17.1933C2.73684 17.1933 2.73687 17.1933 2.73689 17.1933C2.73691 17.1933 2.73693 17.1933 2.73695 17.1933C2.73698 17.1933 2.737 17.1933 2.73702 17.1933C2.73704 17.1933 2.73707 17.1933 2.73709 17.1933C2.73711 17.1933 2.73713 17.1933 2.73715 17.1933C2.73718 17.1933 2.7372 17.1933 2.73722 17.1933C2.73724 17.1933 2.73727 17.1933 2.73729 17.1933C2.73731 17.1933 2.73733 17.1933 2.73735 17.1933C2.73738 17.1933 2.7374 17.1933 2.73742 17.1933C2.73744 17.1933 2.73747 17.1933 2.73749 17.1933C2.73751 17.1933 2.73753 17.1933 2.73756 17.1933C2.73758 17.1933 2.7376 17.1933 2.73762 17.1933C2.73764 17.1933 2.73767 17.1933 2.73769 17.1933C2.73771 17.1933 2.73773 17.1933 2.73776 17.1933C2.73778 17.1933 2.7378 17.1933 2.73782 17.1933C2.73784 17.1933 2.73787 17.1933 2.73789 17.1933C2.73791 17.1933 2.73793 17.1933 2.73796 17.1933C2.73798 17.1933 2.738 17.1933 2.73802 17.1933C2.73805 17.1933 2.73807 17.1933 2.73809 17.1933C2.73811 17.1933 2.73813 17.1933 2.73816 17.1933C2.73818 17.1933 2.7382 17.1933 2.73822 17.1933C2.73825 17.1933 2.73827 17.1933 2.73829 17.1933C2.73831 17.1933 2.73834 17.1933 2.73836 17.1933C2.73838 17.1933 2.7384 17.1933 2.73843 17.1933C2.73845 17.1933 2.73847 17.1933 2.73849 17.1933C2.73852 17.1933 2.73854 17.1933 2.73856 17.1933C2.73858 17.1933 2.7386 17.1933 2.73863 17.1933C2.73865 17.1933 2.73867 17.1933 2.73869 17.1933C2.73872 17.1933 2.73874 17.1933 2.73876 17.1933C2.73878 17.1933 2.73881 17.1933 2.73883 17.1933C2.73885 17.1933 2.73887 17.1933 2.7389 17.1933C2.73892 17.1933 2.73894 17.1933 2.73896 17.1933C2.73899 17.1933 2.73901 17.1933 2.73903 17.1933C2.73905 17.1933 2.73907 17.1933 2.7391 17.1933C2.73912 17.1933 2.73914 17.1933 2.73916 17.1933C2.73919 17.1933 2.73921 17.1933 2.73923 17.1933C2.73925 17.1933 2.73928 17.1933 2.7393 17.1933C2.73932 17.1933 2.73934 17.1933 2.73937 17.1933C2.73939 17.1933 2.73941 17.1933 2.73943 17.1933C2.73946 17.1933 2.73948 17.1933 2.7395 17.1933C2.73952 17.1933 2.73955 17.1933 2.73957 17.1933C2.73959 17.1933 2.73961 17.1933 2.73963 17.1933C2.73966 17.1933 2.73968 17.1933 2.7397 17.1933C2.73972 17.1933 2.73975 17.1933 2.73977 17.1933C2.73979 17.1933 2.73981 17.1933 2.73984 17.1933C2.73986 17.1933 2.73988 17.1933 2.7399 17.1933C2.73993 17.1933 2.73995 17.1933 2.73997 17.1933C2.73999 17.1933 2.74002 17.1933 2.74004 17.1933C2.74006 17.1933 2.74008 17.1933 2.74011 17.1933C2.74013 17.1933 2.74015 17.1933 2.74017 17.1933C2.7402 17.1933 2.74022 17.1933 2.74024 17.1933C2.74026 17.1933 2.74029 17.1933 2.74031 17.1933C2.74033 17.1933 2.74035 17.1933 2.74037 17.1933C2.7404 17.1933 2.74042 17.1933 2.74044 17.1933C2.74046 17.1933 2.74049 17.1933 2.74051 17.1933C2.74053 17.1933 2.74055 17.1933 2.74058 17.1933C2.7406 17.1933 2.74062 17.1933 2.74064 17.1933C2.74067 17.1933 2.74069 17.1933 2.74071 17.1933C2.74073 17.1933 2.74076 17.1933 2.74078 17.1933C2.7408 17.1933 2.74082 17.1933 2.74085 17.1933C2.74087 17.1933 2.74089 17.1933 2.74091 17.1933C2.74094 17.1933 2.74096 17.1933 2.74098 17.1933C2.741 17.1933 2.74102 17.1933 2.74105 17.1933C2.74107 17.1933 2.74109 17.1933 2.74111 17.1933C2.74114 17.1933 2.74116 17.1933 2.74118 17.1933C2.7412 17.1933 2.74123 17.1933 2.74125 17.1933C2.74127 17.1933 2.74129 17.1933 2.74132 17.1933C2.74134 17.1933 2.74136 17.1933 2.74138 17.1933C2.74141 17.1933 2.74143 17.1933 2.74145 17.1933C2.74147 17.1933 2.7415 17.1933 2.74152 17.1933C2.74154 17.1933 2.74156 17.1933 2.74158 17.1933C2.74161 17.1933 2.74163 17.1933 2.74165 17.1933C2.74167 17.1933 2.7417 17.1933 2.74172 17.1933C2.74174 17.1933 2.74176 17.1933 2.74179 17.1933C2.74181 17.1933 2.74183 17.1933 2.74185 17.1933C2.74188 17.1933 2.7419 17.1933 2.74192 17.1933C2.74194 17.1933 2.74196 17.1933 2.74199 17.1933C2.74201 17.1933 2.74203 17.1933 2.74205 17.1933C2.74208 17.1933 2.7421 17.1933 2.74212 17.1933C2.74214 17.1933 2.74217 17.1933 2.74219 17.1933C2.74221 17.1933 2.74223 17.1933 2.74225 17.1933C2.74228 17.1933 2.7423 17.1933 2.74232 17.1933C2.74234 17.1933 2.74237 17.1933 2.74239 17.1933C2.74241 17.1933 2.74243 17.1933 2.74246 17.1933C2.74248 17.1933 2.7425 17.1933 2.74252 17.1933C2.74254 17.1933 2.74257 17.1933 2.74259 17.1933C2.74261 17.1933 2.74263 17.1933 2.74266 17.1933C2.74268 17.1933 2.7427 17.1933 2.74272 17.1933C2.74274 17.1933 2.74277 17.1933 2.74279 17.1933C2.74281 17.1933 2.74283 17.1933 2.74286 17.1933C2.74288 17.1933 2.7429 17.1933 2.74292 17.1933C2.74294 17.1933 2.74297 17.1933 2.74299 17.1933C2.74301 17.1933 2.74303 17.1933 2.74306 17.1933C2.74308 17.1933 2.7431 17.1933 2.74312 17.1933C2.74314 17.1933 2.74317 17.1933 2.74319 17.1933C2.74321 17.1933 2.74323 17.1933 2.74326 17.1933C2.74328 17.1933 2.7433 17.1933 2.74332 17.1933C2.74334 17.1933 2.74337 17.1933 2.74339 17.1933C2.74341 17.1933 2.74343 17.1933 2.74345 17.1933C2.74348 17.1933 2.7435 17.1933 2.74352 17.1933C2.74354 17.1933 2.74357 17.1933 2.74359 17.1933C2.74361 17.1933 2.74363 17.1933 2.74365 17.1933C2.74368 17.1933 2.7437 17.1933 2.74372 17.1933C2.74374 17.1933 2.74376 17.1933 2.74379 17.1933C2.74381 17.1933 2.74383 17.1933 2.74385 17.1933C2.74387 17.1933 2.7439 17.1933 2.74392 17.1933C2.74394 17.1933 2.74396 17.1933 2.74398 17.1933C2.74401 17.1933 2.74403 17.1933 2.74405 17.1933C2.74407 17.1933 2.74409 17.1933 2.74412 17.1933C2.74414 17.1933 2.74416 17.1933 2.74418 17.1933C2.7442 17.1933 2.74423 17.1933 2.74425 17.1933C2.74427 17.1933 2.74429 17.1933 2.74431 17.1933C2.74434 17.1933 2.74436 17.1933 2.74438 17.1933C2.7444 17.1933 2.74442 17.1933 2.74445 17.1933C2.74447 17.1933 2.74449 17.1933 2.74451 17.1933C2.74453 17.1933 2.74456 17.1933 2.74458 17.1933C2.7446 17.1933 2.74462 17.1933 2.74464 17.1933C2.74467 17.1933 2.74469 17.1933 2.74471 17.1933C2.74473 17.1933 2.74475 17.1933 2.74477 17.1933C2.7448 17.1933 2.74482 17.1933 2.74484 17.1933C2.74486 17.1933 2.74488 17.1933 2.74491 17.1933C2.74493 17.1933 2.74495 17.1933 2.74497 17.1933C2.74499 17.1933 2.74501 17.1933 2.74504 17.1933C2.74506 17.1933 2.74508 17.1933 2.7451 17.1933C2.74512 17.1933 2.74514 17.1933 2.74517 17.1933C2.74519 17.1933 2.74521 17.1933 2.74523 17.1933C2.74525 17.1933 2.74528 17.1933 2.7453 17.1933C2.74532 17.1933 2.74534 17.1933 2.74536 17.1933C2.74538 17.1933 2.74541 17.1933 2.74543 17.1933C2.74545 17.1933 2.74547 17.1933 2.74549 17.1933C2.74551 17.1933 2.74554 17.1933 2.74556 17.1933C2.74558 17.1933 2.7456 17.1933 2.74562 17.1933C2.74564 17.1933 2.74567 17.1933 2.74569 17.1933C2.74571 17.1933 2.74573 17.1933 2.74575 17.1933C2.74577 17.1933 2.74579 17.1933 2.74582 17.1933C2.74584 17.1933 2.74586 17.1933 2.74588 17.1933C2.7459 17.1933 2.74592 17.1933 2.74595 17.1933C2.74597 17.1933 2.74599 17.1933 2.74601 17.1933C2.74603 17.1933 2.74605 17.1933 2.74607 17.1933C2.7461 17.1933 2.74612 17.1933 2.74614 17.1933C2.74616 17.1933 2.74618 17.1933 2.7462 17.1933C2.74622 17.1933 2.74625 17.1933 2.74627 17.1933C2.74629 17.1933 2.74631 17.1933 2.74633 17.1933C2.74635 17.1933 2.74637 17.1933 2.7464 17.1933C2.74642 17.1933 2.74644 17.1933 2.74646 17.1933C2.74648 17.1933 2.7465 17.1933 2.74652 17.1933C2.74655 17.1933 2.74657 17.1933 2.74659 17.1933C2.74661 17.1933 2.74663 17.1933 2.74665 17.1933C2.74667 17.1933 2.74669 17.1933 2.74672 17.1933C2.74674 17.1933 2.74676 17.1933 2.74678 17.1933C2.7468 17.1933 2.74682 17.1933 2.74684 17.1933C2.74686 17.1933 2.74689 17.1933 2.74691 17.1933C2.74693 17.1933 2.74695 17.1933 2.74697 17.1933C2.74699 17.1933 2.74701 17.1933 2.74703 17.1933C2.74706 17.1933 2.74708 17.1933 2.7471 17.1933C2.74712 17.1933 2.74714 17.1933 2.74716 17.1933C2.74718 17.1933 2.7472 17.1933 2.74722 17.1933C2.74725 17.1933 2.74727 17.1933 2.74729 17.1933C2.74731 17.1933 2.74733 17.1933 2.74735 17.1933C2.74737 17.1933 2.74739 17.1933 2.74741 17.1933C2.74743 17.1933 2.74746 17.1933 2.74748 17.1933C2.7475 17.1933 2.74752 17.1933 2.74754 17.1933C2.74756 17.1933 2.74758 17.1933 2.7476 17.1933C2.74762 17.1933 2.74764 17.1933 2.74766 17.1933C2.74769 17.1933 2.74771 17.1933 2.74773 17.1933C2.74775 17.1933 2.74777 17.1933 2.74779 17.1933C2.74781 17.1933 2.74783 17.1933 2.74785 17.1933C2.74787 17.1933 2.74789 17.1933 2.74791 17.1933C2.74794 17.1933 2.74796 17.1933 2.74798 17.1933C2.748 17.1933 2.74802 17.1933 2.74804 17.1933C2.74806 17.1933 2.74808 17.1933 2.7481 17.1933C2.74812 17.1933 2.74814 17.1933 2.74816 17.1933C2.74818 17.1933 2.7482 17.1933 2.74823 17.1933C2.74825 17.1933 2.74827 17.1933 2.74829 17.1933C2.74831 17.1933 2.74833 17.1933 2.74835 17.1933C2.74837 17.1933 2.74839 17.1933 2.74841 17.1933C2.74843 17.1933 2.74845 17.1933 2.74847 17.1933C2.74849 17.1933 2.74851 17.1933 2.74853 17.1933C2.74855 17.1933 2.74857 17.1933 2.7486 17.1933C2.74862 17.1933 2.74864 17.1933 2.74866 17.1933C2.74868 17.1933 2.7487 17.1933 2.74872 17.1933C2.74874 17.1933 2.74876 17.1933 2.74878 17.1933C2.7488 17.1933 2.74882 17.1933 2.74884 17.1933C2.74886 17.1933 2.74888 17.1933 2.7489 17.1933C2.74892 17.1933 2.74894 17.1933 2.74896 17.1933C2.74898 17.1933 2.749 17.1933 2.74902 17.1933C2.74904 17.1933 2.74906 17.1933 2.74908 17.1933C2.7491 17.1933 2.74912 17.1933 2.74914 17.1933C2.74916 17.1933 2.74918 17.1933 2.7492 17.1933C2.74922 17.1933 2.74925 17.1933 2.74927 17.1933C2.74929 17.1933 2.74931 17.1933 2.74933 17.1933C2.74935 17.1933 2.74937 17.1933 2.74939 17.1933C2.74941 17.1933 2.74943 17.1933 2.74945 17.1933C2.74947 17.1933 2.74949 17.1933 2.74951 17.1933C2.74953 17.1933 2.74955 17.1933 2.74957 17.1933C2.74959 17.1933 2.74961 17.1933 2.74963 17.1933C2.74965 17.1933 2.74967 17.1933 2.74969 17.1933C2.74971 17.1933 2.74973 17.1933 2.74975 17.1933C2.74976 17.1933 2.74978 17.1933 2.7498 17.1933C2.74982 17.1933 2.74984 17.1933 2.74986 17.1933C2.74988 17.1933 2.7499 17.1933 2.74992 17.1933C2.74994 17.1933 2.74996 17.1933 2.74998 17.1933C2.75 17.1933 2.75002 17.1933 2.75004 17.1933C2.75006 17.1933 2.75008 17.1933 2.7501 17.1933C2.75012 17.1933 2.75014 17.1933 2.75016 17.1933C2.75018 17.1933 2.7502 17.1933 2.75022 17.1933C2.75024 17.1933 2.75026 17.1933 2.75028 17.1933C2.7503 17.1933 2.75032 17.1933 2.75034 17.1933C2.75036 17.1933 2.75037 17.1933 2.75039 17.1933C2.75041 17.1933 2.75043 17.1933 2.75045 17.1933C2.75047 17.1933 2.75049 17.1933 2.75051 17.1933C2.75053 17.1933 2.75055 17.1933 2.75057 17.1933C2.75059 17.1933 2.75061 17.1933 2.75063 17.1933C2.75065 17.1933 2.75067 17.1933 2.75068 17.1933C2.7507 17.1933 2.75072 17.1933 2.75074 17.1933C2.75076 17.1933 2.75078 17.1933 2.7508 17.1933C2.75082 17.1933 2.75084 17.1933 2.75086 17.1933C2.75088 17.1933 2.7509 17.1933 2.75092 17.1933C2.75093 17.1933 2.75095 17.1933 2.75097 17.1933C2.75099 17.1933 2.75101 17.1933 2.75103 17.1933C2.75105 17.1933 2.75107 17.1933 2.75109 17.1933C2.75111 17.1933 2.75112 17.1933 2.75114 17.1933C2.75116 17.1933 2.75118 17.1933 2.7512 17.1933C2.75122 17.1933 2.75124 17.1933 2.75126 17.1933C2.75128 17.1933 2.7513 17.1933 2.75131 17.1933C2.75133 17.1933 2.75135 17.1933 2.75137 17.1933C2.75139 17.1933 2.75141 17.1933 2.75143 17.1933C2.75145 17.1933 2.75146 17.1933 2.75148 17.1933C2.7515 17.1933 2.75152 17.1933 2.75154 17.1933C2.75156 17.1933 2.75158 17.1933 2.7516 17.1933C2.75161 17.1933 2.75163 17.1933 2.75165 17.1933C2.75167 17.1933 2.75169 17.1933 2.75171 17.1933C2.75173 17.1933 2.75174 17.1933 2.75176 17.1933C2.75178 17.1933 2.7518 17.1933 2.75182 17.1933C2.75184 17.1933 2.75185 17.1933 2.75187 17.1933C2.75189 17.1933 2.75191 17.1933 2.75193 17.1933C2.75195 17.1933 2.75197 17.1933 2.75198 17.1933C2.752 17.1933 2.75202 17.1933 2.75204 17.1933C2.75206 17.1933 2.75208 17.1933 2.75209 17.1933C2.75211 17.1933 2.75213 17.1933 2.75215 17.1933C2.75217 17.1933 2.75218 17.1933 2.7522 17.1933C2.75222 17.1933 2.75224 17.1933 2.75226 17.1933C2.75228 17.1933 2.75229 17.1933 2.75231 17.1933C2.75233 17.1933 2.75235 17.1933 2.75237 17.1933C2.75238 17.1933 2.7524 17.1933 2.75242 17.1933C2.75244 17.1933 2.75246 17.1933 2.75247 17.1933C2.75249 17.1933 2.75251 17.1933 2.75253 17.1933C2.75255 17.1933 2.75256 17.1933 2.75258 17.1933C2.7526 17.1933 2.75262 17.1933 2.75263 17.1933C2.75265 17.1933 2.75267 17.1933 2.75269 17.1933C2.75271 17.1933 2.75272 17.1933 2.75274 17.1933C2.75276 17.1933 2.75278 17.1933 2.75279 17.1933C2.75281 17.1933 2.75283 17.1933 2.75285 17.1933C2.75287 17.1933 2.75288 17.1933 2.7529 17.1933C2.75292 17.1933 2.75294 17.1933 2.75295 17.1933C2.75297 17.1933 2.75299 17.1933 2.75301 17.1933C2.75302 17.1933 2.75304 17.1933 2.75306 17.1933C2.75308 17.1933 2.75309 17.1933 2.75311 17.1933C2.75313 17.1933 2.75314 17.1933 2.75316 17.1933C2.75318 17.1933 2.7532 17.1933 2.75321 17.1933C2.75323 17.1933 2.75325 17.1933 2.75327 17.1933C2.75328 17.1933 2.7533 17.1933 2.75332 17.1933C2.75333 17.1933 2.75335 17.1933 2.75337 17.1933C2.75339 17.1933 2.7534 17.1933 2.75342 17.1933C2.75344 17.1933 2.75345 17.1933 2.75347 17.1933C2.75349 17.1933 2.75351 17.1933 2.75352 17.1933C2.75354 17.1933 2.75356 17.1933 2.75357 17.1933C2.75359 17.1933 2.75361 17.1933 2.75362 17.1933C2.75364 17.1933 2.75366 17.1933 2.75368 17.1933C2.75369 17.1933 2.75371 17.1933 2.75373 17.1933C2.75374 17.1933 2.75376 17.1933 2.75378 17.1933C2.75379 17.1933 2.75381 17.1933 2.75383 17.1933C2.75384 17.1933 2.75386 17.1933 2.75388 17.1933C2.75389 17.1933 2.75391 17.1933 2.75393 17.1933C2.75394 17.1933 2.75396 17.1933 2.75398 17.1933C2.75399 17.1933 2.75401 17.1933 2.75403 17.1933C2.75404 17.1933 2.75406 17.1933 2.75408 17.1933C2.75409 17.1933 2.75411 17.1933 2.75412 17.1933C2.75414 17.1933 2.75416 17.1933 2.75417 17.1933C2.75419 17.1933 2.75421 17.1933 2.75422 17.1933C2.75424 17.1933 2.75425 17.1933 2.75427 17.1933C2.75429 17.1933 2.7543 17.1933 2.75432 17.1933C2.75434 17.1933 2.75435 17.1933 2.75437 17.1933C2.75438 17.1933 2.7544 17.1933 2.75442 17.1933C2.75443 17.1933 2.75445 17.1933 2.75446 17.1933C2.75448 17.1933 2.7545 17.1933 2.75451 17.1933C2.75453 17.1933 2.75454 17.1933 2.75456 17.1933C2.75458 17.1933 2.75459 17.1933 2.75461 17.1933C2.75462 17.1933 2.75464 17.1933 2.75466 17.1933C2.75467 17.1933 2.75469 17.1933 2.7547 17.1933C2.75472 17.1933 2.75473 17.1933 2.75475 17.1933C2.75477 17.1933 2.75478 17.1933 2.7548 17.1933C2.75481 17.1933 2.75483 17.1933 2.75484 17.1933C2.75486 17.1933 2.75487 17.1933 2.75489 17.1933C2.75491 17.1933 2.75492 17.1933 2.75494 17.1933C2.75495 17.1933 2.75497 17.1933 2.75498 17.1933C2.755 17.1933 2.75501 17.1933 2.75503 17.1933C2.75504 17.1933 2.75506 17.1933 2.75508 17.1933C2.75509 17.1933 2.75511 17.1933 2.75512 17.1933C2.75514 17.1933 2.75515 17.1933 2.75517 17.1933C2.75518 17.1933 2.7552 17.1933 2.75521 17.1933C2.75523 17.1933 2.75524 17.1933 2.75526 17.1933C2.75527 17.1933 2.75529 17.1933 2.7553 17.1933C2.75532 17.1933 2.75533 17.1933 2.75535 17.1933V17.0807V16.9681C2.75533 16.9681 2.75532 16.9681 2.7553 16.9681C2.75529 16.9681 2.75527 16.9681 2.75526 16.9681C2.75524 16.9681 2.75523 16.9681 2.75521 16.9681C2.7552 16.9681 2.75518 16.9681 2.75517 16.9681C2.75515 16.9681 2.75514 16.9681 2.75512 16.9681C2.75511 16.9681 2.75509 16.9681 2.75508 16.9681C2.75506 16.9681 2.75504 16.9681 2.75503 16.9681C2.75501 16.9681 2.755 16.9681 2.75498 16.9681C2.75497 16.9681 2.75495 16.9681 2.75494 16.9681C2.75492 16.9681 2.75491 16.9681 2.75489 16.9681C2.75487 16.9681 2.75486 16.9681 2.75484 16.9681C2.75483 16.9681 2.75481 16.9681 2.7548 16.9681C2.75478 16.9681 2.75477 16.9681 2.75475 16.9681C2.75473 16.9681 2.75472 16.9681 2.7547 16.9681C2.75469 16.9681 2.75467 16.9681 2.75466 16.9681C2.75464 16.9681 2.75462 16.9681 2.75461 16.9681C2.75459 16.9681 2.75458 16.9681 2.75456 16.9681C2.75454 16.9681 2.75453 16.9681 2.75451 16.9681C2.7545 16.9681 2.75448 16.9681 2.75446 16.9681C2.75445 16.9681 2.75443 16.9681 2.75442 16.9681C2.7544 16.9681 2.75438 16.9681 2.75437 16.9681C2.75435 16.9681 2.75434 16.9681 2.75432 16.9681C2.7543 16.9681 2.75429 16.9681 2.75427 16.9681C2.75425 16.9681 2.75424 16.9681 2.75422 16.9681C2.75421 16.9681 2.75419 16.9681 2.75417 16.9681C2.75416 16.9681 2.75414 16.9681 2.75412 16.9681C2.75411 16.9681 2.75409 16.9681 2.75408 16.9681C2.75406 16.9681 2.75404 16.9681 2.75403 16.9681C2.75401 16.9681 2.75399 16.9681 2.75398 16.9681C2.75396 16.9681 2.75394 16.9681 2.75393 16.9681C2.75391 16.9681 2.75389 16.9681 2.75388 16.9681C2.75386 16.9681 2.75384 16.9681 2.75383 16.9681C2.75381 16.9681 2.75379 16.9681 2.75378 16.9681C2.75376 16.9681 2.75374 16.9681 2.75373 16.9681C2.75371 16.9681 2.75369 16.9681 2.75368 16.9681C2.75366 16.9681 2.75364 16.9681 2.75362 16.9681C2.75361 16.9681 2.75359 16.9681 2.75357 16.9681C2.75356 16.9681 2.75354 16.9681 2.75352 16.9681C2.75351 16.9681 2.75349 16.9681 2.75347 16.9681C2.75345 16.9681 2.75344 16.9681 2.75342 16.9681C2.7534 16.9681 2.75339 16.9681 2.75337 16.9681C2.75335 16.9681 2.75333 16.9681 2.75332 16.9681C2.7533 16.9681 2.75328 16.9681 2.75327 16.9681C2.75325 16.9681 2.75323 16.9681 2.75321 16.9681C2.7532 16.9681 2.75318 16.9681 2.75316 16.9681C2.75314 16.9681 2.75313 16.9681 2.75311 16.9681C2.75309 16.9681 2.75308 16.9681 2.75306 16.9681C2.75304 16.9681 2.75302 16.9681 2.75301 16.9681C2.75299 16.9681 2.75297 16.9681 2.75295 16.9681C2.75294 16.9681 2.75292 16.9681 2.7529 16.9681C2.75288 16.9681 2.75287 16.9681 2.75285 16.9681C2.75283 16.9681 2.75281 16.9681 2.75279 16.9681C2.75278 16.9681 2.75276 16.9681 2.75274 16.9681C2.75272 16.9681 2.75271 16.9681 2.75269 16.9681C2.75267 16.9681 2.75265 16.9681 2.75263 16.9681C2.75262 16.9681 2.7526 16.9681 2.75258 16.9681C2.75256 16.9681 2.75255 16.9681 2.75253 16.9681C2.75251 16.9681 2.75249 16.9681 2.75247 16.9681C2.75246 16.9681 2.75244 16.9681 2.75242 16.9681C2.7524 16.9681 2.75238 16.9681 2.75237 16.9681C2.75235 16.9681 2.75233 16.9681 2.75231 16.9681C2.75229 16.9681 2.75228 16.9681 2.75226 16.9681C2.75224 16.9681 2.75222 16.9681 2.7522 16.9681C2.75218 16.9681 2.75217 16.9681 2.75215 16.9681C2.75213 16.9681 2.75211 16.9681 2.75209 16.9681C2.75208 16.9681 2.75206 16.9681 2.75204 16.9681C2.75202 16.9681 2.752 16.9681 2.75198 16.9681C2.75197 16.9681 2.75195 16.9681 2.75193 16.9681C2.75191 16.9681 2.75189 16.9681 2.75187 16.9681C2.75185 16.9681 2.75184 16.9681 2.75182 16.9681C2.7518 16.9681 2.75178 16.9681 2.75176 16.9681C2.75174 16.9681 2.75173 16.9681 2.75171 16.9681C2.75169 16.9681 2.75167 16.9681 2.75165 16.9681C2.75163 16.9681 2.75161 16.9681 2.7516 16.9681C2.75158 16.9681 2.75156 16.9681 2.75154 16.9681C2.75152 16.9681 2.7515 16.9681 2.75148 16.9681C2.75146 16.9681 2.75145 16.9681 2.75143 16.9681C2.75141 16.9681 2.75139 16.9681 2.75137 16.9681C2.75135 16.9681 2.75133 16.9681 2.75131 16.9681C2.7513 16.9681 2.75128 16.9681 2.75126 16.9681C2.75124 16.9681 2.75122 16.9681 2.7512 16.9681C2.75118 16.9681 2.75116 16.9681 2.75114 16.9681C2.75112 16.9681 2.75111 16.9681 2.75109 16.9681C2.75107 16.9681 2.75105 16.9681 2.75103 16.9681C2.75101 16.9681 2.75099 16.9681 2.75097 16.9681C2.75095 16.9681 2.75093 16.9681 2.75092 16.9681C2.7509 16.9681 2.75088 16.9681 2.75086 16.9681C2.75084 16.9681 2.75082 16.9681 2.7508 16.9681C2.75078 16.9681 2.75076 16.9681 2.75074 16.9681C2.75072 16.9681 2.7507 16.9681 2.75068 16.9681C2.75067 16.9681 2.75065 16.9681 2.75063 16.9681C2.75061 16.9681 2.75059 16.9681 2.75057 16.9681C2.75055 16.9681 2.75053 16.9681 2.75051 16.9681C2.75049 16.9681 2.75047 16.9681 2.75045 16.9681C2.75043 16.9681 2.75041 16.9681 2.75039 16.9681C2.75037 16.9681 2.75036 16.9681 2.75034 16.9681C2.75032 16.9681 2.7503 16.9681 2.75028 16.9681C2.75026 16.9681 2.75024 16.9681 2.75022 16.9681C2.7502 16.9681 2.75018 16.9681 2.75016 16.9681C2.75014 16.9681 2.75012 16.9681 2.7501 16.9681C2.75008 16.9681 2.75006 16.9681 2.75004 16.9681C2.75002 16.9681 2.75 16.9681 2.74998 16.9681C2.74996 16.9681 2.74994 16.9681 2.74992 16.9681C2.7499 16.9681 2.74988 16.9681 2.74986 16.9681C2.74984 16.9681 2.74982 16.9681 2.7498 16.9681C2.74978 16.9681 2.74976 16.9681 2.74975 16.9681C2.74973 16.9681 2.74971 16.9681 2.74969 16.9681C2.74967 16.9681 2.74965 16.9681 2.74963 16.9681C2.74961 16.9681 2.74959 16.9681 2.74957 16.9681C2.74955 16.9681 2.74953 16.9681 2.74951 16.9681C2.74949 16.9681 2.74947 16.9681 2.74945 16.9681C2.74943 16.9681 2.74941 16.9681 2.74939 16.9681C2.74937 16.9681 2.74935 16.9681 2.74933 16.9681C2.74931 16.9681 2.74929 16.9681 2.74927 16.9681C2.74925 16.9681 2.74922 16.9681 2.7492 16.9681C2.74918 16.9681 2.74916 16.9681 2.74914 16.9681C2.74912 16.9681 2.7491 16.9681 2.74908 16.9681C2.74906 16.9681 2.74904 16.9681 2.74902 16.9681C2.749 16.9681 2.74898 16.9681 2.74896 16.9681C2.74894 16.9681 2.74892 16.9681 2.7489 16.9681C2.74888 16.9681 2.74886 16.9681 2.74884 16.9681C2.74882 16.9681 2.7488 16.9681 2.74878 16.9681C2.74876 16.9681 2.74874 16.9681 2.74872 16.9681C2.7487 16.9681 2.74868 16.9681 2.74866 16.9681C2.74864 16.9681 2.74862 16.9681 2.7486 16.9681C2.74857 16.9681 2.74855 16.9681 2.74853 16.9681C2.74851 16.9681 2.74849 16.9681 2.74847 16.9681C2.74845 16.9681 2.74843 16.9681 2.74841 16.9681C2.74839 16.9681 2.74837 16.9681 2.74835 16.9681C2.74833 16.9681 2.74831 16.9681 2.74829 16.9681C2.74827 16.9681 2.74825 16.9681 2.74823 16.9681C2.7482 16.9681 2.74818 16.9681 2.74816 16.9681C2.74814 16.9681 2.74812 16.9681 2.7481 16.9681C2.74808 16.9681 2.74806 16.9681 2.74804 16.9681C2.74802 16.9681 2.748 16.9681 2.74798 16.9681C2.74796 16.9681 2.74794 16.9681 2.74791 16.9681C2.74789 16.9681 2.74787 16.9681 2.74785 16.9681C2.74783 16.9681 2.74781 16.9681 2.74779 16.9681C2.74777 16.9681 2.74775 16.9681 2.74773 16.9681C2.74771 16.9681 2.74769 16.9681 2.74766 16.9681C2.74764 16.9681 2.74762 16.9681 2.7476 16.9681C2.74758 16.9681 2.74756 16.9681 2.74754 16.9681C2.74752 16.9681 2.7475 16.9681 2.74748 16.9681C2.74746 16.9681 2.74743 16.9681 2.74741 16.9681C2.74739 16.9681 2.74737 16.9681 2.74735 16.9681C2.74733 16.9681 2.74731 16.9681 2.74729 16.9681C2.74727 16.9681 2.74725 16.9681 2.74722 16.9681C2.7472 16.9681 2.74718 16.9681 2.74716 16.9681C2.74714 16.9681 2.74712 16.9681 2.7471 16.9681C2.74708 16.9681 2.74706 16.9681 2.74703 16.9681C2.74701 16.9681 2.74699 16.9681 2.74697 16.9681C2.74695 16.9681 2.74693 16.9681 2.74691 16.9681C2.74689 16.9681 2.74686 16.9681 2.74684 16.9681C2.74682 16.9681 2.7468 16.9681 2.74678 16.9681C2.74676 16.9681 2.74674 16.9681 2.74672 16.9681C2.74669 16.9681 2.74667 16.9681 2.74665 16.9681C2.74663 16.9681 2.74661 16.9681 2.74659 16.9681C2.74657 16.9681 2.74655 16.9681 2.74652 16.9681C2.7465 16.9681 2.74648 16.9681 2.74646 16.9681C2.74644 16.9681 2.74642 16.9681 2.7464 16.9681C2.74637 16.9681 2.74635 16.9681 2.74633 16.9681C2.74631 16.9681 2.74629 16.9681 2.74627 16.9681C2.74625 16.9681 2.74622 16.9681 2.7462 16.9681C2.74618 16.9681 2.74616 16.9681 2.74614 16.9681C2.74612 16.9681 2.7461 16.9681 2.74607 16.9681C2.74605 16.9681 2.74603 16.9681 2.74601 16.9681C2.74599 16.9681 2.74597 16.9681 2.74595 16.9681C2.74592 16.9681 2.7459 16.9681 2.74588 16.9681C2.74586 16.9681 2.74584 16.9681 2.74582 16.9681C2.74579 16.9681 2.74577 16.9681 2.74575 16.9681C2.74573 16.9681 2.74571 16.9681 2.74569 16.9681C2.74567 16.9681 2.74564 16.9681 2.74562 16.9681C2.7456 16.9681 2.74558 16.9681 2.74556 16.9681C2.74554 16.9681 2.74551 16.9681 2.74549 16.9681C2.74547 16.9681 2.74545 16.9681 2.74543 16.9681C2.74541 16.9681 2.74538 16.9681 2.74536 16.9681C2.74534 16.9681 2.74532 16.9681 2.7453 16.9681C2.74528 16.9681 2.74525 16.9681 2.74523 16.9681C2.74521 16.9681 2.74519 16.9681 2.74517 16.9681C2.74514 16.9681 2.74512 16.9681 2.7451 16.9681C2.74508 16.9681 2.74506 16.9681 2.74504 16.9681C2.74501 16.9681 2.74499 16.9681 2.74497 16.9681C2.74495 16.9681 2.74493 16.9681 2.74491 16.9681C2.74488 16.9681 2.74486 16.9681 2.74484 16.9681C2.74482 16.9681 2.7448 16.9681 2.74477 16.9681C2.74475 16.9681 2.74473 16.9681 2.74471 16.9681C2.74469 16.9681 2.74467 16.9681 2.74464 16.9681C2.74462 16.9681 2.7446 16.9681 2.74458 16.9681C2.74456 16.9681 2.74453 16.9681 2.74451 16.9681C2.74449 16.9681 2.74447 16.9681 2.74445 16.9681C2.74442 16.9681 2.7444 16.9681 2.74438 16.9681C2.74436 16.9681 2.74434 16.9681 2.74431 16.9681C2.74429 16.9681 2.74427 16.9681 2.74425 16.9681C2.74423 16.9681 2.7442 16.9681 2.74418 16.9681C2.74416 16.9681 2.74414 16.9681 2.74412 16.9681C2.74409 16.9681 2.74407 16.9681 2.74405 16.9681C2.74403 16.9681 2.74401 16.9681 2.74398 16.9681C2.74396 16.9681 2.74394 16.9681 2.74392 16.9681C2.7439 16.9681 2.74387 16.9681 2.74385 16.9681C2.74383 16.9681 2.74381 16.9681 2.74379 16.9681C2.74376 16.9681 2.74374 16.9681 2.74372 16.9681C2.7437 16.9681 2.74368 16.9681 2.74365 16.9681C2.74363 16.9681 2.74361 16.9681 2.74359 16.9681C2.74357 16.9681 2.74354 16.9681 2.74352 16.9681C2.7435 16.9681 2.74348 16.9681 2.74345 16.9681C2.74343 16.9681 2.74341 16.9681 2.74339 16.9681C2.74337 16.9681 2.74334 16.9681 2.74332 16.9681C2.7433 16.9681 2.74328 16.9681 2.74326 16.9681C2.74323 16.9681 2.74321 16.9681 2.74319 16.9681C2.74317 16.9681 2.74314 16.9681 2.74312 16.9681C2.7431 16.9681 2.74308 16.9681 2.74306 16.9681C2.74303 16.9681 2.74301 16.9681 2.74299 16.9681C2.74297 16.9681 2.74294 16.9681 2.74292 16.9681C2.7429 16.9681 2.74288 16.9681 2.74286 16.9681C2.74283 16.9681 2.74281 16.9681 2.74279 16.9681C2.74277 16.9681 2.74274 16.9681 2.74272 16.9681C2.7427 16.9681 2.74268 16.9681 2.74266 16.9681C2.74263 16.9681 2.74261 16.9681 2.74259 16.9681C2.74257 16.9681 2.74254 16.9681 2.74252 16.9681C2.7425 16.9681 2.74248 16.9681 2.74246 16.9681C2.74243 16.9681 2.74241 16.9681 2.74239 16.9681C2.74237 16.9681 2.74234 16.9681 2.74232 16.9681C2.7423 16.9681 2.74228 16.9681 2.74225 16.9681C2.74223 16.9681 2.74221 16.9681 2.74219 16.9681C2.74217 16.9681 2.74214 16.9681 2.74212 16.9681C2.7421 16.9681 2.74208 16.9681 2.74205 16.9681C2.74203 16.9681 2.74201 16.9681 2.74199 16.9681C2.74196 16.9681 2.74194 16.9681 2.74192 16.9681C2.7419 16.9681 2.74188 16.9681 2.74185 16.9681C2.74183 16.9681 2.74181 16.9681 2.74179 16.9681C2.74176 16.9681 2.74174 16.9681 2.74172 16.9681C2.7417 16.9681 2.74167 16.9681 2.74165 16.9681C2.74163 16.9681 2.74161 16.9681 2.74158 16.9681C2.74156 16.9681 2.74154 16.9681 2.74152 16.9681C2.7415 16.9681 2.74147 16.9681 2.74145 16.9681C2.74143 16.9681 2.74141 16.9681 2.74138 16.9681C2.74136 16.9681 2.74134 16.9681 2.74132 16.9681C2.74129 16.9681 2.74127 16.9681 2.74125 16.9681C2.74123 16.9681 2.7412 16.9681 2.74118 16.9681C2.74116 16.9681 2.74114 16.9681 2.74111 16.9681C2.74109 16.9681 2.74107 16.9681 2.74105 16.9681C2.74102 16.9681 2.741 16.9681 2.74098 16.9681C2.74096 16.9681 2.74094 16.9681 2.74091 16.9681C2.74089 16.9681 2.74087 16.9681 2.74085 16.9681C2.74082 16.9681 2.7408 16.9681 2.74078 16.9681C2.74076 16.9681 2.74073 16.9681 2.74071 16.9681C2.74069 16.9681 2.74067 16.9681 2.74064 16.9681C2.74062 16.9681 2.7406 16.9681 2.74058 16.9681C2.74055 16.9681 2.74053 16.9681 2.74051 16.9681C2.74049 16.9681 2.74046 16.9681 2.74044 16.9681C2.74042 16.9681 2.7404 16.9681 2.74037 16.9681C2.74035 16.9681 2.74033 16.9681 2.74031 16.9681C2.74029 16.9681 2.74026 16.9681 2.74024 16.9681C2.74022 16.9681 2.7402 16.9681 2.74017 16.9681C2.74015 16.9681 2.74013 16.9681 2.74011 16.9681C2.74008 16.9681 2.74006 16.9681 2.74004 16.9681C2.74002 16.9681 2.73999 16.9681 2.73997 16.9681C2.73995 16.9681 2.73993 16.9681 2.7399 16.9681C2.73988 16.9681 2.73986 16.9681 2.73984 16.9681C2.73981 16.9681 2.73979 16.9681 2.73977 16.9681C2.73975 16.9681 2.73972 16.9681 2.7397 16.9681C2.73968 16.9681 2.73966 16.9681 2.73963 16.9681C2.73961 16.9681 2.73959 16.9681 2.73957 16.9681C2.73955 16.9681 2.73952 16.9681 2.7395 16.9681C2.73948 16.9681 2.73946 16.9681 2.73943 16.9681C2.73941 16.9681 2.73939 16.9681 2.73937 16.9681C2.73934 16.9681 2.73932 16.9681 2.7393 16.9681C2.73928 16.9681 2.73925 16.9681 2.73923 16.9681C2.73921 16.9681 2.73919 16.9681 2.73916 16.9681C2.73914 16.9681 2.73912 16.9681 2.7391 16.9681C2.73907 16.9681 2.73905 16.9681 2.73903 16.9681C2.73901 16.9681 2.73899 16.9681 2.73896 16.9681C2.73894 16.9681 2.73892 16.9681 2.7389 16.9681C2.73887 16.9681 2.73885 16.9681 2.73883 16.9681C2.73881 16.9681 2.73878 16.9681 2.73876 16.9681C2.73874 16.9681 2.73872 16.9681 2.73869 16.9681C2.73867 16.9681 2.73865 16.9681 2.73863 16.9681C2.7386 16.9681 2.73858 16.9681 2.73856 16.9681C2.73854 16.9681 2.73852 16.9681 2.73849 16.9681C2.73847 16.9681 2.73845 16.9681 2.73843 16.9681C2.7384 16.9681 2.73838 16.9681 2.73836 16.9681C2.73834 16.9681 2.73831 16.9681 2.73829 16.9681C2.73827 16.9681 2.73825 16.9681 2.73822 16.9681C2.7382 16.9681 2.73818 16.9681 2.73816 16.9681C2.73813 16.9681 2.73811 16.9681 2.73809 16.9681C2.73807 16.9681 2.73805 16.9681 2.73802 16.9681C2.738 16.9681 2.73798 16.9681 2.73796 16.9681C2.73793 16.9681 2.73791 16.9681 2.73789 16.9681C2.73787 16.9681 2.73784 16.9681 2.73782 16.9681C2.7378 16.9681 2.73778 16.9681 2.73776 16.9681C2.73773 16.9681 2.73771 16.9681 2.73769 16.9681C2.73767 16.9681 2.73764 16.9681 2.73762 16.9681C2.7376 16.9681 2.73758 16.9681 2.73756 16.9681C2.73753 16.9681 2.73751 16.9681 2.73749 16.9681C2.73747 16.9681 2.73744 16.9681 2.73742 16.9681C2.7374 16.9681 2.73738 16.9681 2.73735 16.9681C2.73733 16.9681 2.73731 16.9681 2.73729 16.9681C2.73727 16.9681 2.73724 16.9681 2.73722 16.9681C2.7372 16.9681 2.73718 16.9681 2.73715 16.9681C2.73713 16.9681 2.73711 16.9681 2.73709 16.9681C2.73707 16.9681 2.73704 16.9681 2.73702 16.9681C2.737 16.9681 2.73698 16.9681 2.73695 16.9681C2.73693 16.9681 2.73691 16.9681 2.73689 16.9681C2.73687 16.9681 2.73684 16.9681 2.73682 16.9681C2.7368 16.9681 2.73678 16.9681 2.73676 16.9681C2.73673 16.9681 2.73671 16.9681 2.73669 16.9681C2.73667 16.9681 2.73664 16.9681 2.73662 16.9681C2.7366 16.9681 2.73658 16.9681 2.73656 16.9681C2.73653 16.9681 2.73651 16.9681 2.73649 16.9681C2.73647 16.9681 2.73645 16.9681 2.73642 16.9681C2.7364 16.9681 2.73638 16.9681 2.73636 16.9681C2.73634 16.9681 2.73631 16.9681 2.73629 16.9681C2.73627 16.9681 2.73625 16.9681 2.73623 16.9681C2.7362 16.9681 2.73618 16.9681 2.73616 16.9681C2.73614 16.9681 2.73611 16.9681 2.73609 16.9681C2.73607 16.9681 2.73605 16.9681 2.73603 16.9681C2.736 16.9681 2.73598 16.9681 2.73596 16.9681C2.73594 16.9681 2.73592 16.9681 2.73589 16.9681C2.73587 16.9681 2.73585 16.9681 2.73583 16.9681C2.73581 16.9681 2.73578 16.9681 2.73576 16.9681C2.73574 16.9681 2.73572 16.9681 2.7357 16.9681C2.73567 16.9681 2.73565 16.9681 2.73563 16.9681C2.73561 16.9681 2.73559 16.9681 2.73557 16.9681C2.73554 16.9681 2.73552 16.9681 2.7355 16.9681C2.73548 16.9681 2.73546 16.9681 2.73543 16.9681C2.73541 16.9681 2.73539 16.9681 2.73537 16.9681C2.73535 16.9681 2.73532 16.9681 2.7353 16.9681C2.73528 16.9681 2.73526 16.9681 2.73524 16.9681C2.73522 16.9681 2.73519 16.9681 2.73517 16.9681C2.73515 16.9681 2.73513 16.9681 2.73511 16.9681C2.73508 16.9681 2.73506 16.9681 2.73504 16.9681C2.73502 16.9681 2.735 16.9681 2.73498 16.9681C2.73495 16.9681 2.73493 16.9681 2.73491 16.9681C2.73489 16.9681 2.73487 16.9681 2.73485 16.9681C2.73482 16.9681 2.7348 16.9681 2.73478 16.9681C2.73476 16.9681 2.73474 16.9681 2.73471 16.9681C2.73469 16.9681 2.73467 16.9681 2.73465 16.9681C2.73463 16.9681 2.73461 16.9681 2.73458 16.9681C2.73456 16.9681 2.73454 16.9681 2.73452 16.9681C2.7345 16.9681 2.73448 16.9681 2.73445 16.9681C2.73443 16.9681 2.73441 16.9681 2.73439 16.9681C2.73437 16.9681 2.73435 16.9681 2.73433 16.9681C2.7343 16.9681 2.73428 16.9681 2.73426 16.9681C2.73424 16.9681 2.73422 16.9681 2.7342 16.9681C2.73417 16.9681 2.73415 16.9681 2.73413 16.9681C2.73411 16.9681 2.73409 16.9681 2.73407 16.9681C2.73405 16.9681 2.73402 16.9681 2.734 16.9681C2.73398 16.9681 2.73396 16.9681 2.73394 16.9681C2.73392 16.9681 2.7339 16.9681 2.73387 16.9681C2.73385 16.9681 2.73383 16.9681 2.73381 16.9681C2.73379 16.9681 2.73377 16.9681 2.73375 16.9681C2.73372 16.9681 2.7337 16.9681 2.73368 16.9681C2.73366 16.9681 2.73364 16.9681 2.73362 16.9681C2.7336 16.9681 2.73357 16.9681 2.73355 16.9681C2.73353 16.9681 2.73351 16.9681 2.73349 16.9681C2.73347 16.9681 2.73345 16.9681 2.73343 16.9681C2.7334 16.9681 2.73338 16.9681 2.73336 16.9681C2.73334 16.9681 2.73332 16.9681 2.7333 16.9681C2.73328 16.9681 2.73326 16.9681 2.73323 16.9681C2.73321 16.9681 2.73319 16.9681 2.73317 16.9681C2.73315 16.9681 2.73313 16.9681 2.73311 16.9681C2.73309 16.9681 2.73306 16.9681 2.73304 16.9681C2.73302 16.9681 2.733 16.9681 2.73298 16.9681C2.73296 16.9681 2.73294 16.9681 2.73292 16.9681C2.7329 16.9681 2.73287 16.9681 2.73285 16.9681C2.73283 16.9681 2.73281 16.9681 2.73279 16.9681C2.73277 16.9681 2.73275 16.9681 2.73273 16.9681C2.73271 16.9681 2.73268 16.9681 2.73266 16.9681C2.73264 16.9681 2.73262 16.9681 2.7326 16.9681C2.73258 16.9681 2.73256 16.9681 2.73254 16.9681C2.73252 16.9681 2.7325 16.9681 2.73248 16.9681C2.73245 16.9681 2.73243 16.9681 2.73241 16.9681C2.73239 16.9681 2.73237 16.9681 2.73235 16.9681C2.73233 16.9681 2.73231 16.9681 2.73229 16.9681C2.73227 16.9681 2.73225 16.9681 2.73222 16.9681C2.7322 16.9681 2.73218 16.9681 2.73216 16.9681C2.73214 16.9681 2.73212 16.9681 2.7321 16.9681C2.73208 16.9681 2.73206 16.9681 2.73204 16.9681C2.73202 16.9681 2.732 16.9681 2.73198 16.9681C2.73196 16.9681 2.73193 16.9681 2.73191 16.9681C2.73189 16.9681 2.73187 16.9681 2.73185 16.9681C2.73183 16.9681 2.73181 16.9681 2.73179 16.9681C2.73177 16.9681 2.73175 16.9681 2.73173 16.9681C2.73171 16.9681 2.73169 16.9681 2.73167 16.9681C2.73165 16.9681 2.73163 16.9681 2.7316 16.9681C2.73158 16.9681 2.73156 16.9681 2.73154 16.9681C2.73152 16.9681 2.7315 16.9681 2.73148 16.9681C2.73146 16.9681 2.73144 16.9681 2.73142 16.9681C2.7314 16.9681 2.73138 16.9681 2.73136 16.9681C2.73134 16.9681 2.73132 16.9681 2.7313 16.9681C2.73128 16.9681 2.73126 16.9681 2.73124 16.9681C2.73122 16.9681 2.7312 16.9681 2.73118 16.9681C2.73116 16.9681 2.73114 16.9681 2.73111 16.9681C2.73109 16.9681 2.73107 16.9681 2.73105 16.9681C2.73103 16.9681 2.73101 16.9681 2.73099 16.9681C2.73097 16.9681 2.73095 16.9681 2.73093 16.9681C2.73091 16.9681 2.73089 16.9681 2.73087 16.9681C2.73085 16.9681 2.73083 16.9681 2.73081 16.9681C2.73079 16.9681 2.73077 16.9681 2.73075 16.9681C2.73073 16.9681 2.73071 16.9681 2.73069 16.9681C2.73067 16.9681 2.73065 16.9681 2.73063 16.9681C2.73061 16.9681 2.73059 16.9681 2.73057 16.9681C2.73055 16.9681 2.73053 16.9681 2.73051 16.9681C2.73049 16.9681 2.73047 16.9681 2.73045 16.9681C2.73043 16.9681 2.73041 16.9681 2.73039 16.9681C2.73037 16.9681 2.73035 16.9681 2.73033 16.9681C2.73031 16.9681 2.73029 16.9681 2.73027 16.9681C2.73025 16.9681 2.73023 16.9681 2.73021 16.9681C2.73019 16.9681 2.73017 16.9681 2.73015 16.9681C2.73013 16.9681 2.73011 16.9681 2.73009 16.9681C2.73007 16.9681 2.73006 16.9681 2.73004 16.9681C2.73002 16.9681 2.73 16.9681 2.72998 16.9681C2.72996 16.9681 2.72994 16.9681 2.72992 16.9681C2.7299 16.9681 2.72988 16.9681 2.72986 16.9681C2.72984 16.9681 2.72982 16.9681 2.7298 16.9681C2.72978 16.9681 2.72976 16.9681 2.72974 16.9681C2.72972 16.9681 2.7297 16.9681 2.72968 16.9681C2.72966 16.9681 2.72964 16.9681 2.72962 16.9681C2.72961 16.9681 2.72959 16.9681 2.72957 16.9681C2.72955 16.9681 2.72953 16.9681 2.72951 16.9681C2.72949 16.9681 2.72947 16.9681 2.72945 16.9681C2.72943 16.9681 2.72941 16.9681 2.72939 16.9681C2.72937 16.9681 2.72935 16.9681 2.72933 16.9681C2.72932 16.9681 2.7293 16.9681 2.72928 16.9681C2.72926 16.9681 2.72924 16.9681 2.72922 16.9681C2.7292 16.9681 2.72918 16.9681 2.72916 16.9681C2.72914 16.9681 2.72912 16.9681 2.7291 16.9681C2.72909 16.9681 2.72907 16.9681 2.72905 16.9681C2.72903 16.9681 2.72901 16.9681 2.72899 16.9681C2.72897 16.9681 2.72895 16.9681 2.72893 16.9681C2.72891 16.9681 2.7289 16.9681 2.72888 16.9681C2.72886 16.9681 2.72884 16.9681 2.72882 16.9681C2.7288 16.9681 2.72878 16.9681 2.72876 16.9681C2.72874 16.9681 2.72873 16.9681 2.72871 16.9681C2.72869 16.9681 2.72867 16.9681 2.72865 16.9681C2.72863 16.9681 2.72861 16.9681 2.72859 16.9681C2.72858 16.9681 2.72856 16.9681 2.72854 16.9681C2.72852 16.9681 2.7285 16.9681 2.72848 16.9681C2.72846 16.9681 2.72844 16.9681 2.72843 16.9681C2.72841 16.9681 2.72839 16.9681 2.72837 16.9681C2.72835 16.9681 2.72833 16.9681 2.72831 16.9681C2.7283 16.9681 2.72828 16.9681 2.72826 16.9681C2.72824 16.9681 2.72822 16.9681 2.7282 16.9681C2.72819 16.9681 2.72817 16.9681 2.72815 16.9681C2.72813 16.9681 2.72811 16.9681 2.72809 16.9681C2.72808 16.9681 2.72806 16.9681 2.72804 16.9681C2.72802 16.9681 2.728 16.9681 2.72798 16.9681C2.72797 16.9681 2.72795 16.9681 2.72793 16.9681C2.72791 16.9681 2.72789 16.9681 2.72787 16.9681C2.72786 16.9681 2.72784 16.9681 2.72782 16.9681C2.7278 16.9681 2.72778 16.9681 2.72777 16.9681C2.72775 16.9681 2.72773 16.9681 2.72771 16.9681C2.72769 16.9681 2.72768 16.9681 2.72766 16.9681C2.72764 16.9681 2.72762 16.9681 2.7276 16.9681C2.72759 16.9681 2.72757 16.9681 2.72755 16.9681C2.72753 16.9681 2.72751 16.9681 2.7275 16.9681C2.72748 16.9681 2.72746 16.9681 2.72744 16.9681C2.72742 16.9681 2.72741 16.9681 2.72739 16.9681C2.72737 16.9681 2.72735 16.9681 2.72734 16.9681C2.72732 16.9681 2.7273 16.9681 2.72728 16.9681C2.72726 16.9681 2.72725 16.9681 2.72723 16.9681C2.72721 16.9681 2.72719 16.9681 2.72718 16.9681C2.72716 16.9681 2.72714 16.9681 2.72712 16.9681C2.72711 16.9681 2.72709 16.9681 2.72707 16.9681C2.72705 16.9681 2.72704 16.9681 2.72702 16.9681C2.727 16.9681 2.72698 16.9681 2.72697 16.9681C2.72695 16.9681 2.72693 16.9681 2.72691 16.9681C2.7269 16.9681 2.72688 16.9681 2.72686 16.9681C2.72685 16.9681 2.72683 16.9681 2.72681 16.9681C2.72679 16.9681 2.72678 16.9681 2.72676 16.9681C2.72674 16.9681 2.72672 16.9681 2.72671 16.9681C2.72669 16.9681 2.72667 16.9681 2.72666 16.9681C2.72664 16.9681 2.72662 16.9681 2.72661 16.9681C2.72659 16.9681 2.72657 16.9681 2.72655 16.9681C2.72654 16.9681 2.72652 16.9681 2.7265 16.9681C2.72649 16.9681 2.72647 16.9681 2.72645 16.9681C2.72644 16.9681 2.72642 16.9681 2.7264 16.9681C2.72638 16.9681 2.72637 16.9681 2.72635 16.9681C2.72633 16.9681 2.72632 16.9681 2.7263 16.9681C2.72628 16.9681 2.72627 16.9681 2.72625 16.9681C2.72623 16.9681 2.72622 16.9681 2.7262 16.9681C2.72618 16.9681 2.72617 16.9681 2.72615 16.9681C2.72613 16.9681 2.72612 16.9681 2.7261 16.9681C2.72608 16.9681 2.72607 16.9681 2.72605 16.9681C2.72603 16.9681 2.72602 16.9681 2.726 16.9681C2.72599 16.9681 2.72597 16.9681 2.72595 16.9681C2.72594 16.9681 2.72592 16.9681 2.7259 16.9681C2.72589 16.9681 2.72587 16.9681 2.72585 16.9681C2.72584 16.9681 2.72582 16.9681 2.72581 16.9681C2.72579 16.9681 2.72577 16.9681 2.72576 16.9681C2.72574 16.9681 2.72573 16.9681 2.72571 16.9681C2.72569 16.9681 2.72568 16.9681 2.72566 16.9681C2.72564 16.9681 2.72563 16.9681 2.72561 16.9681C2.7256 16.9681 2.72558 16.9681 2.72556 16.9681C2.72555 16.9681 2.72553 16.9681 2.72552 16.9681C2.7255 16.9681 2.72548 16.9681 2.72547 16.9681C2.72545 16.9681 2.72544 16.9681 2.72542 16.9681C2.72541 16.9681 2.72539 16.9681 2.72537 16.9681C2.72536 16.9681 2.72534 16.9681 2.72533 16.9681C2.72531 16.9681 2.7253 16.9681 2.72528 16.9681C2.72526 16.9681 2.72525 16.9681 2.72523 16.9681C2.72522 16.9681 2.7252 16.9681 2.72519 16.9681C2.72517 16.9681 2.72516 16.9681 2.72514 16.9681C2.72512 16.9681 2.72511 16.9681 2.72509 16.9681C2.72508 16.9681 2.72506 16.9681 2.72505 16.9681C2.72503 16.9681 2.72502 16.9681 2.725 16.9681C2.72499 16.9681 2.72497 16.9681 2.72496 16.9681C2.72494 16.9681 2.72493 16.9681 2.72491 16.9681C2.7249 16.9681 2.72488 16.9681 2.72486 16.9681C2.72485 16.9681 2.72483 16.9681 2.72482 16.9681C2.7248 16.9681 2.72479 16.9681 2.72477 16.9681C2.72476 16.9681 2.72474 16.9681 2.72473 16.9681V17.0807ZM2.75535 17.0807L2.75777 17.1932L5.2455 17.1396L5.24308 17.0271L5.24065 16.9146L2.75292 16.9681L2.75535 17.0807ZM5.24308 17.0271L5.24524 17.1397C5.67326 17.1314 6.08409 16.9505 6.38008 16.6463L6.2994 16.5678L6.21872 16.4893C5.96359 16.7516 5.60897 16.9075 5.24091 16.9146L5.24308 17.0271ZM6.2994 16.5678L6.38002 16.6464L15.42 7.36908L15.3394 7.29052L15.2588 7.21196L6.21878 16.4893L6.2994 16.5678ZM15.3394 7.29052L15.4202 7.36894L16.4535 6.30496L16.3728 6.22654L16.292 6.14811L15.2587 7.21209L15.3394 7.29052ZM16.3728 6.22654L16.4534 6.30506C17.3462 5.38813 17.3304 3.91607 16.413 3.02283L16.3345 3.10348L16.256 3.18413C17.0838 3.99019 17.0986 5.3197 16.2921 6.14801L16.3728 6.22654ZM16.3345 3.10348L16.4131 3.0229L14.8592 1.50729L14.7806 1.58788L14.702 1.66846L16.2559 3.18406L16.3345 3.10348ZM14.7806 1.58788L14.8595 1.50757C14.4087 1.06482 13.8211 0.847638 13.2421 0.847638V0.960205V1.07277C13.7653 1.07277 14.2953 1.26894 14.7018 1.66819L14.7806 1.58788ZM13.2421 0.960205L13.1625 0.880616L13.1548 0.888272L13.2344 0.967861L13.314 1.04745L13.3217 1.03979L13.2421 0.960205Z" fill="white" mask="url(#path-1-inside-1_5069_3236)"/>
<path d="M14.7347 6.78534L11.1064 3.25659" stroke="#A4A7B2" stroke-width="1.12567" stroke-linejoin="round"/>
</g>
<defs>
<clipPath id="clip0_5069_3236">
<rect width="17" height="17" fill="white" transform="translate(0 0.5)"/>
</clipPath>
</defs>
</svg>
