<svg width="21" height="22" viewBox="0 0 21 22" fill="none" xmlns="http://www.w3.org/2000/svg">
<path d="M13.6932 2.61678C13.7978 2.61678 14.0069 2.64091 14.1919 2.81787L15.8248 4.41052C16.0098 4.58748 16.042 4.80466 16.042 4.90923C16.042 5.0138 16.0178 5.23098 15.8409 5.41598L14.755 6.53406L5.27148 16.283L2.67337 16.3554L2.61707 13.6929L13.1945 2.83396C13.3795 2.64895 13.5887 2.61678 13.7013 2.61678M13.6932 1.00805C13.0899 1.00805 12.4867 1.24131 12.0282 1.70785L1.45073 12.5668C1.15312 12.8725 0.992244 13.2827 1.00029 13.709L1.05659 16.3795C1.07268 17.2482 1.78052 17.94 2.64924 17.94C2.65729 17.94 2.67337 17.94 2.68142 17.94L5.29561 17.8837C5.71389 17.8757 6.11607 17.6987 6.40564 17.4011L15.9052 7.65213L16.9911 6.53406C17.884 5.61708 17.8679 4.14508 16.9509 3.25223L15.318 1.65958C14.8676 1.21718 14.2804 1 13.7013 1L13.6932 1.00805Z" fill="#3461F4"/>
<path d="M15.2375 7.16956L11.4248 3.46143" stroke="#3461F4" stroke-width="1.60874" stroke-linecap="round" stroke-linejoin="round"/>
<path d="M2 20H18" stroke="#3461F4" stroke-width="1.6" stroke-linecap="round"/>
</svg>
