<svg width="21" height="23" viewBox="0 0 21 23" fill="none" xmlns="http://www.w3.org/2000/svg">
<path d="M13.994 3.58678C14.0986 3.58678 14.3077 3.61091 14.4927 3.78788L16.1256 5.38052C16.3106 5.55749 16.3428 5.77466 16.3428 5.87923C16.3428 5.9838 16.3186 6.20098 16.1417 6.38598L15.0558 7.50406L5.57227 17.253L2.97416 17.3254L2.91785 14.6629L13.4953 3.80396C13.6803 3.61896 13.8894 3.58678 14.002 3.58678M13.994 1.97805C13.3907 1.97805 12.7874 2.21131 12.329 2.67785L1.75152 13.5368C1.4539 13.8425 1.29303 14.2527 1.30107 14.679L1.35737 17.3495C1.37346 18.2182 2.08131 18.91 2.95002 18.91C2.95807 18.91 2.97415 18.91 2.9822 18.91L5.5964 18.8537C6.01467 18.8457 6.41685 18.6687 6.70642 18.3711L16.206 8.62213L17.2919 7.50406C18.1848 6.58708 18.1687 5.11508 17.2517 4.22223L15.6188 2.62958C15.1684 2.18718 14.5812 1.97 14.002 1.97L13.994 1.97805Z" fill="#CFDFFF"/>
<path d="M15.5383 8.13957L11.7256 4.43143" stroke="#CFDFFF" stroke-width="1.60874" stroke-linecap="round" stroke-linejoin="round"/>
<path d="M2.30078 20.97H18.3008" stroke="#CFDFFF" stroke-width="1.6" stroke-linecap="round"/>
</svg>
