<svg width="22" height="22" viewBox="0 0 22 22" fill="none" xmlns="http://www.w3.org/2000/svg">
<path d="M14.3436 3.08675C14.4482 3.08675 14.6573 3.11088 14.8423 3.28784L16.4752 4.88049C16.6602 5.05746 16.6924 5.27463 16.6924 5.3792C16.6924 5.48377 16.6682 5.70095 16.4913 5.88595L15.4054 7.00403L5.92187 16.753L3.32376 16.8254L3.26746 14.1629L13.8449 3.30393C14.0299 3.11892 14.239 3.08675 14.3517 3.08675M14.3436 1.47802C13.7403 1.47802 13.1371 1.71128 12.6786 2.17782L2.10112 13.0368C1.80351 13.3424 1.64263 13.7527 1.65068 14.179L1.70698 16.8495C1.72307 17.7182 2.43092 18.41 3.29963 18.41C3.30768 18.41 3.32376 18.41 3.33181 18.41L5.94601 18.3537C6.36428 18.3456 6.76646 18.1687 7.05603 17.871L16.5556 8.1221L17.6415 7.00403C18.5344 6.08705 18.5183 4.61505 17.6013 3.7222L15.9684 2.12955C15.518 1.68715 14.9308 1.46997 14.3517 1.46997L14.3436 1.47802Z" fill="#04142D"/>
<path d="M15.8869 7.63954L12.0742 3.9314" stroke="#04142D" stroke-width="1.60874" stroke-linecap="round" stroke-linejoin="round"/>
<path d="M2.65039 20.47H18.6504" stroke="#04142D" stroke-width="1.6" stroke-linecap="round"/>
</svg>
