<svg width="14" height="14" viewBox="0 0 14 14" fill="none" xmlns="http://www.w3.org/2000/svg">
<path d="M13.3002 0.710093C12.9102 0.320093 12.2802 0.320093 11.8902 0.710093L7.00021 5.59009L2.11022 0.700093C1.72022 0.310093 1.09021 0.310093 0.700215 0.700093C0.310215 1.09009 0.310215 1.72009 0.700215 2.11009L5.59021 7.00009L0.700215 11.8901C0.310215 12.2801 0.310215 12.9101 0.700215 13.3001C1.09021 13.6901 1.72022 13.6901 2.11022 13.3001L7.00021 8.41009L11.8902 13.3001C12.2802 13.6901 12.9102 13.6901 13.3002 13.3001C13.6902 12.9101 13.6902 12.2801 13.3002 11.8901L8.41021 7.00009L13.3002 2.11009C13.6802 1.73009 13.6802 1.09009 13.3002 0.710093Z" fill="#A4A7B2"/>
</svg>
