<svg width="29" height="29" viewBox="0 0 29 29" fill="none" xmlns="http://www.w3.org/2000/svg">
<path d="M14.14 27.28C21.397 27.28 27.28 21.397 27.28 14.14C27.28 6.88298 21.397 1 14.14 1C6.88298 1 1 6.88298 1 14.14C1 21.397 6.88298 27.28 14.14 27.28Z" stroke="#CACFD5" stroke-width="2" stroke-miterlimit="10"/>
<path d="M14.1398 15.32C16.5367 15.32 18.4798 13.3769 18.4798 10.98C18.4798 8.5831 16.5367 6.64001 14.1398 6.64001C11.7429 6.64001 9.7998 8.5831 9.7998 10.98C9.7998 13.3769 11.7429 15.32 14.1398 15.32Z" stroke="#CACFD5" stroke-width="2" stroke-miterlimit="10"/>
<path d="M6 23.95C6 23.95 8.79973 19 14.2197 19C19.6397 19 22.72 24.17 22.72 24.17" stroke="#CACFD5" stroke-width="2" stroke-miterlimit="10"/>
</svg>
