<svg width="30" height="27" viewBox="0 0 30 27" fill="none" xmlns="http://www.w3.org/2000/svg">
<path d="M22.4062 0.5C23.6968 0.5 24.744 1.5464 24.7441 2.83691V10.123H27.5674C28.8578 10.1233 29.9043 11.1695 29.9043 12.46L29.9023 24.1602C29.9011 26.1614 27.5491 27.2356 26.0361 25.9258L23.502 23.7314H14.708C13.4174 23.7314 12.3701 22.6842 12.3701 21.3936V19.208H8.32031L3.86914 23.0635C2.35594 24.3742 0.00171204 23.3005 0.000976562 21.2988V17.1641C0.000924562 17.158 0 17.1506 0 17.1445V2.83691C0.000143725 1.54648 1.04649 0.500144 2.33691 0.5H22.4062ZM24.7441 16.8711C24.7441 18.1617 23.6969 19.208 22.4062 19.208H14.4326V21.3936L14.4375 21.4492C14.4594 21.5569 14.5446 21.6422 14.6523 21.6641L14.708 21.6689H24.1689L24.2646 21.6865C24.2951 21.6979 24.3237 21.7147 24.3486 21.7363L27.3857 24.3672L27.457 24.4111C27.6293 24.487 27.8407 24.3652 27.8408 24.1592L27.8418 12.46C27.8418 12.3269 27.7476 12.2159 27.6221 12.1904L27.5674 12.1846H24.7441V16.8711ZM2.33691 2.56152C2.313 2.56152 2.2897 2.56555 2.26758 2.57129C2.23852 2.57887 2.21105 2.59042 2.18652 2.60645C2.18183 2.60951 2.17734 2.61287 2.17285 2.61621C2.1645 2.62242 2.157 2.62962 2.14941 2.63672C2.14722 2.63877 2.1447 2.64046 2.14258 2.64258L2.125 2.66211C2.12263 2.66497 2.12042 2.66794 2.11816 2.6709C2.1121 2.67887 2.10577 2.68669 2.10059 2.69531C2.09796 2.69966 2.09614 2.70448 2.09375 2.70898C2.08901 2.71796 2.08382 2.7268 2.08008 2.73633C2.0678 2.76744 2.06156 2.80151 2.06152 2.83691V17.1445L2.0625 17.1465L2.06348 21.2979V21.2988C2.06356 21.3254 2.06762 21.3505 2.07422 21.374C2.0772 21.3846 2.0818 21.3944 2.08594 21.4043C2.09164 21.418 2.09777 21.4311 2.10547 21.4434C2.11059 21.4515 2.11715 21.4583 2.12305 21.4658C2.13172 21.4768 2.14023 21.4876 2.15039 21.4971C2.15843 21.5045 2.16695 21.5111 2.17578 21.5176C2.18673 21.5256 2.19799 21.5327 2.20996 21.5391C2.21799 21.5433 2.22597 21.5473 2.23438 21.5508C2.24769 21.5563 2.26136 21.5601 2.27539 21.5635C2.28549 21.5659 2.29533 21.569 2.30566 21.5703C2.32217 21.5724 2.33868 21.5713 2.35547 21.5703C2.36164 21.5699 2.36786 21.5711 2.37402 21.5703C2.39871 21.5671 2.42342 21.5613 2.44727 21.5508L2.47949 21.5303C2.49204 21.5225 2.50578 21.516 2.51758 21.5059L7.47363 17.2129C7.4861 17.2021 7.49966 17.1929 7.51367 17.1846C7.52775 17.1765 7.54253 17.1697 7.55762 17.1641L7.65332 17.1465H22.4062C22.4505 17.1465 22.4923 17.1348 22.5293 17.1162C22.5347 17.1135 22.5397 17.1104 22.5449 17.1074C22.5624 17.0972 22.5781 17.085 22.5928 17.0713C22.5984 17.0661 22.6032 17.0603 22.6084 17.0547C22.6208 17.041 22.6321 17.0267 22.6416 17.0107C22.6454 17.0043 22.649 16.9979 22.6523 16.9912C22.6607 16.9741 22.6672 16.9563 22.6719 16.9375C22.6729 16.9335 22.6759 16.9299 22.6768 16.9258L22.6816 16.8711V2.83691C22.6816 2.80092 22.6737 2.76689 22.6611 2.73535C22.6587 2.72936 22.6561 2.72355 22.6533 2.71777C22.6485 2.70774 22.6437 2.69779 22.6377 2.68848C22.6353 2.68474 22.6325 2.68134 22.6299 2.67773C22.6121 2.65276 22.5904 2.63107 22.5654 2.61328C22.5626 2.61124 22.5596 2.60936 22.5566 2.60742C22.5281 2.58872 22.4965 2.5744 22.4619 2.56738L22.4062 2.56152H2.33691Z" fill="#A4A7B2"/>
</svg>
