
<svg width="95" height="29" viewBox="0 0 95 29" fill="none" xmlns="http://www.w3.org/2000/svg">
<rect width="95" height="29" rx="5" fill="#DBFFF5"/>
<g clip-path="url(#clip0_5861_60550)">
<path d="M13.1562 6.7478C14.7306 6.7478 16.0097 8.02703 16.0098 9.60132C16.0098 11.1757 14.7306 12.4548 13.1562 12.4548C11.582 12.4548 10.3027 11.1756 10.3027 9.60132C10.3028 8.02708 11.582 6.74788 13.1562 6.7478ZM13.1562 8.07983C12.3151 8.07991 11.6348 8.76016 11.6348 9.60132C11.6348 10.4425 12.315 11.1227 13.1562 11.1228C13.9975 11.1228 14.6777 10.4426 14.6777 9.60132C14.6777 8.76011 13.9975 8.07983 13.1562 8.07983Z" fill="#1BCBBA" stroke="#1BCBBA" stroke-width="0.1"/>
<path d="M19.7686 6.7478C21.3429 6.7478 22.622 8.02703 22.6221 9.60132C22.6221 11.1757 21.3429 12.4548 19.7686 12.4548C18.1943 12.4548 16.915 11.1756 16.915 9.60132C16.9151 8.02708 18.1943 6.74788 19.7686 6.7478ZM19.7686 8.07983C18.9274 8.07991 18.2471 8.76016 18.2471 9.60132C18.2471 10.4425 18.9273 11.1227 19.7686 11.1228C20.6098 11.1228 21.29 10.4426 21.29 9.60132C21.29 8.76011 20.6098 8.07983 19.7686 8.07983Z" fill="#1BCBBA" stroke="#1BCBBA" stroke-width="0.1"/>
<mask id="path-4-outside-1_5861_60550" maskUnits="userSpaceOnUse" x="14.3369" y="12.0093" width="10" height="11" fill="black">
<rect fill="white" x="14.3369" y="12.0093" width="10" height="11"/>
<path d="M19.7676 14.2417C20.9569 14.2417 22.6331 16.7436 22.9227 20.7676H19.7676L16.6064 20.7553C16.9021 16.7436 18.5783 14.2417 19.7615 14.2417M19.7676 13.0093C17.3397 13.0093 15.3369 17.0579 15.3369 21.9816L19.7676 22.0001H24.1983C24.1983 17.0702 22.1956 13.0093 19.7676 13.0093Z"/>
</mask>
<path d="M19.7676 14.2417C20.9569 14.2417 22.6331 16.7436 22.9227 20.7676H19.7676L16.6064 20.7553C16.9021 16.7436 18.5783 14.2417 19.7615 14.2417M19.7676 13.0093C17.3397 13.0093 15.3369 17.0579 15.3369 21.9816L19.7676 22.0001H24.1983C24.1983 17.0702 22.1956 13.0093 19.7676 13.0093Z" fill="#1BCBBA"/>
<path d="M22.9227 20.7676V20.8676H23.0302L23.0225 20.7605L22.9227 20.7676ZM19.7676 20.7676L19.7672 20.8676H19.7676V20.7676ZM16.6064 20.7553L16.5066 20.748L16.4987 20.8549L16.606 20.8553L16.6064 20.7553ZM15.3369 21.9816H15.2369V22.0812L15.3365 22.0816L15.3369 21.9816ZM19.7676 22.0001L19.7672 22.1001H19.7676V22.0001ZM24.1983 22.0001V22.1001H24.2983V22.0001H24.1983ZM19.7676 14.2417V14.3417C20.0303 14.3417 20.3351 14.4808 20.6546 14.7697C20.9726 15.0573 21.2962 15.4856 21.5944 16.0429C22.1906 17.157 22.679 18.7743 22.823 20.7748L22.9227 20.7676L23.0225 20.7605C22.8768 18.7369 22.3823 17.0914 21.7707 15.9485C21.465 15.3773 21.1285 14.9286 20.7887 14.6214C20.4503 14.3154 20.0996 14.1417 19.7676 14.1417V14.2417ZM22.9227 20.7676V20.6676H19.7676V20.7676V20.8676H22.9227V20.7676ZM19.7676 20.7676L19.768 20.6676L16.6067 20.6553L16.6064 20.7553L16.606 20.8553L19.7672 20.8676L19.7676 20.7676ZM16.6064 20.7553L16.7061 20.7627C16.8531 18.7684 17.3431 17.154 17.9393 16.0414C18.2375 15.4849 18.5607 15.0569 18.8781 14.7695C19.1968 14.4807 19.5004 14.3417 19.7615 14.3417V14.2417V14.1417C19.4309 14.1417 19.0813 14.3155 18.7438 14.6212C18.4048 14.9282 18.0687 15.3765 17.763 15.9469C17.1514 17.0882 16.6554 18.7306 16.5066 20.748L16.6064 20.7553ZM19.7676 13.0093V12.9093C18.4943 12.9093 17.361 13.9676 16.5521 15.6048C15.7399 17.2487 15.2369 19.5075 15.2369 21.9816H15.3369H15.4369C15.4369 19.532 15.9353 17.3046 16.7314 15.6934C17.5309 14.0753 18.613 13.1093 19.7676 13.1093V13.0093ZM15.3369 21.9816L15.3365 22.0816L19.7672 22.1001L19.7676 22.0001L19.768 21.9001L15.3373 21.8816L15.3369 21.9816ZM19.7676 22.0001V22.1001H24.1983V22.0001V21.9001H19.7676V22.0001ZM24.1983 22.0001H24.2983C24.2983 19.523 23.7954 17.2596 22.9832 15.6118C22.1743 13.9709 21.0411 12.9093 19.7676 12.9093V13.0093V13.1093C20.9221 13.1093 22.0042 14.0781 22.8038 15.7002C23.5999 17.3154 24.0983 19.5474 24.0983 22.0001H24.1983Z" fill="#1BCBBA" mask="url(#path-4-outside-1_5861_60550)"/>
<path d="M13.2116 21.3838L9.40332 21.3715C9.56354 16.7744 11.4862 13.6255 13.2116 13.6255C14.9371 13.6255 16.8597 16.7806 17.0199 21.3838H13.2116Z" fill="#DBFFF5"/>
<mask id="path-7-outside-2_5861_60550" maskUnits="userSpaceOnUse" x="7.78027" y="12.0093" width="10" height="11" fill="black">
<rect fill="white" x="7.78027" y="12.0093" width="10" height="11"/>
<path d="M13.211 14.2417C14.4003 14.2417 16.0765 16.7436 16.3661 20.7676H13.211L10.0497 20.7553C10.3455 16.7436 12.0217 14.2417 13.2048 14.2417M13.211 13.0093C10.783 13.0093 8.78027 17.0579 8.78027 21.9816L13.211 22.0001H17.6417C17.6417 17.0702 15.6389 13.0093 13.211 13.0093Z"/>
</mask>
<path d="M13.211 14.2417C14.4003 14.2417 16.0765 16.7436 16.3661 20.7676H13.211L10.0497 20.7553C10.3455 16.7436 12.0217 14.2417 13.2048 14.2417M13.211 13.0093C10.783 13.0093 8.78027 17.0579 8.78027 21.9816L13.211 22.0001H17.6417C17.6417 17.0702 15.6389 13.0093 13.211 13.0093Z" fill="#1BCBBA"/>
<path d="M16.3661 20.7676V20.8676H16.4735L16.4658 20.7605L16.3661 20.7676ZM13.211 20.7676L13.2106 20.8676H13.211V20.7676ZM10.0497 20.7553L9.94998 20.748L9.9421 20.8549L10.0493 20.8553L10.0497 20.7553ZM8.78027 21.9816H8.68027V22.0812L8.77986 22.0816L8.78027 21.9816ZM13.211 22.0001L13.2106 22.1001H13.211V22.0001ZM17.6417 22.0001V22.1001H17.7417V22.0001H17.6417ZM13.211 14.2417V14.3417C13.4737 14.3417 13.7785 14.4808 14.0979 14.7697C14.416 15.0573 14.7395 15.4856 15.0378 16.0429C15.634 17.157 16.1224 18.7743 16.2663 20.7748L16.3661 20.7676L16.4658 20.7605C16.3202 18.7369 15.8257 17.0914 15.2141 15.9485C14.9084 15.3773 14.5718 14.9286 14.2321 14.6214C13.8937 14.3154 13.543 14.1417 13.211 14.1417V14.2417ZM16.3661 20.7676V20.6676H13.211V20.7676V20.8676H16.3661V20.7676ZM13.211 20.7676L13.2114 20.6676L10.0501 20.6553L10.0497 20.7553L10.0493 20.8553L13.2106 20.8676L13.211 20.7676ZM10.0497 20.7553L10.1494 20.7627C10.2965 18.7684 10.7864 17.154 11.3826 16.0414C11.6809 15.4849 12.0041 15.0569 12.3214 14.7695C12.6402 14.4807 12.9438 14.3417 13.2048 14.3417V14.2417V14.1417C12.8743 14.1417 12.5246 14.3155 12.1871 14.6212C11.8482 14.9282 11.512 15.3765 11.2064 15.9469C10.5948 17.0882 10.0987 18.7306 9.94998 20.748L10.0497 20.7553ZM13.211 13.0093V12.9093C11.9377 12.9093 10.8044 13.9676 9.99549 15.6048C9.18323 17.2487 8.68027 19.5075 8.68027 21.9816H8.78027H8.88027C8.88027 19.532 9.37869 17.3046 10.1748 15.6934C10.9743 14.0753 12.0564 13.1093 13.211 13.1093V13.0093ZM8.78027 21.9816L8.77986 22.0816L13.2106 22.1001L13.211 22.0001L13.2114 21.9001L8.78069 21.8816L8.78027 21.9816ZM13.211 22.0001V22.1001H17.6417V22.0001V21.9001H13.211V22.0001ZM17.6417 22.0001H17.7417C17.7417 19.523 17.2387 17.2596 16.4265 15.6118C15.6177 13.9709 14.4845 12.9093 13.211 12.9093V13.0093V13.1093C14.3655 13.1093 15.4476 14.0781 16.2471 15.7002C17.0433 17.3154 17.5417 19.5474 17.5417 22.0001H17.6417Z" fill="#1BCBBA" mask="url(#path-7-outside-2_5861_60550)"/>
</g>
<path d="M28.916 19V9.10156H35.2598V10.5918H30.6934V13.2988H34.8223V14.7891H30.6934V19H28.916ZM36.7357 19V9.10156H40.4544C42.724 9.10156 43.9408 10.373 43.9408 12.2598C43.9408 13.6064 43.3255 14.6045 42.1634 15.0762L44.2962 19H42.3138L40.3724 15.377H38.513V19H36.7357ZM38.513 13.8867H40.181C41.5208 13.8867 42.1224 13.3125 42.1224 12.2598C42.1224 11.207 41.5208 10.5918 40.181 10.5918H38.513V13.8867ZM47.2213 9.10156V19H45.444V9.10156H47.2213ZM49.039 19V9.10156H55.4785V10.5918H50.8164V13.2988H55.1367V14.7891H50.8164V17.4961H55.5058V19H49.039ZM65.2943 9.10156V19H63.7083L59.0189 12.2324H58.9368V19H57.1595V9.10156H58.7728L63.4349 15.8691H63.5306V9.10156H65.2943ZM70.4616 19H67.0983V9.10156H70.5163C73.4694 9.10156 75.2604 10.9609 75.2604 14.0371C75.2604 17.127 73.4694 19 70.4616 19ZM68.8756 17.4551H70.3659C72.4303 17.4551 73.483 16.3203 73.483 14.0371C73.483 11.7676 72.4303 10.6465 70.4205 10.6465H68.8756V17.4551ZM82.1914 11.8223C82.1093 10.9746 81.3847 10.4824 80.3183 10.4824C79.1972 10.4824 78.5136 11.0293 78.5136 11.7676C78.5136 12.6016 79.3886 12.9434 80.209 13.1348L81.1386 13.3809C82.6152 13.7227 84.0371 14.502 84.0371 16.2246C84.0371 17.9609 82.6699 19.1504 80.291 19.1504C77.9804 19.1504 76.5312 18.043 76.4492 16.0879H78.1992C78.2812 17.127 79.1562 17.6328 80.2773 17.6328C81.4531 17.6328 82.2597 17.0586 82.2597 16.2109C82.2597 15.4316 81.5351 15.1035 80.4687 14.8301L79.3476 14.543C77.7207 14.1191 76.709 13.2988 76.709 11.877C76.709 10.127 78.2675 8.96484 80.3457 8.96484C82.4511 8.96484 83.873 10.1543 83.9004 11.8223H82.1914Z" fill="#1BCBBA"/>
<defs>
<clipPath id="clip0_5861_60550">
<rect width="17" height="17" fill="white" transform="translate(8 6)"/>
</clipPath>
</defs>
</svg>
