<svg width="63" height="29" viewBox="0 0 63 29" fill="none" xmlns="http://www.w3.org/2000/svg">
<rect width="63" height="29" rx="5" fill="#DBFFF5"/>
<g clip-path="url(#clip0_6645_7498)">
<path d="M13.1562 6.74771C14.7306 6.74771 16.0097 8.02694 16.0098 9.60123C16.0098 11.1756 14.7306 12.4547 13.1562 12.4547C11.582 12.4547 10.3027 11.1755 10.3027 9.60123C10.3028 8.02699 11.582 6.74779 13.1562 6.74771ZM13.1562 8.07974C12.3151 8.07982 11.6348 8.76007 11.6348 9.60123C11.6348 10.4425 12.315 11.1226 13.1562 11.1227C13.9975 11.1227 14.6777 10.4425 14.6777 9.60123C14.6777 8.76002 13.9975 8.07974 13.1562 8.07974Z" fill="#1BCBBA" stroke="#1BCBBA" stroke-width="0.1"/>
<path d="M19.769 6.74762C21.3434 6.74762 22.6225 8.02685 22.6226 9.60114C22.6226 11.1755 21.3434 12.4547 19.769 12.4547C18.1948 12.4546 16.9155 11.1754 16.9155 9.60114C16.9156 8.02689 18.1948 6.7477 19.769 6.74762ZM19.769 8.07965C18.9279 8.07973 18.2476 8.75998 18.2476 9.60114C18.2476 10.4424 18.9278 11.1225 19.769 11.1226C20.6103 11.1226 21.2905 10.4424 21.2905 9.60114C21.2904 8.75993 20.6103 8.07965 19.769 8.07965Z" fill="#1BCBBA" stroke="#1BCBBA" stroke-width="0.1"/>
<mask id="path-4-outside-1_6645_7498" maskUnits="userSpaceOnUse" x="14.3379" y="12.0091" width="10" height="11" fill="black">
<rect fill="white" x="14.3379" y="12.0091" width="10" height="11"/>
<path d="M19.7686 14.2416C20.9579 14.2416 22.6341 16.7435 22.9237 20.7675H19.7686L16.6073 20.7551C16.9031 16.7435 18.5793 14.2416 19.7624 14.2416M19.7686 13.0091C17.3406 13.0091 15.3379 17.0577 15.3379 21.9814L19.7686 21.9999H24.1993C24.1993 17.0701 22.1966 13.0091 19.7686 13.0091Z"/>
</mask>
<path d="M19.7686 14.2416C20.9579 14.2416 22.6341 16.7435 22.9237 20.7675H19.7686L16.6073 20.7551C16.9031 16.7435 18.5793 14.2416 19.7624 14.2416M19.7686 13.0091C17.3406 13.0091 15.3379 17.0577 15.3379 21.9814L19.7686 21.9999H24.1993C24.1993 17.0701 22.1966 13.0091 19.7686 13.0091Z" fill="#1BCBBA"/>
<path d="M22.9237 20.7675V20.8675H23.0312L23.0234 20.7603L22.9237 20.7675ZM19.7686 20.7675L19.7682 20.8675H19.7686V20.7675ZM16.6073 20.7551L16.5076 20.7478L16.4997 20.8547L16.6069 20.8551L16.6073 20.7551ZM15.3379 21.9814H15.2379V22.081L15.3375 22.0814L15.3379 21.9814ZM19.7686 21.9999L19.7682 22.0999H19.7686V21.9999ZM24.1993 21.9999V22.0999H24.2993V21.9999H24.1993ZM19.7686 14.2416V14.3416C20.0313 14.3416 20.3361 14.4806 20.6555 14.7695C20.9736 15.0571 21.2971 15.4854 21.5954 16.0427C22.1916 17.1568 22.68 18.7742 22.824 20.7746L22.9237 20.7675L23.0234 20.7603C22.8778 18.7368 22.3833 17.0912 21.7717 15.9483C21.466 15.3771 21.1294 14.9284 20.7897 14.6212C20.4513 14.3152 20.1006 14.1416 19.7686 14.1416V14.2416ZM22.9237 20.7675V20.6675H19.7686V20.7675V20.8675H22.9237V20.7675ZM19.7686 20.7675L19.769 20.6675L16.6077 20.6551L16.6073 20.7551L16.6069 20.8551L19.7682 20.8675L19.7686 20.7675ZM16.6073 20.7551L16.7071 20.7625C16.8541 18.7682 17.344 17.1538 17.9403 16.0412C18.2385 15.4847 18.5617 15.0567 18.879 14.7693C19.1978 14.4805 19.5014 14.3416 19.7624 14.3416V14.2416V14.1416C19.4319 14.1416 19.0823 14.3153 18.7448 14.621C18.4058 14.9281 18.0696 15.3763 17.764 15.9467C17.1524 17.088 16.6563 18.7304 16.5076 20.7478L16.6073 20.7551ZM19.7686 13.0091V12.9091C18.4953 12.9091 17.362 13.9674 16.5531 15.6046C15.7409 17.2485 15.2379 19.5074 15.2379 21.9814H15.3379H15.4379C15.4379 19.5318 15.9363 17.3045 16.7324 15.6932C17.5319 14.0751 18.614 13.1091 19.7686 13.1091V13.0091ZM15.3379 21.9814L15.3375 22.0814L19.7682 22.0999L19.7686 21.9999L19.769 21.8999L15.3383 21.8814L15.3379 21.9814ZM19.7686 21.9999V22.0999H24.1993V21.9999V21.8999H19.7686V21.9999ZM24.1993 21.9999H24.2993C24.2993 19.5228 23.7964 17.2594 22.9841 15.6116C22.1753 13.9707 21.0421 12.9091 19.7686 12.9091V13.0091V13.1091C20.9231 13.1091 22.0052 14.0779 22.8047 15.7C23.6009 17.3152 24.0993 19.5472 24.0993 21.9999H24.1993Z" fill="#1BCBBA" mask="url(#path-4-outside-1_6645_7498)"/>
<path d="M13.2116 21.3837L9.40332 21.3714C9.56354 16.7743 11.4862 13.6254 13.2116 13.6254C14.9371 13.6254 16.8597 16.7805 17.0199 21.3837H13.2116Z" fill="#DBFFF5"/>
<mask id="path-7-outside-2_6645_7498" maskUnits="userSpaceOnUse" x="7.78027" y="12.0091" width="10" height="11" fill="black">
<rect fill="white" x="7.78027" y="12.0091" width="10" height="11"/>
<path d="M13.211 14.2416C14.4003 14.2416 16.0765 16.7435 16.3661 20.7675H13.211L10.0497 20.7551C10.3455 16.7435 12.0217 14.2416 13.2048 14.2416M13.211 13.0091C10.783 13.0091 8.78027 17.0577 8.78027 21.9814L13.211 21.9999H17.6417C17.6417 17.0701 15.6389 13.0091 13.211 13.0091Z"/>
</mask>
<path d="M13.211 14.2416C14.4003 14.2416 16.0765 16.7435 16.3661 20.7675H13.211L10.0497 20.7551C10.3455 16.7435 12.0217 14.2416 13.2048 14.2416M13.211 13.0091C10.783 13.0091 8.78027 17.0577 8.78027 21.9814L13.211 21.9999H17.6417C17.6417 17.0701 15.6389 13.0091 13.211 13.0091Z" fill="#1BCBBA"/>
<path d="M16.3661 20.7675V20.8675H16.4735L16.4658 20.7603L16.3661 20.7675ZM13.211 20.7675L13.2106 20.8675H13.211V20.7675ZM10.0497 20.7551L9.94998 20.7478L9.9421 20.8547L10.0493 20.8551L10.0497 20.7551ZM8.78027 21.9814H8.68027V22.081L8.77986 22.0814L8.78027 21.9814ZM13.211 21.9999L13.2106 22.0999H13.211V21.9999ZM17.6417 21.9999V22.0999H17.7417V21.9999H17.6417ZM13.211 14.2416V14.3416C13.4737 14.3416 13.7785 14.4806 14.0979 14.7695C14.416 15.0571 14.7395 15.4854 15.0378 16.0427C15.634 17.1568 16.1224 18.7742 16.2663 20.7746L16.3661 20.7675L16.4658 20.7603C16.3202 18.7368 15.8257 17.0912 15.2141 15.9483C14.9084 15.3771 14.5718 14.9284 14.2321 14.6212C13.8937 14.3152 13.543 14.1416 13.211 14.1416V14.2416ZM16.3661 20.7675V20.6675H13.211V20.7675V20.8675H16.3661V20.7675ZM13.211 20.7675L13.2114 20.6675L10.0501 20.6551L10.0497 20.7551L10.0493 20.8551L13.2106 20.8675L13.211 20.7675ZM10.0497 20.7551L10.1494 20.7625C10.2965 18.7682 10.7864 17.1538 11.3826 16.0412C11.6809 15.4847 12.0041 15.0567 12.3214 14.7693C12.6402 14.4805 12.9438 14.3416 13.2048 14.3416V14.2416V14.1416C12.8743 14.1416 12.5246 14.3153 12.1871 14.621C11.8482 14.9281 11.512 15.3763 11.2064 15.9467C10.5948 17.088 10.0987 18.7304 9.94998 20.7478L10.0497 20.7551ZM13.211 13.0091V12.9091C11.9377 12.9091 10.8044 13.9674 9.99549 15.6046C9.18323 17.2485 8.68027 19.5074 8.68027 21.9814H8.78027H8.88027C8.88027 19.5318 9.37869 17.3045 10.1748 15.6932C10.9743 14.0751 12.0564 13.1091 13.211 13.1091V13.0091ZM8.78027 21.9814L8.77986 22.0814L13.2106 22.0999L13.211 21.9999L13.2114 21.8999L8.78069 21.8814L8.78027 21.9814ZM13.211 21.9999V22.0999H17.6417V21.9999V21.8999H13.211V21.9999ZM17.6417 21.9999H17.7417C17.7417 19.5228 17.2387 17.2594 16.4265 15.6116C15.6177 13.9707 14.4845 12.9091 13.211 12.9091V13.0091V13.1091C14.3655 13.1091 15.4476 14.0779 16.2471 15.7C17.0433 17.3152 17.5417 19.5472 17.5417 21.9999H17.6417Z" fill="#1BCBBA" mask="url(#path-7-outside-2_6645_7498)"/>
</g>
<path d="M38.7051 7.87109V16.9355H37.1738V7.87109H38.7051ZM39.0469 18.7402V19.9707H30.5293V16.1152H32.0605V18.7402H39.0469ZM33.0996 10.7422C33.0996 12.2051 34.166 13.5996 36.1348 14.1602L35.4102 15.3633C33.9678 14.9395 32.9355 14.0645 32.375 12.9434C31.8145 14.1602 30.7686 15.1172 29.2988 15.5684L28.5605 14.3789C30.543 13.7773 31.582 12.3008 31.582 10.7422V10.5781H28.9434V9.375H31.582V7.92578H33.1133V9.375H35.7383V10.5781H33.0996V10.7422ZM50.3665 8.60938V9.7168C50.3665 10.8721 50.3665 12.1367 50.0384 13.8867H51.7474V15.1172H46.8392V20.2305H45.3079V15.1172H40.4818V13.8867H48.4935C48.8353 12.2051 48.849 10.9473 48.849 9.83984H41.8079V8.60938H50.3665Z" fill="#1BCBBA"/>
<defs>
<clipPath id="clip0_6645_7498">
<rect width="17" height="17" fill="white" transform="translate(8 6)"/>
</clipPath>
</defs>
</svg>
