<svg width="389" height="31" viewBox="0 0 389 31" fill="none" xmlns="http://www.w3.org/2000/svg">
<path d="M179.966 23.4027L174.395 14.8629L168.765 23.4027H164.951L172.368 12.1719L164.951 1H168.857L174.399 9.47668L180 1H183.877L176.396 12.1719L183.813 23.4027H179.97H179.966Z" fill="black" stroke="black" stroke-width="0.42047" stroke-linejoin="round"/>
<path d="M202.246 17.8653C200.913 21.6496 197.705 23.8276 193.979 23.8276C189.165 23.8276 185.381 19.9509 185.381 15.1701C185.381 10.1161 189.043 6.17627 193.95 6.17627C197.764 6.17627 201.245 8.56875 202.246 12.2016H198.764C197.827 10.2338 196.313 9.05229 194.043 9.05229C190.742 9.05229 188.534 11.5667 188.534 14.9851C188.534 18.4035 190.805 20.9516 193.984 20.9516C196.132 20.9516 197.86 19.7995 198.739 17.8653H202.25H202.246Z" fill="black" stroke="black" stroke-width="0.42047" stroke-linejoin="round"/>
<path d="M216.51 23.4027V14.2911C216.51 10.6876 215.118 9.05201 212.33 9.05201C209.542 9.05201 207.911 11.0492 207.911 14.3205V23.4027H204.762V1H207.911V8.4171H207.97C208.971 6.93284 210.573 6.17599 212.662 6.17599C216.657 6.17599 219.655 8.71983 219.655 13.3198V23.4027H216.505H216.51Z" fill="black" stroke="black" stroke-width="0.42047" stroke-linejoin="round"/>
<path d="M237.398 23.4029V20.8002H237.339C236.157 22.7975 234.038 23.8276 231.646 23.8276C226.739 23.8276 222.744 20.1359 222.744 15.2879C222.744 9.92686 226.587 6.17627 231.524 6.17627C233.975 6.17627 236.035 7.08449 237.339 8.99342H237.398V6.63038H240.547V23.4029H237.398ZM237.456 15.0482C237.456 11.7769 235.093 9.05229 231.612 9.05229C228.463 9.05229 225.889 11.7475 225.889 15.0482C225.889 18.3489 228.463 20.9516 231.612 20.9516C234.761 20.9516 237.456 18.2269 237.456 15.0482Z" fill="black" stroke="black" stroke-width="0.42047" stroke-linejoin="round"/>
<path d="M256.314 23.4029V14.2577C256.314 10.7173 254.923 9.05229 252.135 9.05229C249.347 9.05229 247.716 11.079 247.716 14.2283V23.4029H244.566V6.63038H247.501V8.41738H247.56C248.801 6.81118 250.529 6.17627 252.467 6.17627C256.495 6.17627 259.459 8.72011 259.459 13.3537V23.4071H256.31L256.314 23.4029Z" fill="black" stroke="black" stroke-width="0.42047" stroke-linejoin="round"/>
<path d="M277.353 21.1955C276.05 22.953 273.964 23.8276 271.572 23.8276C266.757 23.8276 262.611 19.6818 262.611 15.1365C262.611 10.0782 266.547 6.17627 271.605 6.17627C273.783 6.17627 276.087 7.08449 277.42 8.56875V6.63038H280.57V21.1913C280.57 26.6406 277.21 30.0001 271.517 30.0001C267.67 30.0001 264.642 27.9734 263.221 24.7022H266.732C267.913 26.3673 269.486 27.1241 271.546 27.1241C275.394 27.1241 277.42 25.0344 277.42 21.1913H277.361L277.353 21.1955ZM277.416 15.0188C277.416 11.0832 274.418 9.05229 271.513 9.05229C268.393 9.05229 265.761 11.7475 265.761 15.0188C265.761 18.29 268.426 20.9516 271.542 20.9516C275.204 20.9516 277.416 17.7434 277.416 15.0188Z" fill="black" stroke="black" stroke-width="0.42047" stroke-linejoin="round"/>
<path d="M286.436 16.3811C287.164 19.1646 289.371 20.9516 291.945 20.9516C293.912 20.9516 295.758 19.9214 296.73 18.1344H299.879C298.575 21.5865 295.43 23.8276 291.827 23.8276C287.105 23.8276 283.287 19.6481 283.287 15.1701C283.287 9.8722 287.282 6.17627 291.734 6.17627C296.671 6.17627 300.425 9.98994 300.425 14.8043C300.425 15.3173 300.425 15.805 300.333 16.3811H286.436ZM297.276 13.9592C297.032 11.1126 294.522 9.05229 291.827 9.05229C289.132 9.05229 286.68 11.079 286.436 13.9592H297.276Z" fill="black" stroke="black" stroke-width="0.42047" stroke-linejoin="round"/>
<path d="M312.443 23.4027V1H320.226C327.008 1 331.154 6.361 331.154 12.2013C331.154 19.0424 326.823 23.4027 319.739 23.4027H312.443ZM319.617 20.4089C324.793 20.4089 327.883 17.3815 327.883 12.2644C327.883 7.14728 324.343 3.99795 319.768 3.99795H315.71V20.4089H319.617Z" fill="black" stroke="black" stroke-width="0.42047" stroke-linejoin="round"/>
<path d="M334.664 4.69173V1H337.813V4.69173H334.664ZM334.664 23.4027V6.6301H337.813V23.4027H334.664Z" fill="black" stroke="black" stroke-width="0.42047" stroke-linejoin="round"/>
<path d="M355.642 23.4029V20.8002H355.583C354.401 22.7975 352.282 23.8276 349.89 23.8276C344.983 23.8276 340.988 20.1359 340.988 15.2879C340.988 9.92686 344.831 6.17627 349.768 6.17627C352.219 6.17627 354.279 7.08449 355.583 8.99342H355.642V6.63038H358.791V23.4029H355.642ZM355.705 15.0482C355.705 11.7769 353.342 9.05229 349.86 9.05229C346.711 9.05229 344.138 11.7475 344.138 15.0482C344.138 18.3489 346.711 20.9516 349.86 20.9516C353.01 20.9516 355.705 18.2269 355.705 15.0482Z" fill="black" stroke="black" stroke-width="0.42047" stroke-linejoin="round"/>
<path d="M362.848 23.4029V6.63038H365.783V8.14407H365.842C366.599 7.02562 367.902 6.29821 370.109 6.17627V9.4181C367.385 9.5106 365.993 11.1757 365.993 13.9886V23.4029H362.844H362.848Z" fill="black" stroke="black" stroke-width="0.42047" stroke-linejoin="round"/>
<path d="M376.258 29.0075L378.709 23.0747L372.02 6.63428H375.409L380.345 19.652L385.399 6.63428H388.788L379.525 29.0075H376.254H376.258Z" fill="black" stroke="black" stroke-width="0.42047" stroke-linejoin="round"/>
<path d="M0.5 23.4027V1H3.77126V20.4089H11.5542V23.4069H0.5V23.4027Z" fill="black" stroke="black" stroke-width="0.42047" stroke-linejoin="round"/>
<path d="M27.3546 23.4029V20.8002H27.2957C26.1142 22.7975 23.995 23.8276 21.6025 23.8276C16.6956 23.8276 12.7012 20.1359 12.7012 15.2879C12.7012 9.92686 16.5443 6.17627 21.4806 6.17627C23.9319 6.17627 25.9922 7.08449 27.2957 8.99342H27.3546V6.63038H30.5039V23.4029H27.3546ZM27.4134 15.0482C27.4134 11.7769 25.0504 9.05229 21.5689 9.05229C18.4196 9.05229 15.8463 11.7475 15.8463 15.0482C15.8463 18.3489 18.4196 20.9516 21.5689 20.9516C24.7182 20.9516 27.4134 18.2269 27.4134 15.0482Z" fill="black" stroke="black" stroke-width="0.42047" stroke-linejoin="round"/>
<path d="M46.2733 23.4029V14.2577C46.2733 10.7173 44.8816 9.05229 42.0939 9.05229C39.3061 9.05229 37.6747 11.079 37.6747 14.2283V23.4029H34.5254V6.63038H37.4603V8.41738H37.5191C38.7595 6.81118 40.4877 6.17627 42.426 6.17627C46.4541 6.17627 49.4185 8.72011 49.4185 13.3537V23.4071H46.2691L46.2733 23.4029Z" fill="black" stroke="black" stroke-width="0.42047" stroke-linejoin="round"/>
<path d="M67.312 21.1955C66.0085 22.953 63.923 23.8276 61.5305 23.8276C56.7161 23.8276 52.5703 19.6818 52.5703 15.1365C52.5703 10.0782 56.5059 6.17627 61.5642 6.17627C63.7422 6.17627 66.0464 7.08449 67.3793 8.56875V6.63038H70.5286V21.1913C70.5286 26.6406 67.169 30.0001 61.4759 30.0001C57.6286 30.0001 54.6012 27.9734 53.18 24.7022H56.6909C57.8724 26.3673 59.445 27.1241 61.5053 27.1241C65.3526 27.1241 67.3793 25.0344 67.3793 21.1913H67.3204L67.312 21.1955ZM67.3751 15.0188C67.3751 11.0832 64.3771 9.05229 61.4717 9.05229C58.3518 9.05229 55.7196 11.7475 55.7196 15.0188C55.7196 18.29 58.3854 20.9516 61.5011 20.9516C65.1634 20.9516 67.3751 17.7434 67.3751 15.0188Z" fill="black" stroke="black" stroke-width="0.42047" stroke-linejoin="round"/>
<path d="M86.5071 23.4024V21.586H86.4483C85.6326 23.0072 83.7236 23.8271 81.512 23.8271C77.9085 23.8271 74.5195 21.8888 74.5195 15.9853V6.62988H77.6689V15.7415C77.6689 19.2524 78.9723 20.9511 81.8483 20.9511C84.7243 20.9511 86.238 18.9202 86.238 15.6826V6.62988H89.3874V23.4024H86.5113H86.5071Z" fill="black" stroke="black" stroke-width="0.42047" stroke-linejoin="round"/>
<path d="M107.216 23.4029V20.8002H107.157C105.976 22.7975 103.856 23.8276 101.464 23.8276C96.557 23.8276 92.5625 20.1359 92.5625 15.2879C92.5625 9.92686 96.4056 6.17627 101.342 6.17627C103.793 6.17627 105.854 7.08449 107.157 8.99342H107.216V6.63038H110.365V23.4029H107.216ZM107.275 15.0482C107.275 11.7769 104.912 9.05229 101.43 9.05229C98.2809 9.05229 95.7076 11.7475 95.7076 15.0482C95.7076 18.3489 98.2809 20.9516 101.43 20.9516C104.58 20.9516 107.275 18.2269 107.275 15.0482Z" fill="black" stroke="black" stroke-width="0.42047" stroke-linejoin="round"/>
<path d="M128.285 21.1955C126.981 22.953 124.896 23.8276 122.503 23.8276C117.689 23.8276 113.543 19.6818 113.543 15.1365C113.543 10.0782 117.479 6.17627 122.537 6.17627C124.715 6.17627 127.019 7.08449 128.352 8.56875V6.63038H131.501V21.1913C131.501 26.6406 128.142 30.0001 122.449 30.0001C118.601 30.0001 115.574 27.9734 114.153 24.7022H117.664C118.845 26.3673 120.418 27.1241 122.478 27.1241C126.325 27.1241 128.352 25.0344 128.352 21.1913H128.293L128.285 21.1955ZM128.348 15.0188C128.348 11.0832 125.35 9.05229 122.444 9.05229C119.324 9.05229 116.692 11.7475 116.692 15.0188C116.692 18.29 119.358 20.9516 122.474 20.9516C126.136 20.9516 128.348 17.7434 128.348 15.0188Z" fill="black" stroke="black" stroke-width="0.42047" stroke-linejoin="round"/>
<path d="M137.368 16.3811C138.095 19.1646 140.303 20.9516 142.876 20.9516C144.844 20.9516 146.69 19.9214 147.661 18.1344H150.811C149.507 21.5865 146.362 23.8276 142.759 23.8276C138.037 23.8276 134.219 19.6481 134.219 15.1701C134.219 9.8722 138.213 6.17627 142.666 6.17627C147.602 6.17627 151.357 9.98994 151.357 14.8043C151.357 15.3173 151.357 15.805 151.265 16.3811H137.368ZM148.208 13.9592C147.964 11.1126 145.454 9.05229 142.759 9.05229C140.063 9.05229 137.612 11.079 137.368 13.9592H148.208Z" fill="black" stroke="black" stroke-width="0.42047" stroke-linejoin="round"/>
</svg>
