<svg width="68" height="68" viewBox="0 0 68 68" fill="none" xmlns="http://www.w3.org/2000/svg">
<g clip-path="url(#clip0_4854_4256)">
<rect width="68" height="68" rx="12" fill="#4170FE"/>
<path opacity="0.99" d="M37.8946 18.6977C36.1908 19.6504 35.355 20.8771 34.4869 23.2829C34.413 23.4891 34.119 23.4891 34.0436 23.2829C33.174 20.8771 32.3382 19.6504 30.6359 18.6977C29.2953 17.9481 27.7746 17.5848 26.2385 17.5848H12.3474C11.5655 17.5848 10.9314 18.219 10.9314 19.0009V50.1399C10.9314 50.9218 11.5655 51.5559 12.3474 51.5559H26.6156C28.0839 51.5559 29.5385 51.1958 30.8021 50.4493C32.3952 49.5104 33.2032 48.2852 34.0436 45.9595C34.119 45.7532 34.413 45.7532 34.4869 45.9595C35.3273 48.2852 36.1354 49.5104 37.7284 50.4493C38.9936 51.1942 40.4481 51.5559 41.915 51.5559H56.3801C57.162 51.5559 57.7961 50.9218 57.7961 50.1399V19.0009C57.7961 18.219 57.162 17.5848 56.3801 17.5848H42.292C40.756 17.5848 39.2352 17.9481 37.8946 18.6977Z" fill="white"/>
<path d="M39.3718 37.1257L37.1248 34.8787L39.3718 32.6317C39.5894 32.4141 39.5894 32.0631 39.3718 31.8455L37.2464 29.7201C37.0287 29.5025 36.6778 29.5025 36.4601 29.7201L34.2132 31.9671L31.9662 29.7201C31.7486 29.5025 31.3976 29.5025 31.18 29.7201L29.0546 31.8455C28.8369 32.0631 28.8369 32.4141 29.0546 32.6317L31.3015 34.8787L29.0546 37.1257C28.8369 37.3433 28.8369 37.6943 29.0546 37.9119L31.18 40.0373C31.3976 40.2549 31.7486 40.2549 31.9662 40.0373L34.2132 37.7903L36.4601 40.0373C36.6778 40.2549 37.0287 40.2549 37.2464 40.0373L39.3718 37.9119C39.5894 37.6943 39.5894 37.3433 39.3718 37.1257Z" fill="#4170FE"/>
</g>
<defs>
<clipPath id="clip0_4854_4256">
<rect width="68" height="68" fill="white"/>
</clipPath>
</defs>
</svg>
