<svg width="14" height="14" viewBox="0 0 11 12" fill="none" xmlns="http://www.w3.org/2000/svg">
<g clip-path="url(#clip0_6998_9673)">
<path d="M5.47439 11.0552C8.26239 11.0552 10.5225 8.79511 10.5225 6.00711C10.5225 3.21911 8.26239 0.958984 5.47439 0.958984C2.68639 0.958984 0.42627 3.21911 0.42627 6.00711C0.42627 8.79511 2.68639 11.0552 5.47439 11.0552Z" stroke="#3461F4" stroke-width="0.79373" stroke-miterlimit="10"/>
<path d="M5.48181 11.0779C6.65224 11.0779 7.60107 8.81426 7.60107 6.02188C7.60107 3.22949 6.65224 0.96582 5.48181 0.96582C4.31137 0.96582 3.36255 3.22949 3.36255 6.02188C3.36255 8.81426 4.31137 11.0779 5.48181 11.0779Z" stroke="#3461F4" stroke-width="0.79373" stroke-miterlimit="10"/>
<path d="M0.596436 6.12891H10.4744" stroke="#3461F4" stroke-width="0.79373" stroke-miterlimit="10"/>
</g>
<defs>
<clipPath id="clip0_6998_9673">
<rect width="10.89" height="10.9098" fill="white" transform="translate(0.0288086 0.561523)"/>
</clipPath>
</defs>
</svg>
