<svg width="138" height="132" viewBox="0 0 138 132" fill="none" xmlns="http://www.w3.org/2000/svg">
<path d="M130.201 1.25921C111.285 -3.10063 87.3355 4.09311 69.0277 19.2436C50.7198 4.09311 26.715 -3.04614 7.7988 1.25921C3.20802 2.34917 0 6.27303 0 10.8509V100.228C0 103.498 1.43808 106.604 3.98236 108.784C6.52665 110.964 9.9006 111.945 13.2745 111.454C29.4253 109.111 50.2774 116.795 65.1006 130.529L66.7046 132H71.2954L72.8994 130.529C87.7226 116.795 108.519 109.056 124.725 111.454C128.044 111.945 131.473 110.964 134.018 108.784C136.562 106.604 138 103.498 138 100.228V10.8509C138 6.27303 134.792 2.29467 130.201 1.25921ZM19.3587 100.119C16.7591 100.119 14.1595 100.282 11.6705 100.664L11.0621 100.228V11.7228C26.8257 8.45295 47.9543 15.4832 63.386 28.9987V115.106C49.7796 105.568 33.7948 100.119 19.3034 100.119H19.3587ZM126.938 100.228L126.329 100.664C109.902 98.2657 90.5435 103.934 74.4481 115.269V29.1077C89.9351 15.5377 111.064 8.45295 126.938 11.7228V100.228Z" fill="#EDEEF0"/>
</svg>
