
<svg width="29" height="29" viewBox="0 0 29 29" fill="none" xmlns="http://www.w3.org/2000/svg">
<path d="M13.5105 30.1777C16.4265 30.1777 18.7905 27.8137 18.7905 24.8977C18.7905 21.9816 16.4265 19.6177 13.5105 19.6177C10.5944 19.6177 8.23047 21.9816 8.23047 24.8977C8.23047 27.8137 10.5944 30.1777 13.5105 30.1777Z" fill="white" stroke="#A4A7B2" stroke-width="2" stroke-miterlimit="10"/>
<path d="M17 1.55005C14.56 0.780049 11.7 0.817712 9.29 1.66771C6.54 2.64771 3.4 6.01771 3.4 10.7277C3.4 18.8077 3.4 19.2377 3.4 19.2377L1 25.3377H26.5L23.58 19.0377L23.5 10.5501C23.5 10.5501 23.22 3.50005 17 1.55005Z" fill="white" stroke="#A4A7B2" stroke-width="2" stroke-linecap="round" stroke-linejoin="round"/>
<circle cx="23" cy="4" r="4" fill="#FD4B4A"/>
</svg>
