<svg width="28" height="28" viewBox="0 0 28 28" fill="none" xmlns="http://www.w3.org/2000/svg">
<path d="M13.7383 26.7513C16.2413 26.7513 18.2705 24.7341 18.2705 22.2458C18.2705 19.7574 16.2413 17.7402 13.7383 17.7402C11.2352 17.7402 9.20605 19.7574 9.20605 22.2458C9.20605 24.7341 11.2352 26.7513 13.7383 26.7513Z" fill="white" stroke="#A4A7B2" stroke-width="1.71675" stroke-miterlimit="10"/>
<path d="M16.734 2.32288C14.6395 1.66583 12.1846 1.69797 10.1159 2.42329C7.75539 3.25954 5.0601 6.13523 5.0601 10.1544C5.0601 17.0492 5.0601 17.4161 5.0601 17.4161L3 22.6214H24.8885L22.3821 17.2455L22.3134 10.0028C22.3134 10.0028 22.0731 3.98686 16.734 2.32288Z" fill="white" stroke="#A4A7B2" stroke-width="1.71675" stroke-linecap="round" stroke-linejoin="round"/>
<ellipse cx="22.5663" cy="4.41328" rx="3.4335" ry="3.41328" fill="#FD4B4A"/>
</svg>
