<svg width="28" height="28" viewBox="0 0 28 28" fill="none" xmlns="http://www.w3.org/2000/svg">
<path d="M13.7651 27.0702C16.2953 27.0702 18.3465 25.019 18.3465 22.4887C18.3465 19.9584 16.2953 17.9072 13.7651 17.9072C11.2348 17.9072 9.18359 19.9584 9.18359 22.4887C9.18359 25.019 11.2348 27.0702 13.7651 27.0702Z" fill="white" stroke="#A4A7B2" stroke-width="1.77299" stroke-miterlimit="10"/>
<path d="M16.7934 2.22972C14.6762 1.56159 12.1946 1.59427 10.1034 2.33182C7.71723 3.18217 4.99264 6.10632 4.99264 10.1932C4.99264 17.2042 4.99264 17.5774 4.99264 17.5774L2.91016 22.8703H25.0366L22.5029 17.4038L22.4335 10.0391C22.4335 10.0391 22.1905 3.92174 16.7934 2.22972Z" fill="white" stroke="#A4A7B2" stroke-width="1.77299" stroke-linecap="round" stroke-linejoin="round"/>
</svg>
