<svg width="28" height="28" viewBox="0 0 28 28" fill="none" xmlns="http://www.w3.org/2000/svg">
<g clip-path="url(#clip0_5118_5050)">
<path d="M14.7299 27.5701C17.2602 27.5701 19.3114 25.5189 19.3114 22.9886C19.3114 20.4584 17.2602 18.4072 14.7299 18.4072C12.1996 18.4072 10.1484 20.4584 10.1484 22.9886C10.1484 25.5189 12.1996 27.5701 14.7299 27.5701Z" fill="white" stroke="#A4A7B2" stroke-width="1.77299" stroke-miterlimit="10"/>
<path d="M17.7582 2.72972C15.641 2.06159 13.1594 2.09427 11.0683 2.83182C8.68207 3.68217 5.95749 6.60632 5.95749 10.6932C5.95749 17.7042 5.95749 18.0774 5.95749 18.0774L3.875 23.3703H26.0014L23.4677 17.9038L23.3983 10.5391C23.3983 10.5391 23.1554 4.42174 17.7582 2.72972Z" fill="white" stroke="#A4A7B2" stroke-width="1.77299" stroke-linecap="round" stroke-linejoin="round"/>
</g>
<defs>
<clipPath id="clip0_5118_5050">
<rect width="28" height="28" fill="white" transform="translate(0.965332 0.5)"/>
</clipPath>
</defs>
</svg>
