<svg width="74" height="29" viewBox="0 0 74 29" fill="none" xmlns="http://www.w3.org/2000/svg">
<rect width="74" height="29" rx="5" fill="#EDEEF0"/>
<path d="M16.0742 7H16.0684C14.6893 7 13.5713 8.14026 13.5713 9.54684V14.4532C13.5713 15.8597 14.6893 17 16.0684 17H16.0742C17.4533 17 18.5713 15.8597 18.5713 14.4532V9.54684C18.5713 8.14026 17.4533 7 16.0742 7Z" stroke="#A4A7B2" stroke-width="1.36" stroke-miterlimit="10" stroke-linecap="round"/>
<path d="M20.1603 10.8386H11.9825C10.8876 10.8386 10 11.7386 10 12.8489V19.3522C10 20.4624 10.8876 21.3624 11.9825 21.3624H20.1603C21.2553 21.3624 22.1429 20.4624 22.1429 19.3522V12.8489C22.1429 11.7386 21.2553 10.8386 20.1603 10.8386Z" fill="#EDEEF0" stroke="#A4A7B2" stroke-width="1.36" stroke-miterlimit="10" stroke-linecap="round"/>
<path d="M16.0717 17.3148C16.7423 17.3148 17.286 16.7711 17.286 16.1005C17.286 15.4299 16.7423 14.8862 16.0717 14.8862C15.4011 14.8862 14.8574 15.4299 14.8574 16.1005C14.8574 16.7711 15.4011 17.3148 16.0717 17.3148Z" fill="#EDEEF0" stroke="#A4A7B2" stroke-width="1.36" stroke-miterlimit="10"/>
<path d="M38.6914 7.85742V20.2305H37.1602V7.85742H38.6914ZM30.584 8.86914V11.959H33.5781V8.86914H35.082V17.3184H29.0664V8.86914H30.584ZM30.584 16.0742H33.5781V13.1484H30.584V16.0742ZM46.0462 15.582C48.7259 15.5957 50.4212 16.4434 50.4349 17.9062C50.4212 19.3418 48.7259 20.2031 46.0462 20.2031C43.3802 20.2031 41.6712 19.3418 41.6712 17.9062C41.6712 16.4434 43.3802 15.5957 46.0462 15.582ZM46.0462 16.7305C44.2689 16.7305 43.1888 17.1543 43.2025 17.9062C43.1888 18.6309 44.2689 19.0273 46.0462 19.0273C47.8372 19.0273 48.9173 18.6309 48.931 17.9062C48.9173 17.1543 47.8372 16.7305 46.0462 16.7305ZM50.3529 8.44531V9.4707C50.3529 10.4414 50.3529 11.4805 50.0111 12.752L48.5072 12.6152C48.8148 11.4121 48.8353 10.5439 48.8353 9.64844H41.7943V8.44531H50.3529ZM51.72 13.4629V14.6934H40.5091V13.4629H44.8568V11.2207H46.3607V13.4629H51.72ZM63.1628 7.85742V20.2168H61.6999V13.873H60.3737V19.6426H58.9518V8.18555H60.3737V12.6426H61.6999V7.85742H63.1628ZM57.8991 9.41602C57.8991 12.752 56.8463 15.623 53.3327 17.6328L52.4577 16.5801C55.0895 15.0557 56.2038 13.1006 56.4225 10.6328H53.0319V9.41602H57.8991Z" fill="#A4A7B2"/>
</svg>
