<svg width="92" height="29" viewBox="0 0 92 29" fill="none" xmlns="http://www.w3.org/2000/svg">
<rect width="92" height="29" rx="5" fill="#EDEEF0"/>
<path d="M16.0742 7H16.0684C14.6893 7 13.5713 8.14026 13.5713 9.54684V14.4532C13.5713 15.8597 14.6893 17 16.0684 17H16.0742C17.4533 17 18.5713 15.8597 18.5713 14.4532V9.54684C18.5713 8.14026 17.4533 7 16.0742 7Z" stroke="#A4A7B2" stroke-width="1.36" stroke-miterlimit="10" stroke-linecap="round"/>
<path d="M20.1603 10.8386H11.9825C10.8876 10.8386 10 11.7386 10 12.8489V19.3522C10 20.4624 10.8876 21.3624 11.9825 21.3624H20.1603C21.2553 21.3624 22.1429 20.4624 22.1429 19.3522V12.8489C22.1429 11.7386 21.2553 10.8386 20.1603 10.8386Z" fill="#EDEEF0" stroke="#A4A7B2" stroke-width="1.36" stroke-miterlimit="10" stroke-linecap="round"/>
<path d="M16.0717 17.3148C16.7423 17.3148 17.286 16.7711 17.286 16.1005C17.286 15.4299 16.7423 14.8862 16.0717 14.8862C15.4011 14.8862 14.8574 15.4299 14.8574 16.1005C14.8574 16.7711 15.4011 17.3148 16.0717 17.3148Z" fill="#EDEEF0" stroke="#A4A7B2" stroke-width="1.36" stroke-miterlimit="10"/>
<path d="M28.916 19V9.10156H32.6348C34.9043 9.10156 36.1211 10.4824 36.1211 12.3828C36.1211 14.2832 34.8906 15.6504 32.6074 15.6504H30.6934V19H28.916ZM30.6934 14.1875H32.3613C33.7012 14.1875 34.3027 13.4355 34.3027 12.3828C34.3027 11.3164 33.7012 10.5918 32.3613 10.5918H30.6934V14.1875ZM37.5286 19V9.10156H41.2474C43.5169 9.10156 44.7337 10.373 44.7337 12.2598C44.7337 13.6064 44.1185 14.6045 42.9564 15.0762L45.0892 19H43.1068L41.1654 15.377H39.306V19H37.5286ZM39.306 13.8867H40.974C42.3138 13.8867 42.9154 13.3125 42.9154 12.2598C42.9154 11.207 42.3138 10.5918 40.974 10.5918H39.306V13.8867ZM48.0143 9.10156V19H46.237V9.10156H48.0143ZM51.1445 9.10156L53.7148 16.9082H53.8242L56.4082 9.10156H58.3633L54.8633 19H52.6758L49.1894 9.10156H51.1445ZM59.6068 19H57.7064L61.1927 9.10156H63.3802L66.8802 19H64.9798L64.1595 16.5527H60.4271L59.6068 19ZM60.9056 15.1172H63.681L62.3275 11.125H62.2454L60.9056 15.1172ZM66.3873 10.5918V9.10156H74.276V10.5918H71.2272V19H69.4498V10.5918H66.3873ZM75.6425 19V9.10156H82.082V10.5918H77.4199V13.2988H81.7402V14.7891H77.4199V17.4961H82.1093V19H75.6425Z" fill="#A4A7B2"/>
</svg>
