<svg width="63" height="29" viewBox="0 0 63 29" fill="none" xmlns="http://www.w3.org/2000/svg">
<rect width="63" height="29" rx="5" fill="#EDF3FE"/>
<g clip-path="url(#clip0_5861_60543)">
<path d="M16.6294 22.0855C20.7475 22.0855 24.086 18.7471 24.086 14.6289C24.086 10.5108 20.7475 7.17236 16.6294 7.17236C12.5113 7.17236 9.17285 10.5108 9.17285 14.6289C9.17285 18.7471 12.5113 22.0855 16.6294 22.0855Z" stroke="#618BFD" stroke-width="1.36" stroke-miterlimit="10"/>
<path d="M16.6411 22.1206C18.3699 22.1206 19.7714 18.777 19.7714 14.6524C19.7714 10.5277 18.3699 7.18408 16.6411 7.18408C14.9122 7.18408 13.5107 10.5277 13.5107 14.6524C13.5107 18.777 14.9122 22.1206 16.6411 22.1206Z" stroke="#618BFD" stroke-width="1.36" stroke-miterlimit="10"/>
<path d="M9.4248 14.8108H24.0155" stroke="#618BFD" stroke-width="1.36" stroke-miterlimit="10"/>
</g>
<path d="M30.1738 19H28.2734L31.7598 9.10156H33.9473L37.4473 19H35.5469L34.7266 16.5527H30.9941L30.1738 19ZM31.4727 15.1172H34.248L32.8945 11.125H32.8125L31.4727 15.1172ZM38.595 19V9.10156H40.3724V17.4961H44.7474V19H38.595ZM46.1413 19V9.10156H47.9186V17.4961H52.2936V19H46.1413Z" fill="#618BFD"/>
<defs>
<clipPath id="clip0_5861_60543">
<rect width="17" height="17" fill="white" transform="translate(8 6)"/>
</clipPath>
</defs>
</svg>
