<svg width="40" height="41" viewBox="0 0 40 41" fill="none" xmlns="http://www.w3.org/2000/svg">
<path d="M8 27.6895H31.61" stroke="#3461F4" stroke-width="2" stroke-miterlimit="10" stroke-linecap="round"/>
<path d="M16.8299 32.1598C19.1495 32.1598 21.0299 30.2794 21.0299 27.9598C21.0299 25.6402 19.1495 23.7598 16.8299 23.7598C14.5103 23.7598 12.6299 25.6402 12.6299 27.9598C12.6299 30.2794 14.5103 32.1598 16.8299 32.1598Z" fill="#F1F5FD" stroke="#3461F4" stroke-width="2" stroke-miterlimit="10"/>
<path d="M31.61 13.4297H8" stroke="#3461F4" stroke-width="2" stroke-miterlimit="10" stroke-linecap="round"/>
<path d="M22.7801 17.9C25.0997 17.9 26.9801 16.0196 26.9801 13.7C26.9801 11.3804 25.0997 9.5 22.7801 9.5C20.4605 9.5 18.5801 11.3804 18.5801 13.7C18.5801 16.0196 20.4605 17.9 22.7801 17.9Z" fill="#F1F5FD" stroke="#3461F4" stroke-width="2" stroke-miterlimit="10"/>
</svg>
