<svg width="26" height="26" viewBox="0 0 26 26" fill="none" xmlns="http://www.w3.org/2000/svg">
<path d="M1 19.6899H24.61" stroke="#A4A7B2" stroke-width="2" stroke-miterlimit="10" stroke-linecap="round"/>
<path d="M9.82988 24.1598C12.1495 24.1598 14.0299 22.2794 14.0299 19.9598C14.0299 17.6402 12.1495 15.7598 9.82988 15.7598C7.51028 15.7598 5.62988 17.6402 5.62988 19.9598C5.62988 22.2794 7.51028 24.1598 9.82988 24.1598Z" fill="white" stroke="#A4A7B2" stroke-width="2" stroke-miterlimit="10"/>
<path d="M24.61 5.43018H1" stroke="#A4A7B2" stroke-width="2" stroke-miterlimit="10" stroke-linecap="round"/>
<path d="M15.7801 9.9C18.0997 9.9 19.9801 8.01959 19.9801 5.7C19.9801 3.3804 18.0997 1.5 15.7801 1.5C13.4605 1.5 11.5801 3.3804 11.5801 5.7C11.5801 8.01959 13.4605 9.9 15.7801 9.9Z" fill="white" stroke="#A4A7B2" stroke-width="2" stroke-miterlimit="10"/>
</svg>
