<svg width="14" height="14" viewBox="0 0 11 11" fill="none" xmlns="http://www.w3.org/2000/svg">
<g clip-path="url(#clip0_6998_9680)">
<path d="M10.1059 0.340583C8.67808 -0.00347966 6.87032 0.564224 5.48841 1.75984C4.1065 0.564224 2.29458 0.000821128 0.866744 0.340583C0.520223 0.426599 0.278076 0.736255 0.278076 1.09752V8.15081C0.278076 8.40885 0.386625 8.654 0.578673 8.82603C0.77072 8.99806 1.02539 9.07548 1.28006 9.03677C2.49915 8.85184 4.07311 9.45825 5.19199 10.542L5.31307 10.6582H5.65959L5.78066 10.542C6.89955 9.45825 8.46933 8.84754 9.69259 9.03677C9.94308 9.07548 10.2019 8.99806 10.394 8.82603C10.586 8.654 10.6946 8.40885 10.6946 8.15081V1.09752C10.6946 0.736255 10.4524 0.422298 10.1059 0.340583ZM1.73931 8.14221C1.54309 8.14221 1.34686 8.15511 1.15899 8.18521L1.11307 8.15081V1.16633C2.30293 0.908287 3.89776 1.46309 5.06257 2.52968V9.32492C4.03553 8.57229 2.82897 8.14221 1.73513 8.14221H1.73931ZM9.85959 8.15081L9.81366 8.18521C8.5737 7.99598 7.11247 8.44326 5.89756 9.33782V2.53828C7.06654 1.46739 8.66138 0.908287 9.85959 1.16633V8.15081Z" fill="#3461F4"/>
</g>
<defs>
<clipPath id="clip0_6998_9680">
<rect width="10.4165" height="10.4165" fill="white" transform="translate(0.278076 0.242188)"/>
</clipPath>
</defs>
</svg>
