<svg width="241" height="165" viewBox="0 0 241 165" fill="none" xmlns="http://www.w3.org/2000/svg">
<path opacity="0.99" d="M138.657 5.73263C129.895 10.6407 125.597 16.96 121.133 29.353C120.753 30.4155 119.241 30.4155 118.854 29.353C114.382 16.96 110.084 10.6407 101.33 5.73263C94.4355 1.87123 86.6153 0 78.716 0H7.28193C3.26104 0 0 3.26673 0 7.29464V167.705C0 171.733 3.26104 175 7.28193 175H80.6552C88.2063 175 95.6861 173.145 102.184 169.299C110.377 164.462 114.532 158.151 118.854 146.17C119.241 145.108 120.753 145.108 121.133 146.17C125.455 158.151 129.61 164.462 137.802 169.299C144.309 173.137 151.789 175 159.332 175H233.718C237.739 175 241 171.733 241 167.705V7.29464C241 3.26673 237.739 0 233.718 0H161.271C153.372 0 145.551 1.87123 138.657 5.73263Z" fill="#618BFD"/>
</svg>
