<svg width="35" height="35" viewBox="0 0 35 35" fill="none" xmlns="http://www.w3.org/2000/svg">
<g clip-path="url(#clip0_5118_5040)">
<path d="M27.1003 0H7.89974C3.53683 0 0 3.53683 0 7.89974V27.1003C0 31.4632 3.53683 35 7.89974 35H27.1003C31.4632 35 35 31.4632 35 27.1003V7.89974C35 3.53683 31.4632 0 27.1003 0Z" fill="#4170FE"/>
<path opacity="0.99" d="M19.5046 9.62368C18.6276 10.1141 18.1974 10.7455 17.7506 11.9837C17.7126 12.0899 17.5613 12.0899 17.5225 11.9837C17.0749 10.7455 16.6447 10.1141 15.7685 9.62368C15.0785 9.23787 14.2957 9.0509 13.5051 9.0509H6.35531C5.95286 9.0509 5.62646 9.3773 5.62646 9.77975V25.8072C5.62646 26.2096 5.95286 26.536 6.35531 26.536H13.6992C14.455 26.536 15.2036 26.3506 15.854 25.9664C16.674 25.4832 17.0899 24.8525 17.5225 23.6555C17.5613 23.5493 17.7126 23.5493 17.7506 23.6555C18.1832 24.8525 18.5991 25.4832 19.419 25.9664C20.0702 26.3498 20.8189 26.536 21.5739 26.536H29.0192C29.4216 26.536 29.748 26.2096 29.748 25.8072V9.77975C29.748 9.3773 29.4216 9.0509 29.0192 9.0509H21.768C20.9773 9.0509 20.1946 9.23787 19.5046 9.62368Z" fill="white"/>
<path d="M20.2649 19.1088L19.1084 17.9522L20.2649 16.7957C20.377 16.6837 20.377 16.5031 20.2649 16.391L19.171 15.2971C19.059 15.1851 18.8783 15.1851 18.7663 15.2971L17.6098 16.4536L16.4533 15.2971C16.3412 15.1851 16.1606 15.1851 16.0486 15.2971L14.9546 16.391C14.8426 16.5031 14.8426 16.6837 14.9546 16.7957L16.1111 17.9522L14.9546 19.1088C14.8426 19.2208 14.8426 19.4014 14.9546 19.5135L16.0486 20.6074C16.1606 20.7194 16.3412 20.7194 16.4533 20.6074L17.6098 19.4509L18.7663 20.6074C18.8783 20.7194 19.059 20.7194 19.171 20.6074L20.2649 19.5135C20.377 19.4014 20.377 19.2208 20.2649 19.1088Z" fill="#4170FE"/>
</g>
<defs>
<clipPath id="clip0_5118_5040">
<rect width="35" height="35" fill="white"/>
</clipPath>
</defs>
</svg>
