<svg width="28" height="30" viewBox="0 0 28 30" fill="none" xmlns="http://www.w3.org/2000/svg">
<path d="M12.84 3.60986H2.42C1.64 3.60986 1 4.23986 1 5.02986V27.3699C1 28.1499 1.63 28.7899 2.42 28.7899H22.28C23.06 28.7899 23.7 28.1599 23.7 27.3699V15.6599" stroke="#4170FE" stroke-width="2" stroke-linecap="round" stroke-linejoin="round"/>
<path d="M22.9503 2.51C23.0803 2.51 23.3403 2.54 23.5703 2.76L25.6003 4.74C25.8303 4.96 25.8703 5.23 25.8703 5.36C25.8703 5.49 25.8403 5.76 25.6203 5.99L24.2703 7.38L12.4803 19.5L9.25028 19.59L9.18028 16.28L22.3303 2.78C22.5603 2.55 22.8203 2.51 22.9603 2.51M22.9503 0.510002C22.2003 0.510002 21.4503 0.800001 20.8803 1.38L7.73028 14.88C7.36028 15.26 7.16028 15.77 7.17028 16.3L7.24028 19.62C7.26028 20.7 8.14028 21.56 9.22028 21.56C9.23028 21.56 9.25028 21.56 9.26028 21.56L12.5103 21.49C13.0303 21.48 13.5303 21.26 13.8903 20.89L25.7003 8.77L27.0503 7.38C28.1603 6.24 28.1403 4.41 27.0003 3.3L24.9703 1.32C24.4103 0.77 23.6803 0.5 22.9603 0.5L22.9503 0.510002Z" fill="#4170FE"/>
<path d="M24.8704 8.17006L20.1304 3.56006" stroke="#4170FE" stroke-width="2" stroke-linecap="round" stroke-linejoin="round"/>
</svg>
