<svg width="27" height="26" viewBox="0 0 27 26" fill="none" xmlns="http://www.w3.org/2000/svg">
<path d="M25.4741 0.248026C21.7731 -0.610731 17.0874 0.806218 13.5054 3.7904C9.92345 0.806218 5.22685 -0.599996 1.52585 0.248026C0.627655 0.462715 0 1.2356 0 2.13729V19.7418C0 20.3859 0.281363 20.9977 0.779158 21.4271C1.27695 21.8565 1.93707 22.0497 2.59719 21.9531C5.75711 21.4915 9.83687 23.0051 12.7371 25.7102L13.0509 26H13.9491L14.2629 25.7102C17.1631 23.0051 21.2321 21.4808 24.4028 21.9531C25.0521 22.0497 25.723 21.8565 26.2208 21.4271C26.7186 20.9977 27 20.3859 27 19.7418V2.13729C27 1.2356 26.3723 0.451981 25.4741 0.248026ZM3.78758 19.7203C3.27896 19.7203 2.77034 19.7525 2.28337 19.8277L2.16433 19.7418V2.30904C5.2485 1.66498 9.38236 3.04972 12.4016 5.71187V22.6723C9.73948 20.7938 6.61202 19.7203 3.77675 19.7203H3.78758ZM24.8357 19.7418L24.7166 19.8277C21.5026 19.3554 17.715 20.4718 14.5659 22.7045V5.73334C17.596 3.06045 21.7299 1.66498 24.8357 2.30904V19.7418Z" fill="#4170FE"/>
</svg>
