<svg width="18" height="18" viewBox="0 0 18 18" fill="none" xmlns="http://www.w3.org/2000/svg">
<g clip-path="url(#clip0_5966_16530)">
<mask id="path-1-inside-1_5966_16530" fill="white">
<path d="M13.7344 2.49902C13.8339 2.49902 14.033 2.52198 14.209 2.69038L15.7629 4.20598C15.9389 4.37438 15.9696 4.58105 15.9696 4.68056C15.9696 4.78007 15.9466 4.98674 15.7782 5.1628L14.7448 6.22678L5.72011 15.5041L3.24769 15.573L3.19411 13.0393L13.2598 2.70569C13.4359 2.52963 13.6349 2.49902 13.7421 2.49902M13.7344 0.968105C13.1603 0.968105 12.5862 1.19009 12.1499 1.63405L2.0842 11.9677C1.80098 12.2586 1.64789 12.6489 1.65555 13.0546L1.70913 15.5959C1.72444 16.4226 2.39804 17.0809 3.22473 17.0809C3.23238 17.0809 3.24769 17.0809 3.25535 17.0809L5.74308 17.0273C6.14111 17.0197 6.52384 16.8513 6.7994 16.5681L15.8394 7.29076L16.8728 6.22678C17.7224 5.35416 17.7071 3.95338 16.8345 3.10372L15.2806 1.58812C14.852 1.16712 14.2932 0.960449 13.7421 0.960449L13.7344 0.968105Z"/>
</mask>
<path d="M13.7344 2.49902C13.8339 2.49902 14.033 2.52198 14.209 2.69038L15.7629 4.20598C15.9389 4.37438 15.9696 4.58105 15.9696 4.68056C15.9696 4.78007 15.9466 4.98674 15.7782 5.1628L14.7448 6.22678L5.72011 15.5041L3.24769 15.573L3.19411 13.0393L13.2598 2.70569C13.4359 2.52963 13.6349 2.49902 13.7421 2.49902M13.7344 0.968105C13.1603 0.968105 12.5862 1.19009 12.1499 1.63405L2.0842 11.9677C1.80098 12.2586 1.64789 12.6489 1.65555 13.0546L1.70913 15.5959C1.72444 16.4226 2.39804 17.0809 3.22473 17.0809C3.23238 17.0809 3.24769 17.0809 3.25535 17.0809L5.74308 17.0273C6.14111 17.0197 6.52384 16.8513 6.7994 16.5681L15.8394 7.29076L16.8728 6.22678C17.7224 5.35416 17.7071 3.95338 16.8345 3.10372L15.2806 1.58812C14.852 1.16712 14.2932 0.960449 13.7421 0.960449L13.7344 0.968105Z" fill="#A4A7B2"/>
<path d="M14.209 2.69038L14.2876 2.60979L14.2868 2.60903L14.209 2.69038ZM15.7629 4.20598L15.6843 4.28657L15.6851 4.28732L15.7629 4.20598ZM15.7782 5.1628L15.8589 5.24123L15.8595 5.24061L15.7782 5.1628ZM14.7448 6.22678L14.8255 6.30527L14.8256 6.30521L14.7448 6.22678ZM5.72011 15.5041L5.72325 15.6166L5.76893 15.6153L5.8008 15.5826L5.72011 15.5041ZM3.24769 15.573L3.13515 15.5754L3.13755 15.6887L3.25083 15.6855L3.24769 15.573ZM3.19411 13.0393L3.11348 12.9608L3.08057 12.9946L3.08157 13.0417L3.19411 13.0393ZM13.2598 2.70569L13.1802 2.62608L13.1792 2.62714L13.2598 2.70569ZM13.7344 0.968105V1.08067H13.7811L13.814 1.04769L13.7344 0.968105ZM12.1499 1.63405L12.0696 1.55515L12.0693 1.55551L12.1499 1.63405ZM2.0842 11.9677L2.00357 11.8891L2.00355 11.8892L2.0842 11.9677ZM1.65555 13.0546L1.543 13.0568L1.54301 13.057L1.65555 13.0546ZM1.70913 15.5959L1.82168 15.5939L1.82167 15.5936L1.70913 15.5959ZM3.25535 17.0809V17.1935L3.25777 17.1935L3.25535 17.0809ZM5.74308 17.0273L5.74091 16.9148L5.74065 16.9148L5.74308 17.0273ZM6.7994 16.5681L6.71878 16.4895L6.71872 16.4896L6.7994 16.5681ZM15.8394 7.29076L15.92 7.36932L15.9202 7.36919L15.8394 7.29076ZM16.8728 6.22678L16.7921 6.14825L16.792 6.14835L16.8728 6.22678ZM16.8345 3.10372L16.7559 3.18431L16.756 3.18437L16.8345 3.10372ZM15.2806 1.58812L15.2018 1.66843L15.202 1.6687L15.2806 1.58812ZM13.7421 0.960449V0.847882H13.6954L13.6625 0.88086L13.7421 0.960449ZM13.7344 2.49902V2.61158C13.8179 2.61158 13.9839 2.63082 14.1312 2.77172L14.209 2.69038L14.2868 2.60903C14.082 2.41314 13.85 2.38645 13.7344 2.38645V2.49902ZM14.209 2.69038L14.1304 2.77096L15.6843 4.28656L15.7629 4.20598L15.8415 4.1254L14.2876 2.6098L14.209 2.69038ZM15.7629 4.20598L15.6851 4.28732C15.8315 4.42737 15.857 4.59968 15.857 4.68056H15.9696H16.0821C16.0821 4.56242 16.0464 4.32139 15.8407 4.12463L15.7629 4.20598ZM15.9696 4.68056H15.857C15.857 4.76529 15.8372 4.93829 15.6968 5.08499L15.7782 5.1628L15.8595 5.24061C16.056 5.0352 16.0821 4.79485 16.0821 4.68056H15.9696ZM15.7782 5.1628L15.6974 5.08437L14.6641 6.14835L14.7448 6.22678L14.8256 6.30521L15.8589 5.24122L15.7782 5.1628ZM14.7448 6.22678L14.6641 6.14829L5.63942 15.4256L5.72011 15.5041L5.8008 15.5826L14.8255 6.30527L14.7448 6.22678ZM5.72011 15.5041L5.71698 15.3916L3.24456 15.4605L3.24769 15.573L3.25083 15.6855L5.72325 15.6166L5.72011 15.5041ZM3.24769 15.573L3.36024 15.5706L3.30665 13.0369L3.19411 13.0393L3.08157 13.0417L3.13515 15.5754L3.24769 15.573ZM3.19411 13.0393L3.27475 13.1179L13.3405 2.78423L13.2598 2.70569L13.1792 2.62714L3.11348 12.9608L3.19411 13.0393ZM13.2598 2.70569L13.3394 2.78528C13.4882 2.63648 13.6548 2.61158 13.7421 2.61158V2.49902V2.38645C13.6151 2.38645 13.3836 2.42278 13.1802 2.62609L13.2598 2.70569ZM13.7344 0.968105V0.855539C13.1313 0.855539 12.5279 1.08887 12.0696 1.55515L12.1499 1.63405L12.2302 1.71295C12.6446 1.29131 13.1894 1.08067 13.7344 1.08067V0.968105ZM12.1499 1.63405L12.0693 1.55551L2.00357 11.8891L2.0842 11.9677L2.16484 12.0462L12.2306 1.7126L12.1499 1.63405ZM2.0842 11.9677L2.00355 11.8892C1.69919 12.2018 1.53478 12.6212 1.543 13.0568L1.65555 13.0546L1.76809 13.0525C1.761 12.6766 1.90278 12.3154 2.16485 12.0462L2.0842 11.9677ZM1.65555 13.0546L1.54301 13.057L1.59659 15.5983L1.70913 15.5959L1.82167 15.5936L1.76809 13.0523L1.65555 13.0546ZM1.70913 15.5959L1.59658 15.598C1.61303 16.4863 2.33696 17.1935 3.22473 17.1935V17.0809V16.9684C2.45911 16.9684 1.83584 16.3589 1.82168 15.5939L1.70913 15.5959ZM3.22473 17.0809V17.1935C3.22474 17.1935 3.22476 17.1935 3.22477 17.1935C3.22479 17.1935 3.2248 17.1935 3.22482 17.1935C3.22483 17.1935 3.22485 17.1935 3.22486 17.1935C3.22488 17.1935 3.2249 17.1935 3.22491 17.1935C3.22493 17.1935 3.22494 17.1935 3.22496 17.1935C3.22497 17.1935 3.22499 17.1935 3.225 17.1935C3.22502 17.1935 3.22503 17.1935 3.22505 17.1935C3.22506 17.1935 3.22508 17.1935 3.22509 17.1935C3.22511 17.1935 3.22512 17.1935 3.22514 17.1935C3.22516 17.1935 3.22517 17.1935 3.22519 17.1935C3.2252 17.1935 3.22522 17.1935 3.22523 17.1935C3.22525 17.1935 3.22526 17.1935 3.22528 17.1935C3.2253 17.1935 3.22531 17.1935 3.22533 17.1935C3.22534 17.1935 3.22536 17.1935 3.22537 17.1935C3.22539 17.1935 3.22541 17.1935 3.22542 17.1935C3.22544 17.1935 3.22545 17.1935 3.22547 17.1935C3.22548 17.1935 3.2255 17.1935 3.22552 17.1935C3.22553 17.1935 3.22555 17.1935 3.22556 17.1935C3.22558 17.1935 3.2256 17.1935 3.22561 17.1935C3.22563 17.1935 3.22564 17.1935 3.22566 17.1935C3.22568 17.1935 3.22569 17.1935 3.22571 17.1935C3.22573 17.1935 3.22574 17.1935 3.22576 17.1935C3.22577 17.1935 3.22579 17.1935 3.22581 17.1935C3.22582 17.1935 3.22584 17.1935 3.22585 17.1935C3.22587 17.1935 3.22589 17.1935 3.2259 17.1935C3.22592 17.1935 3.22594 17.1935 3.22595 17.1935C3.22597 17.1935 3.22599 17.1935 3.226 17.1935C3.22602 17.1935 3.22603 17.1935 3.22605 17.1935C3.22607 17.1935 3.22608 17.1935 3.2261 17.1935C3.22612 17.1935 3.22613 17.1935 3.22615 17.1935C3.22617 17.1935 3.22618 17.1935 3.2262 17.1935C3.22622 17.1935 3.22623 17.1935 3.22625 17.1935C3.22627 17.1935 3.22628 17.1935 3.2263 17.1935C3.22632 17.1935 3.22633 17.1935 3.22635 17.1935C3.22637 17.1935 3.22638 17.1935 3.2264 17.1935C3.22642 17.1935 3.22644 17.1935 3.22645 17.1935C3.22647 17.1935 3.22649 17.1935 3.2265 17.1935C3.22652 17.1935 3.22654 17.1935 3.22655 17.1935C3.22657 17.1935 3.22659 17.1935 3.22661 17.1935C3.22662 17.1935 3.22664 17.1935 3.22666 17.1935C3.22667 17.1935 3.22669 17.1935 3.22671 17.1935C3.22672 17.1935 3.22674 17.1935 3.22676 17.1935C3.22678 17.1935 3.22679 17.1935 3.22681 17.1935C3.22683 17.1935 3.22685 17.1935 3.22686 17.1935C3.22688 17.1935 3.2269 17.1935 3.22691 17.1935C3.22693 17.1935 3.22695 17.1935 3.22697 17.1935C3.22698 17.1935 3.227 17.1935 3.22702 17.1935C3.22704 17.1935 3.22705 17.1935 3.22707 17.1935C3.22709 17.1935 3.22711 17.1935 3.22712 17.1935C3.22714 17.1935 3.22716 17.1935 3.22718 17.1935C3.22719 17.1935 3.22721 17.1935 3.22723 17.1935C3.22725 17.1935 3.22726 17.1935 3.22728 17.1935C3.2273 17.1935 3.22732 17.1935 3.22734 17.1935C3.22735 17.1935 3.22737 17.1935 3.22739 17.1935C3.22741 17.1935 3.22742 17.1935 3.22744 17.1935C3.22746 17.1935 3.22748 17.1935 3.2275 17.1935C3.22751 17.1935 3.22753 17.1935 3.22755 17.1935C3.22757 17.1935 3.22759 17.1935 3.2276 17.1935C3.22762 17.1935 3.22764 17.1935 3.22766 17.1935C3.22768 17.1935 3.22769 17.1935 3.22771 17.1935C3.22773 17.1935 3.22775 17.1935 3.22777 17.1935C3.22778 17.1935 3.2278 17.1935 3.22782 17.1935C3.22784 17.1935 3.22786 17.1935 3.22787 17.1935C3.22789 17.1935 3.22791 17.1935 3.22793 17.1935C3.22795 17.1935 3.22797 17.1935 3.22798 17.1935C3.228 17.1935 3.22802 17.1935 3.22804 17.1935C3.22806 17.1935 3.22808 17.1935 3.22809 17.1935C3.22811 17.1935 3.22813 17.1935 3.22815 17.1935C3.22817 17.1935 3.22819 17.1935 3.2282 17.1935C3.22822 17.1935 3.22824 17.1935 3.22826 17.1935C3.22828 17.1935 3.2283 17.1935 3.22831 17.1935C3.22833 17.1935 3.22835 17.1935 3.22837 17.1935C3.22839 17.1935 3.22841 17.1935 3.22843 17.1935C3.22844 17.1935 3.22846 17.1935 3.22848 17.1935C3.2285 17.1935 3.22852 17.1935 3.22854 17.1935C3.22856 17.1935 3.22858 17.1935 3.22859 17.1935C3.22861 17.1935 3.22863 17.1935 3.22865 17.1935C3.22867 17.1935 3.22869 17.1935 3.22871 17.1935C3.22873 17.1935 3.22874 17.1935 3.22876 17.1935C3.22878 17.1935 3.2288 17.1935 3.22882 17.1935C3.22884 17.1935 3.22886 17.1935 3.22888 17.1935C3.2289 17.1935 3.22891 17.1935 3.22893 17.1935C3.22895 17.1935 3.22897 17.1935 3.22899 17.1935C3.22901 17.1935 3.22903 17.1935 3.22905 17.1935C3.22907 17.1935 3.22909 17.1935 3.2291 17.1935C3.22912 17.1935 3.22914 17.1935 3.22916 17.1935C3.22918 17.1935 3.2292 17.1935 3.22922 17.1935C3.22924 17.1935 3.22926 17.1935 3.22928 17.1935C3.2293 17.1935 3.22932 17.1935 3.22933 17.1935C3.22935 17.1935 3.22937 17.1935 3.22939 17.1935C3.22941 17.1935 3.22943 17.1935 3.22945 17.1935C3.22947 17.1935 3.22949 17.1935 3.22951 17.1935C3.22953 17.1935 3.22955 17.1935 3.22957 17.1935C3.22959 17.1935 3.22961 17.1935 3.22962 17.1935C3.22964 17.1935 3.22966 17.1935 3.22968 17.1935C3.2297 17.1935 3.22972 17.1935 3.22974 17.1935C3.22976 17.1935 3.22978 17.1935 3.2298 17.1935C3.22982 17.1935 3.22984 17.1935 3.22986 17.1935C3.22988 17.1935 3.2299 17.1935 3.22992 17.1935C3.22994 17.1935 3.22996 17.1935 3.22998 17.1935C3.23 17.1935 3.23002 17.1935 3.23004 17.1935C3.23006 17.1935 3.23007 17.1935 3.23009 17.1935C3.23011 17.1935 3.23013 17.1935 3.23015 17.1935C3.23017 17.1935 3.23019 17.1935 3.23021 17.1935C3.23023 17.1935 3.23025 17.1935 3.23027 17.1935C3.23029 17.1935 3.23031 17.1935 3.23033 17.1935C3.23035 17.1935 3.23037 17.1935 3.23039 17.1935C3.23041 17.1935 3.23043 17.1935 3.23045 17.1935C3.23047 17.1935 3.23049 17.1935 3.23051 17.1935C3.23053 17.1935 3.23055 17.1935 3.23057 17.1935C3.23059 17.1935 3.23061 17.1935 3.23063 17.1935C3.23065 17.1935 3.23067 17.1935 3.23069 17.1935C3.23071 17.1935 3.23073 17.1935 3.23075 17.1935C3.23077 17.1935 3.23079 17.1935 3.23081 17.1935C3.23083 17.1935 3.23085 17.1935 3.23087 17.1935C3.23089 17.1935 3.23091 17.1935 3.23093 17.1935C3.23095 17.1935 3.23097 17.1935 3.23099 17.1935C3.23101 17.1935 3.23103 17.1935 3.23105 17.1935C3.23107 17.1935 3.23109 17.1935 3.23111 17.1935C3.23114 17.1935 3.23116 17.1935 3.23118 17.1935C3.2312 17.1935 3.23122 17.1935 3.23124 17.1935C3.23126 17.1935 3.23128 17.1935 3.2313 17.1935C3.23132 17.1935 3.23134 17.1935 3.23136 17.1935C3.23138 17.1935 3.2314 17.1935 3.23142 17.1935C3.23144 17.1935 3.23146 17.1935 3.23148 17.1935C3.2315 17.1935 3.23152 17.1935 3.23154 17.1935C3.23156 17.1935 3.23158 17.1935 3.2316 17.1935C3.23163 17.1935 3.23165 17.1935 3.23167 17.1935C3.23169 17.1935 3.23171 17.1935 3.23173 17.1935C3.23175 17.1935 3.23177 17.1935 3.23179 17.1935C3.23181 17.1935 3.23183 17.1935 3.23185 17.1935C3.23187 17.1935 3.23189 17.1935 3.23191 17.1935C3.23193 17.1935 3.23196 17.1935 3.23198 17.1935C3.232 17.1935 3.23202 17.1935 3.23204 17.1935C3.23206 17.1935 3.23208 17.1935 3.2321 17.1935C3.23212 17.1935 3.23214 17.1935 3.23216 17.1935C3.23218 17.1935 3.2322 17.1935 3.23222 17.1935C3.23225 17.1935 3.23227 17.1935 3.23229 17.1935C3.23231 17.1935 3.23233 17.1935 3.23235 17.1935C3.23237 17.1935 3.23239 17.1935 3.23241 17.1935C3.23243 17.1935 3.23245 17.1935 3.23248 17.1935C3.2325 17.1935 3.23252 17.1935 3.23254 17.1935C3.23256 17.1935 3.23258 17.1935 3.2326 17.1935C3.23262 17.1935 3.23264 17.1935 3.23266 17.1935C3.23268 17.1935 3.23271 17.1935 3.23273 17.1935C3.23275 17.1935 3.23277 17.1935 3.23279 17.1935C3.23281 17.1935 3.23283 17.1935 3.23285 17.1935C3.23287 17.1935 3.2329 17.1935 3.23292 17.1935C3.23294 17.1935 3.23296 17.1935 3.23298 17.1935C3.233 17.1935 3.23302 17.1935 3.23304 17.1935C3.23306 17.1935 3.23309 17.1935 3.23311 17.1935C3.23313 17.1935 3.23315 17.1935 3.23317 17.1935C3.23319 17.1935 3.23321 17.1935 3.23323 17.1935C3.23326 17.1935 3.23328 17.1935 3.2333 17.1935C3.23332 17.1935 3.23334 17.1935 3.23336 17.1935C3.23338 17.1935 3.2334 17.1935 3.23343 17.1935C3.23345 17.1935 3.23347 17.1935 3.23349 17.1935C3.23351 17.1935 3.23353 17.1935 3.23355 17.1935C3.23357 17.1935 3.2336 17.1935 3.23362 17.1935C3.23364 17.1935 3.23366 17.1935 3.23368 17.1935C3.2337 17.1935 3.23372 17.1935 3.23375 17.1935C3.23377 17.1935 3.23379 17.1935 3.23381 17.1935C3.23383 17.1935 3.23385 17.1935 3.23387 17.1935C3.2339 17.1935 3.23392 17.1935 3.23394 17.1935C3.23396 17.1935 3.23398 17.1935 3.234 17.1935C3.23402 17.1935 3.23405 17.1935 3.23407 17.1935C3.23409 17.1935 3.23411 17.1935 3.23413 17.1935C3.23415 17.1935 3.23417 17.1935 3.2342 17.1935C3.23422 17.1935 3.23424 17.1935 3.23426 17.1935C3.23428 17.1935 3.2343 17.1935 3.23433 17.1935C3.23435 17.1935 3.23437 17.1935 3.23439 17.1935C3.23441 17.1935 3.23443 17.1935 3.23445 17.1935C3.23448 17.1935 3.2345 17.1935 3.23452 17.1935C3.23454 17.1935 3.23456 17.1935 3.23458 17.1935C3.23461 17.1935 3.23463 17.1935 3.23465 17.1935C3.23467 17.1935 3.23469 17.1935 3.23471 17.1935C3.23474 17.1935 3.23476 17.1935 3.23478 17.1935C3.2348 17.1935 3.23482 17.1935 3.23485 17.1935C3.23487 17.1935 3.23489 17.1935 3.23491 17.1935C3.23493 17.1935 3.23495 17.1935 3.23498 17.1935C3.235 17.1935 3.23502 17.1935 3.23504 17.1935C3.23506 17.1935 3.23508 17.1935 3.23511 17.1935C3.23513 17.1935 3.23515 17.1935 3.23517 17.1935C3.23519 17.1935 3.23522 17.1935 3.23524 17.1935C3.23526 17.1935 3.23528 17.1935 3.2353 17.1935C3.23532 17.1935 3.23535 17.1935 3.23537 17.1935C3.23539 17.1935 3.23541 17.1935 3.23543 17.1935C3.23546 17.1935 3.23548 17.1935 3.2355 17.1935C3.23552 17.1935 3.23554 17.1935 3.23557 17.1935C3.23559 17.1935 3.23561 17.1935 3.23563 17.1935C3.23565 17.1935 3.23567 17.1935 3.2357 17.1935C3.23572 17.1935 3.23574 17.1935 3.23576 17.1935C3.23578 17.1935 3.23581 17.1935 3.23583 17.1935C3.23585 17.1935 3.23587 17.1935 3.23589 17.1935C3.23592 17.1935 3.23594 17.1935 3.23596 17.1935C3.23598 17.1935 3.236 17.1935 3.23603 17.1935C3.23605 17.1935 3.23607 17.1935 3.23609 17.1935C3.23611 17.1935 3.23614 17.1935 3.23616 17.1935C3.23618 17.1935 3.2362 17.1935 3.23623 17.1935C3.23625 17.1935 3.23627 17.1935 3.23629 17.1935C3.23631 17.1935 3.23634 17.1935 3.23636 17.1935C3.23638 17.1935 3.2364 17.1935 3.23642 17.1935C3.23645 17.1935 3.23647 17.1935 3.23649 17.1935C3.23651 17.1935 3.23653 17.1935 3.23656 17.1935C3.23658 17.1935 3.2366 17.1935 3.23662 17.1935C3.23664 17.1935 3.23667 17.1935 3.23669 17.1935C3.23671 17.1935 3.23673 17.1935 3.23676 17.1935C3.23678 17.1935 3.2368 17.1935 3.23682 17.1935C3.23684 17.1935 3.23687 17.1935 3.23689 17.1935C3.23691 17.1935 3.23693 17.1935 3.23695 17.1935C3.23698 17.1935 3.237 17.1935 3.23702 17.1935C3.23704 17.1935 3.23707 17.1935 3.23709 17.1935C3.23711 17.1935 3.23713 17.1935 3.23715 17.1935C3.23718 17.1935 3.2372 17.1935 3.23722 17.1935C3.23724 17.1935 3.23727 17.1935 3.23729 17.1935C3.23731 17.1935 3.23733 17.1935 3.23735 17.1935C3.23738 17.1935 3.2374 17.1935 3.23742 17.1935C3.23744 17.1935 3.23747 17.1935 3.23749 17.1935C3.23751 17.1935 3.23753 17.1935 3.23756 17.1935C3.23758 17.1935 3.2376 17.1935 3.23762 17.1935C3.23764 17.1935 3.23767 17.1935 3.23769 17.1935C3.23771 17.1935 3.23773 17.1935 3.23776 17.1935C3.23778 17.1935 3.2378 17.1935 3.23782 17.1935C3.23784 17.1935 3.23787 17.1935 3.23789 17.1935C3.23791 17.1935 3.23793 17.1935 3.23796 17.1935C3.23798 17.1935 3.238 17.1935 3.23802 17.1935C3.23805 17.1935 3.23807 17.1935 3.23809 17.1935C3.23811 17.1935 3.23813 17.1935 3.23816 17.1935C3.23818 17.1935 3.2382 17.1935 3.23822 17.1935C3.23825 17.1935 3.23827 17.1935 3.23829 17.1935C3.23831 17.1935 3.23834 17.1935 3.23836 17.1935C3.23838 17.1935 3.2384 17.1935 3.23843 17.1935C3.23845 17.1935 3.23847 17.1935 3.23849 17.1935C3.23852 17.1935 3.23854 17.1935 3.23856 17.1935C3.23858 17.1935 3.2386 17.1935 3.23863 17.1935C3.23865 17.1935 3.23867 17.1935 3.23869 17.1935C3.23872 17.1935 3.23874 17.1935 3.23876 17.1935C3.23878 17.1935 3.23881 17.1935 3.23883 17.1935C3.23885 17.1935 3.23887 17.1935 3.2389 17.1935C3.23892 17.1935 3.23894 17.1935 3.23896 17.1935C3.23899 17.1935 3.23901 17.1935 3.23903 17.1935C3.23905 17.1935 3.23907 17.1935 3.2391 17.1935C3.23912 17.1935 3.23914 17.1935 3.23916 17.1935C3.23919 17.1935 3.23921 17.1935 3.23923 17.1935C3.23925 17.1935 3.23928 17.1935 3.2393 17.1935C3.23932 17.1935 3.23934 17.1935 3.23937 17.1935C3.23939 17.1935 3.23941 17.1935 3.23943 17.1935C3.23946 17.1935 3.23948 17.1935 3.2395 17.1935C3.23952 17.1935 3.23955 17.1935 3.23957 17.1935C3.23959 17.1935 3.23961 17.1935 3.23963 17.1935C3.23966 17.1935 3.23968 17.1935 3.2397 17.1935C3.23972 17.1935 3.23975 17.1935 3.23977 17.1935C3.23979 17.1935 3.23981 17.1935 3.23984 17.1935C3.23986 17.1935 3.23988 17.1935 3.2399 17.1935C3.23993 17.1935 3.23995 17.1935 3.23997 17.1935C3.23999 17.1935 3.24002 17.1935 3.24004 17.1935C3.24006 17.1935 3.24008 17.1935 3.24011 17.1935C3.24013 17.1935 3.24015 17.1935 3.24017 17.1935C3.2402 17.1935 3.24022 17.1935 3.24024 17.1935C3.24026 17.1935 3.24029 17.1935 3.24031 17.1935C3.24033 17.1935 3.24035 17.1935 3.24037 17.1935C3.2404 17.1935 3.24042 17.1935 3.24044 17.1935C3.24046 17.1935 3.24049 17.1935 3.24051 17.1935C3.24053 17.1935 3.24055 17.1935 3.24058 17.1935C3.2406 17.1935 3.24062 17.1935 3.24064 17.1935C3.24067 17.1935 3.24069 17.1935 3.24071 17.1935C3.24073 17.1935 3.24076 17.1935 3.24078 17.1935C3.2408 17.1935 3.24082 17.1935 3.24085 17.1935C3.24087 17.1935 3.24089 17.1935 3.24091 17.1935C3.24094 17.1935 3.24096 17.1935 3.24098 17.1935C3.241 17.1935 3.24102 17.1935 3.24105 17.1935C3.24107 17.1935 3.24109 17.1935 3.24111 17.1935C3.24114 17.1935 3.24116 17.1935 3.24118 17.1935C3.2412 17.1935 3.24123 17.1935 3.24125 17.1935C3.24127 17.1935 3.24129 17.1935 3.24132 17.1935C3.24134 17.1935 3.24136 17.1935 3.24138 17.1935C3.24141 17.1935 3.24143 17.1935 3.24145 17.1935C3.24147 17.1935 3.2415 17.1935 3.24152 17.1935C3.24154 17.1935 3.24156 17.1935 3.24158 17.1935C3.24161 17.1935 3.24163 17.1935 3.24165 17.1935C3.24167 17.1935 3.2417 17.1935 3.24172 17.1935C3.24174 17.1935 3.24176 17.1935 3.24179 17.1935C3.24181 17.1935 3.24183 17.1935 3.24185 17.1935C3.24188 17.1935 3.2419 17.1935 3.24192 17.1935C3.24194 17.1935 3.24196 17.1935 3.24199 17.1935C3.24201 17.1935 3.24203 17.1935 3.24205 17.1935C3.24208 17.1935 3.2421 17.1935 3.24212 17.1935C3.24214 17.1935 3.24217 17.1935 3.24219 17.1935C3.24221 17.1935 3.24223 17.1935 3.24225 17.1935C3.24228 17.1935 3.2423 17.1935 3.24232 17.1935C3.24234 17.1935 3.24237 17.1935 3.24239 17.1935C3.24241 17.1935 3.24243 17.1935 3.24246 17.1935C3.24248 17.1935 3.2425 17.1935 3.24252 17.1935C3.24254 17.1935 3.24257 17.1935 3.24259 17.1935C3.24261 17.1935 3.24263 17.1935 3.24266 17.1935C3.24268 17.1935 3.2427 17.1935 3.24272 17.1935C3.24274 17.1935 3.24277 17.1935 3.24279 17.1935C3.24281 17.1935 3.24283 17.1935 3.24286 17.1935C3.24288 17.1935 3.2429 17.1935 3.24292 17.1935C3.24294 17.1935 3.24297 17.1935 3.24299 17.1935C3.24301 17.1935 3.24303 17.1935 3.24306 17.1935C3.24308 17.1935 3.2431 17.1935 3.24312 17.1935C3.24314 17.1935 3.24317 17.1935 3.24319 17.1935C3.24321 17.1935 3.24323 17.1935 3.24326 17.1935C3.24328 17.1935 3.2433 17.1935 3.24332 17.1935C3.24334 17.1935 3.24337 17.1935 3.24339 17.1935C3.24341 17.1935 3.24343 17.1935 3.24345 17.1935C3.24348 17.1935 3.2435 17.1935 3.24352 17.1935C3.24354 17.1935 3.24357 17.1935 3.24359 17.1935C3.24361 17.1935 3.24363 17.1935 3.24365 17.1935C3.24368 17.1935 3.2437 17.1935 3.24372 17.1935C3.24374 17.1935 3.24376 17.1935 3.24379 17.1935C3.24381 17.1935 3.24383 17.1935 3.24385 17.1935C3.24387 17.1935 3.2439 17.1935 3.24392 17.1935C3.24394 17.1935 3.24396 17.1935 3.24398 17.1935C3.24401 17.1935 3.24403 17.1935 3.24405 17.1935C3.24407 17.1935 3.24409 17.1935 3.24412 17.1935C3.24414 17.1935 3.24416 17.1935 3.24418 17.1935C3.2442 17.1935 3.24423 17.1935 3.24425 17.1935C3.24427 17.1935 3.24429 17.1935 3.24431 17.1935C3.24434 17.1935 3.24436 17.1935 3.24438 17.1935C3.2444 17.1935 3.24442 17.1935 3.24445 17.1935C3.24447 17.1935 3.24449 17.1935 3.24451 17.1935C3.24453 17.1935 3.24456 17.1935 3.24458 17.1935C3.2446 17.1935 3.24462 17.1935 3.24464 17.1935C3.24467 17.1935 3.24469 17.1935 3.24471 17.1935C3.24473 17.1935 3.24475 17.1935 3.24477 17.1935C3.2448 17.1935 3.24482 17.1935 3.24484 17.1935C3.24486 17.1935 3.24488 17.1935 3.24491 17.1935C3.24493 17.1935 3.24495 17.1935 3.24497 17.1935C3.24499 17.1935 3.24501 17.1935 3.24504 17.1935C3.24506 17.1935 3.24508 17.1935 3.2451 17.1935C3.24512 17.1935 3.24514 17.1935 3.24517 17.1935C3.24519 17.1935 3.24521 17.1935 3.24523 17.1935C3.24525 17.1935 3.24528 17.1935 3.2453 17.1935C3.24532 17.1935 3.24534 17.1935 3.24536 17.1935C3.24538 17.1935 3.24541 17.1935 3.24543 17.1935C3.24545 17.1935 3.24547 17.1935 3.24549 17.1935C3.24551 17.1935 3.24554 17.1935 3.24556 17.1935C3.24558 17.1935 3.2456 17.1935 3.24562 17.1935C3.24564 17.1935 3.24567 17.1935 3.24569 17.1935C3.24571 17.1935 3.24573 17.1935 3.24575 17.1935C3.24577 17.1935 3.24579 17.1935 3.24582 17.1935C3.24584 17.1935 3.24586 17.1935 3.24588 17.1935C3.2459 17.1935 3.24592 17.1935 3.24595 17.1935C3.24597 17.1935 3.24599 17.1935 3.24601 17.1935C3.24603 17.1935 3.24605 17.1935 3.24607 17.1935C3.2461 17.1935 3.24612 17.1935 3.24614 17.1935C3.24616 17.1935 3.24618 17.1935 3.2462 17.1935C3.24622 17.1935 3.24625 17.1935 3.24627 17.1935C3.24629 17.1935 3.24631 17.1935 3.24633 17.1935C3.24635 17.1935 3.24637 17.1935 3.2464 17.1935C3.24642 17.1935 3.24644 17.1935 3.24646 17.1935C3.24648 17.1935 3.2465 17.1935 3.24652 17.1935C3.24655 17.1935 3.24657 17.1935 3.24659 17.1935C3.24661 17.1935 3.24663 17.1935 3.24665 17.1935C3.24667 17.1935 3.24669 17.1935 3.24672 17.1935C3.24674 17.1935 3.24676 17.1935 3.24678 17.1935C3.2468 17.1935 3.24682 17.1935 3.24684 17.1935C3.24686 17.1935 3.24689 17.1935 3.24691 17.1935C3.24693 17.1935 3.24695 17.1935 3.24697 17.1935C3.24699 17.1935 3.24701 17.1935 3.24703 17.1935C3.24706 17.1935 3.24708 17.1935 3.2471 17.1935C3.24712 17.1935 3.24714 17.1935 3.24716 17.1935C3.24718 17.1935 3.2472 17.1935 3.24722 17.1935C3.24725 17.1935 3.24727 17.1935 3.24729 17.1935C3.24731 17.1935 3.24733 17.1935 3.24735 17.1935C3.24737 17.1935 3.24739 17.1935 3.24741 17.1935C3.24743 17.1935 3.24746 17.1935 3.24748 17.1935C3.2475 17.1935 3.24752 17.1935 3.24754 17.1935C3.24756 17.1935 3.24758 17.1935 3.2476 17.1935C3.24762 17.1935 3.24764 17.1935 3.24766 17.1935C3.24769 17.1935 3.24771 17.1935 3.24773 17.1935C3.24775 17.1935 3.24777 17.1935 3.24779 17.1935C3.24781 17.1935 3.24783 17.1935 3.24785 17.1935C3.24787 17.1935 3.24789 17.1935 3.24791 17.1935C3.24794 17.1935 3.24796 17.1935 3.24798 17.1935C3.248 17.1935 3.24802 17.1935 3.24804 17.1935C3.24806 17.1935 3.24808 17.1935 3.2481 17.1935C3.24812 17.1935 3.24814 17.1935 3.24816 17.1935C3.24818 17.1935 3.2482 17.1935 3.24823 17.1935C3.24825 17.1935 3.24827 17.1935 3.24829 17.1935C3.24831 17.1935 3.24833 17.1935 3.24835 17.1935C3.24837 17.1935 3.24839 17.1935 3.24841 17.1935C3.24843 17.1935 3.24845 17.1935 3.24847 17.1935C3.24849 17.1935 3.24851 17.1935 3.24853 17.1935C3.24855 17.1935 3.24857 17.1935 3.2486 17.1935C3.24862 17.1935 3.24864 17.1935 3.24866 17.1935C3.24868 17.1935 3.2487 17.1935 3.24872 17.1935C3.24874 17.1935 3.24876 17.1935 3.24878 17.1935C3.2488 17.1935 3.24882 17.1935 3.24884 17.1935C3.24886 17.1935 3.24888 17.1935 3.2489 17.1935C3.24892 17.1935 3.24894 17.1935 3.24896 17.1935C3.24898 17.1935 3.249 17.1935 3.24902 17.1935C3.24904 17.1935 3.24906 17.1935 3.24908 17.1935C3.2491 17.1935 3.24912 17.1935 3.24914 17.1935C3.24916 17.1935 3.24918 17.1935 3.2492 17.1935C3.24922 17.1935 3.24925 17.1935 3.24927 17.1935C3.24929 17.1935 3.24931 17.1935 3.24933 17.1935C3.24935 17.1935 3.24937 17.1935 3.24939 17.1935C3.24941 17.1935 3.24943 17.1935 3.24945 17.1935C3.24947 17.1935 3.24949 17.1935 3.24951 17.1935C3.24953 17.1935 3.24955 17.1935 3.24957 17.1935C3.24959 17.1935 3.24961 17.1935 3.24963 17.1935C3.24965 17.1935 3.24967 17.1935 3.24969 17.1935C3.24971 17.1935 3.24973 17.1935 3.24975 17.1935C3.24976 17.1935 3.24978 17.1935 3.2498 17.1935C3.24982 17.1935 3.24984 17.1935 3.24986 17.1935C3.24988 17.1935 3.2499 17.1935 3.24992 17.1935C3.24994 17.1935 3.24996 17.1935 3.24998 17.1935C3.25 17.1935 3.25002 17.1935 3.25004 17.1935C3.25006 17.1935 3.25008 17.1935 3.2501 17.1935C3.25012 17.1935 3.25014 17.1935 3.25016 17.1935C3.25018 17.1935 3.2502 17.1935 3.25022 17.1935C3.25024 17.1935 3.25026 17.1935 3.25028 17.1935C3.2503 17.1935 3.25032 17.1935 3.25034 17.1935C3.25036 17.1935 3.25037 17.1935 3.25039 17.1935C3.25041 17.1935 3.25043 17.1935 3.25045 17.1935C3.25047 17.1935 3.25049 17.1935 3.25051 17.1935C3.25053 17.1935 3.25055 17.1935 3.25057 17.1935C3.25059 17.1935 3.25061 17.1935 3.25063 17.1935C3.25065 17.1935 3.25067 17.1935 3.25068 17.1935C3.2507 17.1935 3.25072 17.1935 3.25074 17.1935C3.25076 17.1935 3.25078 17.1935 3.2508 17.1935C3.25082 17.1935 3.25084 17.1935 3.25086 17.1935C3.25088 17.1935 3.2509 17.1935 3.25092 17.1935C3.25093 17.1935 3.25095 17.1935 3.25097 17.1935C3.25099 17.1935 3.25101 17.1935 3.25103 17.1935C3.25105 17.1935 3.25107 17.1935 3.25109 17.1935C3.25111 17.1935 3.25112 17.1935 3.25114 17.1935C3.25116 17.1935 3.25118 17.1935 3.2512 17.1935C3.25122 17.1935 3.25124 17.1935 3.25126 17.1935C3.25128 17.1935 3.2513 17.1935 3.25131 17.1935C3.25133 17.1935 3.25135 17.1935 3.25137 17.1935C3.25139 17.1935 3.25141 17.1935 3.25143 17.1935C3.25145 17.1935 3.25146 17.1935 3.25148 17.1935C3.2515 17.1935 3.25152 17.1935 3.25154 17.1935C3.25156 17.1935 3.25158 17.1935 3.2516 17.1935C3.25161 17.1935 3.25163 17.1935 3.25165 17.1935C3.25167 17.1935 3.25169 17.1935 3.25171 17.1935C3.25173 17.1935 3.25174 17.1935 3.25176 17.1935C3.25178 17.1935 3.2518 17.1935 3.25182 17.1935C3.25184 17.1935 3.25185 17.1935 3.25187 17.1935C3.25189 17.1935 3.25191 17.1935 3.25193 17.1935C3.25195 17.1935 3.25197 17.1935 3.25198 17.1935C3.252 17.1935 3.25202 17.1935 3.25204 17.1935C3.25206 17.1935 3.25208 17.1935 3.25209 17.1935C3.25211 17.1935 3.25213 17.1935 3.25215 17.1935C3.25217 17.1935 3.25218 17.1935 3.2522 17.1935C3.25222 17.1935 3.25224 17.1935 3.25226 17.1935C3.25228 17.1935 3.25229 17.1935 3.25231 17.1935C3.25233 17.1935 3.25235 17.1935 3.25237 17.1935C3.25238 17.1935 3.2524 17.1935 3.25242 17.1935C3.25244 17.1935 3.25246 17.1935 3.25247 17.1935C3.25249 17.1935 3.25251 17.1935 3.25253 17.1935C3.25255 17.1935 3.25256 17.1935 3.25258 17.1935C3.2526 17.1935 3.25262 17.1935 3.25263 17.1935C3.25265 17.1935 3.25267 17.1935 3.25269 17.1935C3.25271 17.1935 3.25272 17.1935 3.25274 17.1935C3.25276 17.1935 3.25278 17.1935 3.25279 17.1935C3.25281 17.1935 3.25283 17.1935 3.25285 17.1935C3.25287 17.1935 3.25288 17.1935 3.2529 17.1935C3.25292 17.1935 3.25294 17.1935 3.25295 17.1935C3.25297 17.1935 3.25299 17.1935 3.25301 17.1935C3.25302 17.1935 3.25304 17.1935 3.25306 17.1935C3.25308 17.1935 3.25309 17.1935 3.25311 17.1935C3.25313 17.1935 3.25314 17.1935 3.25316 17.1935C3.25318 17.1935 3.2532 17.1935 3.25321 17.1935C3.25323 17.1935 3.25325 17.1935 3.25327 17.1935C3.25328 17.1935 3.2533 17.1935 3.25332 17.1935C3.25333 17.1935 3.25335 17.1935 3.25337 17.1935C3.25339 17.1935 3.2534 17.1935 3.25342 17.1935C3.25344 17.1935 3.25345 17.1935 3.25347 17.1935C3.25349 17.1935 3.25351 17.1935 3.25352 17.1935C3.25354 17.1935 3.25356 17.1935 3.25357 17.1935C3.25359 17.1935 3.25361 17.1935 3.25362 17.1935C3.25364 17.1935 3.25366 17.1935 3.25368 17.1935C3.25369 17.1935 3.25371 17.1935 3.25373 17.1935C3.25374 17.1935 3.25376 17.1935 3.25378 17.1935C3.25379 17.1935 3.25381 17.1935 3.25383 17.1935C3.25384 17.1935 3.25386 17.1935 3.25388 17.1935C3.25389 17.1935 3.25391 17.1935 3.25393 17.1935C3.25394 17.1935 3.25396 17.1935 3.25398 17.1935C3.25399 17.1935 3.25401 17.1935 3.25403 17.1935C3.25404 17.1935 3.25406 17.1935 3.25408 17.1935C3.25409 17.1935 3.25411 17.1935 3.25412 17.1935C3.25414 17.1935 3.25416 17.1935 3.25417 17.1935C3.25419 17.1935 3.25421 17.1935 3.25422 17.1935C3.25424 17.1935 3.25425 17.1935 3.25427 17.1935C3.25429 17.1935 3.2543 17.1935 3.25432 17.1935C3.25434 17.1935 3.25435 17.1935 3.25437 17.1935C3.25438 17.1935 3.2544 17.1935 3.25442 17.1935C3.25443 17.1935 3.25445 17.1935 3.25446 17.1935C3.25448 17.1935 3.2545 17.1935 3.25451 17.1935C3.25453 17.1935 3.25454 17.1935 3.25456 17.1935C3.25458 17.1935 3.25459 17.1935 3.25461 17.1935C3.25462 17.1935 3.25464 17.1935 3.25466 17.1935C3.25467 17.1935 3.25469 17.1935 3.2547 17.1935C3.25472 17.1935 3.25473 17.1935 3.25475 17.1935C3.25477 17.1935 3.25478 17.1935 3.2548 17.1935C3.25481 17.1935 3.25483 17.1935 3.25484 17.1935C3.25486 17.1935 3.25487 17.1935 3.25489 17.1935C3.25491 17.1935 3.25492 17.1935 3.25494 17.1935C3.25495 17.1935 3.25497 17.1935 3.25498 17.1935C3.255 17.1935 3.25501 17.1935 3.25503 17.1935C3.25504 17.1935 3.25506 17.1935 3.25508 17.1935C3.25509 17.1935 3.25511 17.1935 3.25512 17.1935C3.25514 17.1935 3.25515 17.1935 3.25517 17.1935C3.25518 17.1935 3.2552 17.1935 3.25521 17.1935C3.25523 17.1935 3.25524 17.1935 3.25526 17.1935C3.25527 17.1935 3.25529 17.1935 3.2553 17.1935C3.25532 17.1935 3.25533 17.1935 3.25535 17.1935V17.0809V16.9684C3.25533 16.9684 3.25532 16.9684 3.2553 16.9684C3.25529 16.9684 3.25527 16.9684 3.25526 16.9684C3.25524 16.9684 3.25523 16.9684 3.25521 16.9684C3.2552 16.9684 3.25518 16.9684 3.25517 16.9684C3.25515 16.9684 3.25514 16.9684 3.25512 16.9684C3.25511 16.9684 3.25509 16.9684 3.25508 16.9684C3.25506 16.9684 3.25504 16.9684 3.25503 16.9684C3.25501 16.9684 3.255 16.9684 3.25498 16.9684C3.25497 16.9684 3.25495 16.9684 3.25494 16.9684C3.25492 16.9684 3.25491 16.9684 3.25489 16.9684C3.25487 16.9684 3.25486 16.9684 3.25484 16.9684C3.25483 16.9684 3.25481 16.9684 3.2548 16.9684C3.25478 16.9684 3.25477 16.9684 3.25475 16.9684C3.25473 16.9684 3.25472 16.9684 3.2547 16.9684C3.25469 16.9684 3.25467 16.9684 3.25466 16.9684C3.25464 16.9684 3.25462 16.9684 3.25461 16.9684C3.25459 16.9684 3.25458 16.9684 3.25456 16.9684C3.25454 16.9684 3.25453 16.9684 3.25451 16.9684C3.2545 16.9684 3.25448 16.9684 3.25446 16.9684C3.25445 16.9684 3.25443 16.9684 3.25442 16.9684C3.2544 16.9684 3.25438 16.9684 3.25437 16.9684C3.25435 16.9684 3.25434 16.9684 3.25432 16.9684C3.2543 16.9684 3.25429 16.9684 3.25427 16.9684C3.25425 16.9684 3.25424 16.9684 3.25422 16.9684C3.25421 16.9684 3.25419 16.9684 3.25417 16.9684C3.25416 16.9684 3.25414 16.9684 3.25412 16.9684C3.25411 16.9684 3.25409 16.9684 3.25408 16.9684C3.25406 16.9684 3.25404 16.9684 3.25403 16.9684C3.25401 16.9684 3.25399 16.9684 3.25398 16.9684C3.25396 16.9684 3.25394 16.9684 3.25393 16.9684C3.25391 16.9684 3.25389 16.9684 3.25388 16.9684C3.25386 16.9684 3.25384 16.9684 3.25383 16.9684C3.25381 16.9684 3.25379 16.9684 3.25378 16.9684C3.25376 16.9684 3.25374 16.9684 3.25373 16.9684C3.25371 16.9684 3.25369 16.9684 3.25368 16.9684C3.25366 16.9684 3.25364 16.9684 3.25362 16.9684C3.25361 16.9684 3.25359 16.9684 3.25357 16.9684C3.25356 16.9684 3.25354 16.9684 3.25352 16.9684C3.25351 16.9684 3.25349 16.9684 3.25347 16.9684C3.25345 16.9684 3.25344 16.9684 3.25342 16.9684C3.2534 16.9684 3.25339 16.9684 3.25337 16.9684C3.25335 16.9684 3.25333 16.9684 3.25332 16.9684C3.2533 16.9684 3.25328 16.9684 3.25327 16.9684C3.25325 16.9684 3.25323 16.9684 3.25321 16.9684C3.2532 16.9684 3.25318 16.9684 3.25316 16.9684C3.25314 16.9684 3.25313 16.9684 3.25311 16.9684C3.25309 16.9684 3.25308 16.9684 3.25306 16.9684C3.25304 16.9684 3.25302 16.9684 3.25301 16.9684C3.25299 16.9684 3.25297 16.9684 3.25295 16.9684C3.25294 16.9684 3.25292 16.9684 3.2529 16.9684C3.25288 16.9684 3.25287 16.9684 3.25285 16.9684C3.25283 16.9684 3.25281 16.9684 3.25279 16.9684C3.25278 16.9684 3.25276 16.9684 3.25274 16.9684C3.25272 16.9684 3.25271 16.9684 3.25269 16.9684C3.25267 16.9684 3.25265 16.9684 3.25263 16.9684C3.25262 16.9684 3.2526 16.9684 3.25258 16.9684C3.25256 16.9684 3.25255 16.9684 3.25253 16.9684C3.25251 16.9684 3.25249 16.9684 3.25247 16.9684C3.25246 16.9684 3.25244 16.9684 3.25242 16.9684C3.2524 16.9684 3.25238 16.9684 3.25237 16.9684C3.25235 16.9684 3.25233 16.9684 3.25231 16.9684C3.25229 16.9684 3.25228 16.9684 3.25226 16.9684C3.25224 16.9684 3.25222 16.9684 3.2522 16.9684C3.25218 16.9684 3.25217 16.9684 3.25215 16.9684C3.25213 16.9684 3.25211 16.9684 3.25209 16.9684C3.25208 16.9684 3.25206 16.9684 3.25204 16.9684C3.25202 16.9684 3.252 16.9684 3.25198 16.9684C3.25197 16.9684 3.25195 16.9684 3.25193 16.9684C3.25191 16.9684 3.25189 16.9684 3.25187 16.9684C3.25185 16.9684 3.25184 16.9684 3.25182 16.9684C3.2518 16.9684 3.25178 16.9684 3.25176 16.9684C3.25174 16.9684 3.25173 16.9684 3.25171 16.9684C3.25169 16.9684 3.25167 16.9684 3.25165 16.9684C3.25163 16.9684 3.25161 16.9684 3.2516 16.9684C3.25158 16.9684 3.25156 16.9684 3.25154 16.9684C3.25152 16.9684 3.2515 16.9684 3.25148 16.9684C3.25146 16.9684 3.25145 16.9684 3.25143 16.9684C3.25141 16.9684 3.25139 16.9684 3.25137 16.9684C3.25135 16.9684 3.25133 16.9684 3.25131 16.9684C3.2513 16.9684 3.25128 16.9684 3.25126 16.9684C3.25124 16.9684 3.25122 16.9684 3.2512 16.9684C3.25118 16.9684 3.25116 16.9684 3.25114 16.9684C3.25112 16.9684 3.25111 16.9684 3.25109 16.9684C3.25107 16.9684 3.25105 16.9684 3.25103 16.9684C3.25101 16.9684 3.25099 16.9684 3.25097 16.9684C3.25095 16.9684 3.25093 16.9684 3.25092 16.9684C3.2509 16.9684 3.25088 16.9684 3.25086 16.9684C3.25084 16.9684 3.25082 16.9684 3.2508 16.9684C3.25078 16.9684 3.25076 16.9684 3.25074 16.9684C3.25072 16.9684 3.2507 16.9684 3.25068 16.9684C3.25067 16.9684 3.25065 16.9684 3.25063 16.9684C3.25061 16.9684 3.25059 16.9684 3.25057 16.9684C3.25055 16.9684 3.25053 16.9684 3.25051 16.9684C3.25049 16.9684 3.25047 16.9684 3.25045 16.9684C3.25043 16.9684 3.25041 16.9684 3.25039 16.9684C3.25037 16.9684 3.25036 16.9684 3.25034 16.9684C3.25032 16.9684 3.2503 16.9684 3.25028 16.9684C3.25026 16.9684 3.25024 16.9684 3.25022 16.9684C3.2502 16.9684 3.25018 16.9684 3.25016 16.9684C3.25014 16.9684 3.25012 16.9684 3.2501 16.9684C3.25008 16.9684 3.25006 16.9684 3.25004 16.9684C3.25002 16.9684 3.25 16.9684 3.24998 16.9684C3.24996 16.9684 3.24994 16.9684 3.24992 16.9684C3.2499 16.9684 3.24988 16.9684 3.24986 16.9684C3.24984 16.9684 3.24982 16.9684 3.2498 16.9684C3.24978 16.9684 3.24976 16.9684 3.24975 16.9684C3.24973 16.9684 3.24971 16.9684 3.24969 16.9684C3.24967 16.9684 3.24965 16.9684 3.24963 16.9684C3.24961 16.9684 3.24959 16.9684 3.24957 16.9684C3.24955 16.9684 3.24953 16.9684 3.24951 16.9684C3.24949 16.9684 3.24947 16.9684 3.24945 16.9684C3.24943 16.9684 3.24941 16.9684 3.24939 16.9684C3.24937 16.9684 3.24935 16.9684 3.24933 16.9684C3.24931 16.9684 3.24929 16.9684 3.24927 16.9684C3.24925 16.9684 3.24922 16.9684 3.2492 16.9684C3.24918 16.9684 3.24916 16.9684 3.24914 16.9684C3.24912 16.9684 3.2491 16.9684 3.24908 16.9684C3.24906 16.9684 3.24904 16.9684 3.24902 16.9684C3.249 16.9684 3.24898 16.9684 3.24896 16.9684C3.24894 16.9684 3.24892 16.9684 3.2489 16.9684C3.24888 16.9684 3.24886 16.9684 3.24884 16.9684C3.24882 16.9684 3.2488 16.9684 3.24878 16.9684C3.24876 16.9684 3.24874 16.9684 3.24872 16.9684C3.2487 16.9684 3.24868 16.9684 3.24866 16.9684C3.24864 16.9684 3.24862 16.9684 3.2486 16.9684C3.24857 16.9684 3.24855 16.9684 3.24853 16.9684C3.24851 16.9684 3.24849 16.9684 3.24847 16.9684C3.24845 16.9684 3.24843 16.9684 3.24841 16.9684C3.24839 16.9684 3.24837 16.9684 3.24835 16.9684C3.24833 16.9684 3.24831 16.9684 3.24829 16.9684C3.24827 16.9684 3.24825 16.9684 3.24823 16.9684C3.2482 16.9684 3.24818 16.9684 3.24816 16.9684C3.24814 16.9684 3.24812 16.9684 3.2481 16.9684C3.24808 16.9684 3.24806 16.9684 3.24804 16.9684C3.24802 16.9684 3.248 16.9684 3.24798 16.9684C3.24796 16.9684 3.24794 16.9684 3.24791 16.9684C3.24789 16.9684 3.24787 16.9684 3.24785 16.9684C3.24783 16.9684 3.24781 16.9684 3.24779 16.9684C3.24777 16.9684 3.24775 16.9684 3.24773 16.9684C3.24771 16.9684 3.24769 16.9684 3.24766 16.9684C3.24764 16.9684 3.24762 16.9684 3.2476 16.9684C3.24758 16.9684 3.24756 16.9684 3.24754 16.9684C3.24752 16.9684 3.2475 16.9684 3.24748 16.9684C3.24746 16.9684 3.24743 16.9684 3.24741 16.9684C3.24739 16.9684 3.24737 16.9684 3.24735 16.9684C3.24733 16.9684 3.24731 16.9684 3.24729 16.9684C3.24727 16.9684 3.24725 16.9684 3.24722 16.9684C3.2472 16.9684 3.24718 16.9684 3.24716 16.9684C3.24714 16.9684 3.24712 16.9684 3.2471 16.9684C3.24708 16.9684 3.24706 16.9684 3.24703 16.9684C3.24701 16.9684 3.24699 16.9684 3.24697 16.9684C3.24695 16.9684 3.24693 16.9684 3.24691 16.9684C3.24689 16.9684 3.24686 16.9684 3.24684 16.9684C3.24682 16.9684 3.2468 16.9684 3.24678 16.9684C3.24676 16.9684 3.24674 16.9684 3.24672 16.9684C3.24669 16.9684 3.24667 16.9684 3.24665 16.9684C3.24663 16.9684 3.24661 16.9684 3.24659 16.9684C3.24657 16.9684 3.24655 16.9684 3.24652 16.9684C3.2465 16.9684 3.24648 16.9684 3.24646 16.9684C3.24644 16.9684 3.24642 16.9684 3.2464 16.9684C3.24637 16.9684 3.24635 16.9684 3.24633 16.9684C3.24631 16.9684 3.24629 16.9684 3.24627 16.9684C3.24625 16.9684 3.24622 16.9684 3.2462 16.9684C3.24618 16.9684 3.24616 16.9684 3.24614 16.9684C3.24612 16.9684 3.2461 16.9684 3.24607 16.9684C3.24605 16.9684 3.24603 16.9684 3.24601 16.9684C3.24599 16.9684 3.24597 16.9684 3.24595 16.9684C3.24592 16.9684 3.2459 16.9684 3.24588 16.9684C3.24586 16.9684 3.24584 16.9684 3.24582 16.9684C3.24579 16.9684 3.24577 16.9684 3.24575 16.9684C3.24573 16.9684 3.24571 16.9684 3.24569 16.9684C3.24567 16.9684 3.24564 16.9684 3.24562 16.9684C3.2456 16.9684 3.24558 16.9684 3.24556 16.9684C3.24554 16.9684 3.24551 16.9684 3.24549 16.9684C3.24547 16.9684 3.24545 16.9684 3.24543 16.9684C3.24541 16.9684 3.24538 16.9684 3.24536 16.9684C3.24534 16.9684 3.24532 16.9684 3.2453 16.9684C3.24528 16.9684 3.24525 16.9684 3.24523 16.9684C3.24521 16.9684 3.24519 16.9684 3.24517 16.9684C3.24514 16.9684 3.24512 16.9684 3.2451 16.9684C3.24508 16.9684 3.24506 16.9684 3.24504 16.9684C3.24501 16.9684 3.24499 16.9684 3.24497 16.9684C3.24495 16.9684 3.24493 16.9684 3.24491 16.9684C3.24488 16.9684 3.24486 16.9684 3.24484 16.9684C3.24482 16.9684 3.2448 16.9684 3.24477 16.9684C3.24475 16.9684 3.24473 16.9684 3.24471 16.9684C3.24469 16.9684 3.24467 16.9684 3.24464 16.9684C3.24462 16.9684 3.2446 16.9684 3.24458 16.9684C3.24456 16.9684 3.24453 16.9684 3.24451 16.9684C3.24449 16.9684 3.24447 16.9684 3.24445 16.9684C3.24442 16.9684 3.2444 16.9684 3.24438 16.9684C3.24436 16.9684 3.24434 16.9684 3.24431 16.9684C3.24429 16.9684 3.24427 16.9684 3.24425 16.9684C3.24423 16.9684 3.2442 16.9684 3.24418 16.9684C3.24416 16.9684 3.24414 16.9684 3.24412 16.9684C3.24409 16.9684 3.24407 16.9684 3.24405 16.9684C3.24403 16.9684 3.24401 16.9684 3.24398 16.9684C3.24396 16.9684 3.24394 16.9684 3.24392 16.9684C3.2439 16.9684 3.24387 16.9684 3.24385 16.9684C3.24383 16.9684 3.24381 16.9684 3.24379 16.9684C3.24376 16.9684 3.24374 16.9684 3.24372 16.9684C3.2437 16.9684 3.24368 16.9684 3.24365 16.9684C3.24363 16.9684 3.24361 16.9684 3.24359 16.9684C3.24357 16.9684 3.24354 16.9684 3.24352 16.9684C3.2435 16.9684 3.24348 16.9684 3.24345 16.9684C3.24343 16.9684 3.24341 16.9684 3.24339 16.9684C3.24337 16.9684 3.24334 16.9684 3.24332 16.9684C3.2433 16.9684 3.24328 16.9684 3.24326 16.9684C3.24323 16.9684 3.24321 16.9684 3.24319 16.9684C3.24317 16.9684 3.24314 16.9684 3.24312 16.9684C3.2431 16.9684 3.24308 16.9684 3.24306 16.9684C3.24303 16.9684 3.24301 16.9684 3.24299 16.9684C3.24297 16.9684 3.24294 16.9684 3.24292 16.9684C3.2429 16.9684 3.24288 16.9684 3.24286 16.9684C3.24283 16.9684 3.24281 16.9684 3.24279 16.9684C3.24277 16.9684 3.24274 16.9684 3.24272 16.9684C3.2427 16.9684 3.24268 16.9684 3.24266 16.9684C3.24263 16.9684 3.24261 16.9684 3.24259 16.9684C3.24257 16.9684 3.24254 16.9684 3.24252 16.9684C3.2425 16.9684 3.24248 16.9684 3.24246 16.9684C3.24243 16.9684 3.24241 16.9684 3.24239 16.9684C3.24237 16.9684 3.24234 16.9684 3.24232 16.9684C3.2423 16.9684 3.24228 16.9684 3.24225 16.9684C3.24223 16.9684 3.24221 16.9684 3.24219 16.9684C3.24217 16.9684 3.24214 16.9684 3.24212 16.9684C3.2421 16.9684 3.24208 16.9684 3.24205 16.9684C3.24203 16.9684 3.24201 16.9684 3.24199 16.9684C3.24196 16.9684 3.24194 16.9684 3.24192 16.9684C3.2419 16.9684 3.24188 16.9684 3.24185 16.9684C3.24183 16.9684 3.24181 16.9684 3.24179 16.9684C3.24176 16.9684 3.24174 16.9684 3.24172 16.9684C3.2417 16.9684 3.24167 16.9684 3.24165 16.9684C3.24163 16.9684 3.24161 16.9684 3.24158 16.9684C3.24156 16.9684 3.24154 16.9684 3.24152 16.9684C3.2415 16.9684 3.24147 16.9684 3.24145 16.9684C3.24143 16.9684 3.24141 16.9684 3.24138 16.9684C3.24136 16.9684 3.24134 16.9684 3.24132 16.9684C3.24129 16.9684 3.24127 16.9684 3.24125 16.9684C3.24123 16.9684 3.2412 16.9684 3.24118 16.9684C3.24116 16.9684 3.24114 16.9684 3.24111 16.9684C3.24109 16.9684 3.24107 16.9684 3.24105 16.9684C3.24102 16.9684 3.241 16.9684 3.24098 16.9684C3.24096 16.9684 3.24094 16.9684 3.24091 16.9684C3.24089 16.9684 3.24087 16.9684 3.24085 16.9684C3.24082 16.9684 3.2408 16.9684 3.24078 16.9684C3.24076 16.9684 3.24073 16.9684 3.24071 16.9684C3.24069 16.9684 3.24067 16.9684 3.24064 16.9684C3.24062 16.9684 3.2406 16.9684 3.24058 16.9684C3.24055 16.9684 3.24053 16.9684 3.24051 16.9684C3.24049 16.9684 3.24046 16.9684 3.24044 16.9684C3.24042 16.9684 3.2404 16.9684 3.24037 16.9684C3.24035 16.9684 3.24033 16.9684 3.24031 16.9684C3.24029 16.9684 3.24026 16.9684 3.24024 16.9684C3.24022 16.9684 3.2402 16.9684 3.24017 16.9684C3.24015 16.9684 3.24013 16.9684 3.24011 16.9684C3.24008 16.9684 3.24006 16.9684 3.24004 16.9684C3.24002 16.9684 3.23999 16.9684 3.23997 16.9684C3.23995 16.9684 3.23993 16.9684 3.2399 16.9684C3.23988 16.9684 3.23986 16.9684 3.23984 16.9684C3.23981 16.9684 3.23979 16.9684 3.23977 16.9684C3.23975 16.9684 3.23972 16.9684 3.2397 16.9684C3.23968 16.9684 3.23966 16.9684 3.23963 16.9684C3.23961 16.9684 3.23959 16.9684 3.23957 16.9684C3.23955 16.9684 3.23952 16.9684 3.2395 16.9684C3.23948 16.9684 3.23946 16.9684 3.23943 16.9684C3.23941 16.9684 3.23939 16.9684 3.23937 16.9684C3.23934 16.9684 3.23932 16.9684 3.2393 16.9684C3.23928 16.9684 3.23925 16.9684 3.23923 16.9684C3.23921 16.9684 3.23919 16.9684 3.23916 16.9684C3.23914 16.9684 3.23912 16.9684 3.2391 16.9684C3.23907 16.9684 3.23905 16.9684 3.23903 16.9684C3.23901 16.9684 3.23899 16.9684 3.23896 16.9684C3.23894 16.9684 3.23892 16.9684 3.2389 16.9684C3.23887 16.9684 3.23885 16.9684 3.23883 16.9684C3.23881 16.9684 3.23878 16.9684 3.23876 16.9684C3.23874 16.9684 3.23872 16.9684 3.23869 16.9684C3.23867 16.9684 3.23865 16.9684 3.23863 16.9684C3.2386 16.9684 3.23858 16.9684 3.23856 16.9684C3.23854 16.9684 3.23852 16.9684 3.23849 16.9684C3.23847 16.9684 3.23845 16.9684 3.23843 16.9684C3.2384 16.9684 3.23838 16.9684 3.23836 16.9684C3.23834 16.9684 3.23831 16.9684 3.23829 16.9684C3.23827 16.9684 3.23825 16.9684 3.23822 16.9684C3.2382 16.9684 3.23818 16.9684 3.23816 16.9684C3.23813 16.9684 3.23811 16.9684 3.23809 16.9684C3.23807 16.9684 3.23805 16.9684 3.23802 16.9684C3.238 16.9684 3.23798 16.9684 3.23796 16.9684C3.23793 16.9684 3.23791 16.9684 3.23789 16.9684C3.23787 16.9684 3.23784 16.9684 3.23782 16.9684C3.2378 16.9684 3.23778 16.9684 3.23776 16.9684C3.23773 16.9684 3.23771 16.9684 3.23769 16.9684C3.23767 16.9684 3.23764 16.9684 3.23762 16.9684C3.2376 16.9684 3.23758 16.9684 3.23756 16.9684C3.23753 16.9684 3.23751 16.9684 3.23749 16.9684C3.23747 16.9684 3.23744 16.9684 3.23742 16.9684C3.2374 16.9684 3.23738 16.9684 3.23735 16.9684C3.23733 16.9684 3.23731 16.9684 3.23729 16.9684C3.23727 16.9684 3.23724 16.9684 3.23722 16.9684C3.2372 16.9684 3.23718 16.9684 3.23715 16.9684C3.23713 16.9684 3.23711 16.9684 3.23709 16.9684C3.23707 16.9684 3.23704 16.9684 3.23702 16.9684C3.237 16.9684 3.23698 16.9684 3.23695 16.9684C3.23693 16.9684 3.23691 16.9684 3.23689 16.9684C3.23687 16.9684 3.23684 16.9684 3.23682 16.9684C3.2368 16.9684 3.23678 16.9684 3.23676 16.9684C3.23673 16.9684 3.23671 16.9684 3.23669 16.9684C3.23667 16.9684 3.23664 16.9684 3.23662 16.9684C3.2366 16.9684 3.23658 16.9684 3.23656 16.9684C3.23653 16.9684 3.23651 16.9684 3.23649 16.9684C3.23647 16.9684 3.23645 16.9684 3.23642 16.9684C3.2364 16.9684 3.23638 16.9684 3.23636 16.9684C3.23634 16.9684 3.23631 16.9684 3.23629 16.9684C3.23627 16.9684 3.23625 16.9684 3.23623 16.9684C3.2362 16.9684 3.23618 16.9684 3.23616 16.9684C3.23614 16.9684 3.23611 16.9684 3.23609 16.9684C3.23607 16.9684 3.23605 16.9684 3.23603 16.9684C3.236 16.9684 3.23598 16.9684 3.23596 16.9684C3.23594 16.9684 3.23592 16.9684 3.23589 16.9684C3.23587 16.9684 3.23585 16.9684 3.23583 16.9684C3.23581 16.9684 3.23578 16.9684 3.23576 16.9684C3.23574 16.9684 3.23572 16.9684 3.2357 16.9684C3.23567 16.9684 3.23565 16.9684 3.23563 16.9684C3.23561 16.9684 3.23559 16.9684 3.23557 16.9684C3.23554 16.9684 3.23552 16.9684 3.2355 16.9684C3.23548 16.9684 3.23546 16.9684 3.23543 16.9684C3.23541 16.9684 3.23539 16.9684 3.23537 16.9684C3.23535 16.9684 3.23532 16.9684 3.2353 16.9684C3.23528 16.9684 3.23526 16.9684 3.23524 16.9684C3.23522 16.9684 3.23519 16.9684 3.23517 16.9684C3.23515 16.9684 3.23513 16.9684 3.23511 16.9684C3.23508 16.9684 3.23506 16.9684 3.23504 16.9684C3.23502 16.9684 3.235 16.9684 3.23498 16.9684C3.23495 16.9684 3.23493 16.9684 3.23491 16.9684C3.23489 16.9684 3.23487 16.9684 3.23485 16.9684C3.23482 16.9684 3.2348 16.9684 3.23478 16.9684C3.23476 16.9684 3.23474 16.9684 3.23471 16.9684C3.23469 16.9684 3.23467 16.9684 3.23465 16.9684C3.23463 16.9684 3.23461 16.9684 3.23458 16.9684C3.23456 16.9684 3.23454 16.9684 3.23452 16.9684C3.2345 16.9684 3.23448 16.9684 3.23445 16.9684C3.23443 16.9684 3.23441 16.9684 3.23439 16.9684C3.23437 16.9684 3.23435 16.9684 3.23433 16.9684C3.2343 16.9684 3.23428 16.9684 3.23426 16.9684C3.23424 16.9684 3.23422 16.9684 3.2342 16.9684C3.23417 16.9684 3.23415 16.9684 3.23413 16.9684C3.23411 16.9684 3.23409 16.9684 3.23407 16.9684C3.23405 16.9684 3.23402 16.9684 3.234 16.9684C3.23398 16.9684 3.23396 16.9684 3.23394 16.9684C3.23392 16.9684 3.2339 16.9684 3.23387 16.9684C3.23385 16.9684 3.23383 16.9684 3.23381 16.9684C3.23379 16.9684 3.23377 16.9684 3.23375 16.9684C3.23372 16.9684 3.2337 16.9684 3.23368 16.9684C3.23366 16.9684 3.23364 16.9684 3.23362 16.9684C3.2336 16.9684 3.23357 16.9684 3.23355 16.9684C3.23353 16.9684 3.23351 16.9684 3.23349 16.9684C3.23347 16.9684 3.23345 16.9684 3.23343 16.9684C3.2334 16.9684 3.23338 16.9684 3.23336 16.9684C3.23334 16.9684 3.23332 16.9684 3.2333 16.9684C3.23328 16.9684 3.23326 16.9684 3.23323 16.9684C3.23321 16.9684 3.23319 16.9684 3.23317 16.9684C3.23315 16.9684 3.23313 16.9684 3.23311 16.9684C3.23309 16.9684 3.23306 16.9684 3.23304 16.9684C3.23302 16.9684 3.233 16.9684 3.23298 16.9684C3.23296 16.9684 3.23294 16.9684 3.23292 16.9684C3.2329 16.9684 3.23287 16.9684 3.23285 16.9684C3.23283 16.9684 3.23281 16.9684 3.23279 16.9684C3.23277 16.9684 3.23275 16.9684 3.23273 16.9684C3.23271 16.9684 3.23268 16.9684 3.23266 16.9684C3.23264 16.9684 3.23262 16.9684 3.2326 16.9684C3.23258 16.9684 3.23256 16.9684 3.23254 16.9684C3.23252 16.9684 3.2325 16.9684 3.23248 16.9684C3.23245 16.9684 3.23243 16.9684 3.23241 16.9684C3.23239 16.9684 3.23237 16.9684 3.23235 16.9684C3.23233 16.9684 3.23231 16.9684 3.23229 16.9684C3.23227 16.9684 3.23225 16.9684 3.23222 16.9684C3.2322 16.9684 3.23218 16.9684 3.23216 16.9684C3.23214 16.9684 3.23212 16.9684 3.2321 16.9684C3.23208 16.9684 3.23206 16.9684 3.23204 16.9684C3.23202 16.9684 3.232 16.9684 3.23198 16.9684C3.23196 16.9684 3.23193 16.9684 3.23191 16.9684C3.23189 16.9684 3.23187 16.9684 3.23185 16.9684C3.23183 16.9684 3.23181 16.9684 3.23179 16.9684C3.23177 16.9684 3.23175 16.9684 3.23173 16.9684C3.23171 16.9684 3.23169 16.9684 3.23167 16.9684C3.23165 16.9684 3.23163 16.9684 3.2316 16.9684C3.23158 16.9684 3.23156 16.9684 3.23154 16.9684C3.23152 16.9684 3.2315 16.9684 3.23148 16.9684C3.23146 16.9684 3.23144 16.9684 3.23142 16.9684C3.2314 16.9684 3.23138 16.9684 3.23136 16.9684C3.23134 16.9684 3.23132 16.9684 3.2313 16.9684C3.23128 16.9684 3.23126 16.9684 3.23124 16.9684C3.23122 16.9684 3.2312 16.9684 3.23118 16.9684C3.23116 16.9684 3.23114 16.9684 3.23111 16.9684C3.23109 16.9684 3.23107 16.9684 3.23105 16.9684C3.23103 16.9684 3.23101 16.9684 3.23099 16.9684C3.23097 16.9684 3.23095 16.9684 3.23093 16.9684C3.23091 16.9684 3.23089 16.9684 3.23087 16.9684C3.23085 16.9684 3.23083 16.9684 3.23081 16.9684C3.23079 16.9684 3.23077 16.9684 3.23075 16.9684C3.23073 16.9684 3.23071 16.9684 3.23069 16.9684C3.23067 16.9684 3.23065 16.9684 3.23063 16.9684C3.23061 16.9684 3.23059 16.9684 3.23057 16.9684C3.23055 16.9684 3.23053 16.9684 3.23051 16.9684C3.23049 16.9684 3.23047 16.9684 3.23045 16.9684C3.23043 16.9684 3.23041 16.9684 3.23039 16.9684C3.23037 16.9684 3.23035 16.9684 3.23033 16.9684C3.23031 16.9684 3.23029 16.9684 3.23027 16.9684C3.23025 16.9684 3.23023 16.9684 3.23021 16.9684C3.23019 16.9684 3.23017 16.9684 3.23015 16.9684C3.23013 16.9684 3.23011 16.9684 3.23009 16.9684C3.23007 16.9684 3.23006 16.9684 3.23004 16.9684C3.23002 16.9684 3.23 16.9684 3.22998 16.9684C3.22996 16.9684 3.22994 16.9684 3.22992 16.9684C3.2299 16.9684 3.22988 16.9684 3.22986 16.9684C3.22984 16.9684 3.22982 16.9684 3.2298 16.9684C3.22978 16.9684 3.22976 16.9684 3.22974 16.9684C3.22972 16.9684 3.2297 16.9684 3.22968 16.9684C3.22966 16.9684 3.22964 16.9684 3.22962 16.9684C3.22961 16.9684 3.22959 16.9684 3.22957 16.9684C3.22955 16.9684 3.22953 16.9684 3.22951 16.9684C3.22949 16.9684 3.22947 16.9684 3.22945 16.9684C3.22943 16.9684 3.22941 16.9684 3.22939 16.9684C3.22937 16.9684 3.22935 16.9684 3.22933 16.9684C3.22932 16.9684 3.2293 16.9684 3.22928 16.9684C3.22926 16.9684 3.22924 16.9684 3.22922 16.9684C3.2292 16.9684 3.22918 16.9684 3.22916 16.9684C3.22914 16.9684 3.22912 16.9684 3.2291 16.9684C3.22909 16.9684 3.22907 16.9684 3.22905 16.9684C3.22903 16.9684 3.22901 16.9684 3.22899 16.9684C3.22897 16.9684 3.22895 16.9684 3.22893 16.9684C3.22891 16.9684 3.2289 16.9684 3.22888 16.9684C3.22886 16.9684 3.22884 16.9684 3.22882 16.9684C3.2288 16.9684 3.22878 16.9684 3.22876 16.9684C3.22874 16.9684 3.22873 16.9684 3.22871 16.9684C3.22869 16.9684 3.22867 16.9684 3.22865 16.9684C3.22863 16.9684 3.22861 16.9684 3.22859 16.9684C3.22858 16.9684 3.22856 16.9684 3.22854 16.9684C3.22852 16.9684 3.2285 16.9684 3.22848 16.9684C3.22846 16.9684 3.22844 16.9684 3.22843 16.9684C3.22841 16.9684 3.22839 16.9684 3.22837 16.9684C3.22835 16.9684 3.22833 16.9684 3.22831 16.9684C3.2283 16.9684 3.22828 16.9684 3.22826 16.9684C3.22824 16.9684 3.22822 16.9684 3.2282 16.9684C3.22819 16.9684 3.22817 16.9684 3.22815 16.9684C3.22813 16.9684 3.22811 16.9684 3.22809 16.9684C3.22808 16.9684 3.22806 16.9684 3.22804 16.9684C3.22802 16.9684 3.228 16.9684 3.22798 16.9684C3.22797 16.9684 3.22795 16.9684 3.22793 16.9684C3.22791 16.9684 3.22789 16.9684 3.22787 16.9684C3.22786 16.9684 3.22784 16.9684 3.22782 16.9684C3.2278 16.9684 3.22778 16.9684 3.22777 16.9684C3.22775 16.9684 3.22773 16.9684 3.22771 16.9684C3.22769 16.9684 3.22768 16.9684 3.22766 16.9684C3.22764 16.9684 3.22762 16.9684 3.2276 16.9684C3.22759 16.9684 3.22757 16.9684 3.22755 16.9684C3.22753 16.9684 3.22751 16.9684 3.2275 16.9684C3.22748 16.9684 3.22746 16.9684 3.22744 16.9684C3.22742 16.9684 3.22741 16.9684 3.22739 16.9684C3.22737 16.9684 3.22735 16.9684 3.22734 16.9684C3.22732 16.9684 3.2273 16.9684 3.22728 16.9684C3.22726 16.9684 3.22725 16.9684 3.22723 16.9684C3.22721 16.9684 3.22719 16.9684 3.22718 16.9684C3.22716 16.9684 3.22714 16.9684 3.22712 16.9684C3.22711 16.9684 3.22709 16.9684 3.22707 16.9684C3.22705 16.9684 3.22704 16.9684 3.22702 16.9684C3.227 16.9684 3.22698 16.9684 3.22697 16.9684C3.22695 16.9684 3.22693 16.9684 3.22691 16.9684C3.2269 16.9684 3.22688 16.9684 3.22686 16.9684C3.22685 16.9684 3.22683 16.9684 3.22681 16.9684C3.22679 16.9684 3.22678 16.9684 3.22676 16.9684C3.22674 16.9684 3.22672 16.9684 3.22671 16.9684C3.22669 16.9684 3.22667 16.9684 3.22666 16.9684C3.22664 16.9684 3.22662 16.9684 3.22661 16.9684C3.22659 16.9684 3.22657 16.9684 3.22655 16.9684C3.22654 16.9684 3.22652 16.9684 3.2265 16.9684C3.22649 16.9684 3.22647 16.9684 3.22645 16.9684C3.22644 16.9684 3.22642 16.9684 3.2264 16.9684C3.22638 16.9684 3.22637 16.9684 3.22635 16.9684C3.22633 16.9684 3.22632 16.9684 3.2263 16.9684C3.22628 16.9684 3.22627 16.9684 3.22625 16.9684C3.22623 16.9684 3.22622 16.9684 3.2262 16.9684C3.22618 16.9684 3.22617 16.9684 3.22615 16.9684C3.22613 16.9684 3.22612 16.9684 3.2261 16.9684C3.22608 16.9684 3.22607 16.9684 3.22605 16.9684C3.22603 16.9684 3.22602 16.9684 3.226 16.9684C3.22599 16.9684 3.22597 16.9684 3.22595 16.9684C3.22594 16.9684 3.22592 16.9684 3.2259 16.9684C3.22589 16.9684 3.22587 16.9684 3.22585 16.9684C3.22584 16.9684 3.22582 16.9684 3.22581 16.9684C3.22579 16.9684 3.22577 16.9684 3.22576 16.9684C3.22574 16.9684 3.22573 16.9684 3.22571 16.9684C3.22569 16.9684 3.22568 16.9684 3.22566 16.9684C3.22564 16.9684 3.22563 16.9684 3.22561 16.9684C3.2256 16.9684 3.22558 16.9684 3.22556 16.9684C3.22555 16.9684 3.22553 16.9684 3.22552 16.9684C3.2255 16.9684 3.22548 16.9684 3.22547 16.9684C3.22545 16.9684 3.22544 16.9684 3.22542 16.9684C3.22541 16.9684 3.22539 16.9684 3.22537 16.9684C3.22536 16.9684 3.22534 16.9684 3.22533 16.9684C3.22531 16.9684 3.2253 16.9684 3.22528 16.9684C3.22526 16.9684 3.22525 16.9684 3.22523 16.9684C3.22522 16.9684 3.2252 16.9684 3.22519 16.9684C3.22517 16.9684 3.22516 16.9684 3.22514 16.9684C3.22512 16.9684 3.22511 16.9684 3.22509 16.9684C3.22508 16.9684 3.22506 16.9684 3.22505 16.9684C3.22503 16.9684 3.22502 16.9684 3.225 16.9684C3.22499 16.9684 3.22497 16.9684 3.22496 16.9684C3.22494 16.9684 3.22493 16.9684 3.22491 16.9684C3.2249 16.9684 3.22488 16.9684 3.22486 16.9684C3.22485 16.9684 3.22483 16.9684 3.22482 16.9684C3.2248 16.9684 3.22479 16.9684 3.22477 16.9684C3.22476 16.9684 3.22474 16.9684 3.22473 16.9684V17.0809ZM3.25535 17.0809L3.25777 17.1935L5.7455 17.1399L5.74308 17.0273L5.74065 16.9148L3.25292 16.9684L3.25535 17.0809ZM5.74308 17.0273L5.74524 17.1399C6.17326 17.1317 6.58409 16.9508 6.88008 16.6466L6.7994 16.5681L6.71872 16.4896C6.46359 16.7518 6.10897 16.9077 5.74091 16.9148L5.74308 17.0273ZM6.7994 16.5681L6.88002 16.6466L15.92 7.36932L15.8394 7.29076L15.7588 7.2122L6.71878 16.4895L6.7994 16.5681ZM15.8394 7.29076L15.9202 7.36919L16.9535 6.30521L16.8728 6.22678L16.792 6.14835L15.7587 7.21234L15.8394 7.29076ZM16.8728 6.22678L16.9534 6.30531C17.8462 5.38837 17.8304 3.91632 16.913 3.02307L16.8345 3.10372L16.756 3.18437C17.5838 3.99044 17.5986 5.31995 16.7921 6.14825L16.8728 6.22678ZM16.8345 3.10372L16.9131 3.02314L15.3592 1.50754L15.2806 1.58812L15.202 1.6687L16.7559 3.18431L16.8345 3.10372ZM15.2806 1.58812L15.3595 1.50781C14.9087 1.06506 14.3211 0.847882 13.7421 0.847882V0.960449V1.07302C14.2653 1.07302 14.7953 1.26918 15.2018 1.66843L15.2806 1.58812ZM13.7421 0.960449L13.6625 0.88086L13.6548 0.888516L13.7344 0.968105L13.814 1.04769L13.8217 1.04004L13.7421 0.960449Z" fill="white" mask="url(#path-1-inside-1_5966_16530)"/>
<path d="M15.2347 6.78558L11.6064 3.25684" stroke="#A4A7B2" stroke-width="1.12567" stroke-linejoin="round"/>
</g>
<defs>
<clipPath id="clip0_5966_16530">
<rect width="17" height="17" fill="white" transform="translate(0.5 0.5)"/>
</clipPath>
</defs>
</svg>
