<svg width="30" height="26" viewBox="0 0 30 26" fill="none" xmlns="http://www.w3.org/2000/svg">
<path d="M22.4062 0C23.6968 0 24.744 1.0464 24.7441 2.33691V9.62305H27.5674C28.8579 9.62319 29.9043 10.6694 29.9043 11.96L29.9033 23.6602C29.902 25.6613 27.5501 26.7354 26.0371 25.4258L23.502 23.2314H14.708C13.4174 23.2314 12.3711 22.1842 12.3711 20.8936V18.708H8.32031L3.86914 22.5635C2.35594 23.8742 0.00171204 22.8005 0.000976562 20.7988V16.6641C0.000924562 16.658 0 16.6506 0 16.6445V2.33691C0.000143725 1.04648 1.04649 0.000143725 2.33691 0H22.4062ZM24.7441 16.3711C24.7441 17.6617 23.6969 18.708 22.4062 18.708H14.4326V20.8936L14.4385 20.9492C14.4604 21.057 14.5455 21.1423 14.6533 21.1641L14.708 21.1689H24.1689L24.2646 21.1865C24.2952 21.1979 24.3246 21.2146 24.3496 21.2363L27.3857 23.8672L27.457 23.9121C27.6292 23.9879 27.8407 23.8651 27.8408 23.6592L27.8428 11.96C27.8428 11.8269 27.7477 11.7158 27.6221 11.6904L27.5674 11.6846H24.7441V16.3711ZM2.33691 2.06152C2.28845 2.06152 2.24266 2.07467 2.20312 2.09668C2.19932 2.0988 2.1951 2.10024 2.19141 2.10254C2.18149 2.1087 2.17211 2.11571 2.16309 2.12305C2.15969 2.1258 2.15658 2.12892 2.15332 2.13184C2.12149 2.16031 2.09593 2.19587 2.08008 2.23633C2.0678 2.26744 2.06156 2.30151 2.06152 2.33691V16.6445L2.0625 16.6455V20.7979C2.06251 20.8127 2.06623 20.8268 2.06836 20.8408C2.07006 20.8521 2.07028 20.8634 2.07324 20.874C2.07625 20.8847 2.08175 20.8943 2.08594 20.9043C2.09164 20.918 2.09777 20.9311 2.10547 20.9434C2.1106 20.9515 2.11713 20.9583 2.12305 20.9658C2.13172 20.9768 2.14023 20.9876 2.15039 20.9971C2.15844 21.0045 2.16694 21.0111 2.17578 21.0176C2.18673 21.0256 2.19799 21.0327 2.20996 21.0391C2.218 21.0433 2.22597 21.0473 2.23438 21.0508C2.25019 21.0573 2.26643 21.0619 2.2832 21.0654C2.2891 21.0667 2.29481 21.0685 2.30078 21.0693C2.32017 21.0721 2.33959 21.0718 2.35938 21.0703C2.36423 21.0699 2.36917 21.0709 2.37402 21.0703C2.39871 21.0671 2.42342 21.0613 2.44727 21.0508L2.47949 21.0303C2.49203 21.0225 2.5058 21.016 2.51758 21.0059L7.47363 16.7129C7.49848 16.6915 7.52736 16.6754 7.55762 16.6641L7.65332 16.6465H12.3711V16.6455H14.4326V16.6465H22.4062L22.4619 16.6406C22.4842 16.6361 22.5045 16.6268 22.5244 16.6172C22.5329 16.6131 22.5408 16.6084 22.5488 16.6035C22.5637 16.5944 22.578 16.5849 22.5908 16.5732C22.5979 16.5668 22.604 16.5598 22.6104 16.5527C22.6215 16.5402 22.6319 16.5271 22.6406 16.5127C22.6451 16.5053 22.6495 16.498 22.6533 16.4902C22.6614 16.4735 22.6673 16.4559 22.6719 16.4375C22.6729 16.4335 22.6759 16.4299 22.6768 16.4258L22.6816 16.3711V2.33691C22.6816 2.30092 22.6737 2.26689 22.6611 2.23535C22.6585 2.22867 22.6555 2.22223 22.6523 2.21582C22.6483 2.20755 22.6445 2.19918 22.6396 2.19141C22.6357 2.18503 22.6314 2.17886 22.627 2.17285C22.6113 2.15183 22.5922 2.13395 22.5713 2.11816C22.5646 2.11309 22.558 2.10797 22.5508 2.10352C22.5463 2.10075 22.5417 2.09822 22.5371 2.0957C22.5275 2.0905 22.518 2.08511 22.5078 2.08105C22.4931 2.07523 22.4778 2.0706 22.4619 2.06738L22.4062 2.06152H2.33691Z" fill="#4170FE"/>
</svg>
