<svg width="26" height="26" viewBox="0 0 26 26" fill="none" xmlns="http://www.w3.org/2000/svg">
<path d="M7.10078 2.5C8.51078 2.5 9.65078 3.64 9.65078 5.05C9.65078 6.46 8.51078 7.60001 7.10078 7.60001C5.69078 7.60001 4.55078 6.46 4.55078 5.05C4.55078 3.64 5.69078 2.5 7.10078 2.5ZM7.10078 0.5C4.59078 0.5 2.55078 2.54 2.55078 5.05C2.55078 7.56 4.59078 9.60001 7.10078 9.60001C9.61078 9.60001 11.6508 7.56 11.6508 5.05C11.6508 2.54 9.61078 0.5 7.10078 0.5Z" fill="#A4A7B2"/>
<path d="M17.8305 2.5C19.2405 2.5 20.3805 3.64 20.3805 5.05C20.3805 6.46 19.2405 7.60001 17.8305 7.60001C16.4205 7.60001 15.2805 6.46 15.2805 5.05C15.2805 3.64 16.4205 2.5 17.8305 2.5ZM17.8305 0.5C15.3205 0.5 13.2805 2.54 13.2805 5.05C13.2805 7.56 15.3205 9.60001 17.8305 9.60001C20.3405 9.60001 22.3805 7.56 22.3805 5.05C22.3805 2.54 20.3405 0.5 17.8305 0.5Z" fill="#A4A7B2"/>
<path d="M17.8306 12.58C19.7606 12.58 22.4806 16.64 22.9506 23.17H17.8306L12.7006 23.15C13.1806 16.64 15.9006 12.58 17.8206 12.58M17.8306 10.58C13.8906 10.58 10.6406 17.15 10.6406 25.14L17.8306 25.17H25.0206C25.0206 17.17 21.7706 10.58 17.8306 10.58Z" fill="#A4A7B2"/>
<path d="M7.19001 24.1701L1.01001 24.1501C1.27001 16.6901 4.39001 11.5801 7.19001 11.5801C9.99001 11.5801 13.11 16.7001 13.37 24.1701H7.19001Z" fill="white"/>
<path d="M7.19 12.5801C9.12 12.5801 11.84 16.6401 12.31 23.1701H7.19L2.06 23.1501C2.54 16.6401 5.26 12.5801 7.18 12.5801M7.19 10.5801C3.25 10.5801 0 17.1501 0 25.1401L7.19 25.1701H14.38C14.38 17.1701 11.13 10.5801 7.19 10.5801Z" fill="#A4A7B2"/>
</svg>
