<svg width="322" height="37" viewBox="0 0 322 37" fill="none" xmlns="http://www.w3.org/2000/svg">
<path d="M3.90529 0H0.569192C0.254836 0 0 0.254837 0 0.569193V28.038C0 28.3523 0.254836 28.6072 0.569192 28.6072H3.90529C4.21964 28.6072 4.47448 28.3523 4.47448 28.038V0.569193C4.47448 0.254837 4.21964 0 3.90529 0Z" fill="#080808"/>
<path d="M26.2986 9.18619C26.2986 9.32322 26.13 9.38646 26.0404 9.28105C24.4066 7.45226 22.0666 6.48779 19.1995 6.48779C12.775 6.48779 7.93164 11.5104 7.93164 18.172C7.93164 24.3225 12.949 29.1395 19.3524 29.1395C22.114 29.1395 24.4856 28.0802 26.0351 26.1882C26.1247 26.0775 26.3039 26.1355 26.3039 26.2778V28.038C26.3039 28.3542 26.5569 28.6072 26.8731 28.6072H30.2092C30.5254 28.6072 30.7784 28.3542 30.7784 28.038V7.62618C30.7784 7.30996 30.5254 7.05699 30.2092 7.05699H26.8731C26.5569 7.05699 26.3039 7.30996 26.3039 7.62618V9.18619H26.2986ZM26.3724 17.8716C26.3724 21.8085 23.205 25.0076 19.3102 25.0076C15.4155 25.0076 12.4009 21.74 12.4009 17.8716C12.4009 14.0032 15.4998 10.6197 19.3102 10.6197C23.3367 10.6197 26.3724 13.7345 26.3724 17.8716Z" fill="#080808"/>
<path d="M45.4562 6.48769C43.4482 6.48769 41.7564 7.01999 40.4073 8.07405C40.0383 8.36392 39.4955 8.09513 39.4955 7.62608C39.4955 7.30986 39.2425 7.05688 38.9263 7.05688H35.859C35.5428 7.05688 35.2898 7.30986 35.2898 7.62608V28.0379C35.2898 28.3541 35.5428 28.6071 35.859 28.6071H39.1951C39.5113 28.6071 39.7643 28.3541 39.7643 28.0379V16.8438C39.7643 13.0018 41.7881 10.6196 45.0398 10.6196C48.2916 10.6196 50.015 12.6118 50.015 16.8807V28.0379C50.015 28.3541 50.268 28.6071 50.5842 28.6071H53.9203C54.2365 28.6071 54.4895 28.3541 54.4895 28.0379V15.7423C54.4895 10.1189 50.9426 6.48242 45.4615 6.48242L45.4562 6.48769Z" fill="#080808"/>
<path d="M76.4615 8.78037C76.4615 8.90686 76.3139 8.97537 76.2191 8.89105C74.4904 7.41009 71.9396 6.48779 69.4415 6.48779C62.9748 6.48779 57.9048 11.5367 57.9048 17.9823C57.9048 23.9219 63.2752 29.1395 69.3993 29.1395C72.1557 29.1395 74.5168 28.233 76.1558 26.5571C76.256 26.4569 76.4246 26.5307 76.4141 26.673C76.0504 30.6574 73.6313 32.7497 69.3624 32.7497C66.8063 32.7497 64.9564 31.8221 63.544 29.8247L63.4649 29.714H58.5267L58.6848 30.0829C60.5399 34.3413 64.5137 36.8816 69.3255 36.8816C76.5932 36.8816 80.936 32.6548 80.936 25.5768V7.63145C80.936 7.31523 80.683 7.06225 80.3668 7.06225H77.0307C76.7145 7.06225 76.4615 7.31523 76.4615 7.63145V8.78564V8.78037ZM69.3255 10.6197C72.8724 10.6197 76.4615 13.0967 76.4615 17.8347C76.4615 21.2973 73.6103 25.0076 69.3624 25.0076C65.5783 25.0076 62.3793 21.7242 62.3793 17.8347C62.3793 13.9453 65.5625 10.6197 69.3255 10.6197Z" fill="#080808"/>
<path d="M100.104 18.6673C100.104 22.7571 98.2437 25.0075 94.8654 25.0075C91.4871 25.0075 89.8902 23.0733 89.8902 18.7411V7.62608C89.8902 7.30986 89.6373 7.05688 89.3211 7.05688H85.985C85.6687 7.05688 85.4158 7.30986 85.4158 7.62608V19.0468C85.4158 22.0825 86.2959 29.1394 94.4438 29.1394C96.5624 29.1394 98.4387 28.5439 99.7088 27.5214C100.004 27.2843 100.441 27.4898 100.441 27.8746V28.1592C100.441 28.4121 100.647 28.6124 100.895 28.6124H104.004C104.32 28.6124 104.573 28.3594 104.573 28.0432V7.63135C104.573 7.31513 104.32 7.06215 104.004 7.06215H100.668C100.352 7.06215 100.099 7.31513 100.099 7.63135V18.6726L100.104 18.6673Z" fill="#080808"/>
<path d="M126.397 9.18619C126.397 9.32322 126.229 9.38646 126.139 9.28105C124.505 7.45226 122.165 6.48779 119.298 6.48779C112.874 6.48779 108.031 11.5104 108.031 18.172C108.031 24.3225 113.048 29.1395 119.451 29.1395C122.213 29.1395 124.585 28.0802 126.134 26.1882C126.224 26.0775 126.403 26.1355 126.403 26.2778V28.038C126.403 28.3542 126.656 28.6072 126.972 28.6072H130.308C130.624 28.6072 130.877 28.3542 130.877 28.038V7.62618C130.877 7.30996 130.624 7.05699 130.308 7.05699H126.972C126.656 7.05699 126.403 7.30996 126.403 7.62618V9.18619H126.397ZM126.477 17.8716C126.477 21.8085 123.309 25.0076 119.414 25.0076C115.52 25.0076 112.505 21.74 112.505 17.8716C112.505 14.0032 115.604 10.6197 119.414 10.6197C123.441 10.6197 126.477 13.7345 126.477 17.8716Z" fill="#080808"/>
<path d="M152.886 8.78037C152.886 8.90686 152.738 8.97537 152.643 8.89105C150.915 7.41009 148.364 6.48779 145.866 6.48779C139.399 6.48779 134.329 11.5367 134.329 17.9823C134.329 23.9219 139.7 29.1395 145.824 29.1395C148.58 29.1395 150.941 28.233 152.58 26.5571C152.68 26.4569 152.849 26.5307 152.838 26.673C152.475 30.6574 150.056 32.7497 145.787 32.7497C143.231 32.7497 141.381 31.8221 139.968 29.8247L139.889 29.714H134.951L135.109 30.0829C136.964 34.3413 140.938 36.8816 145.75 36.8816C153.018 36.8816 157.36 32.6548 157.36 25.5768V7.63145C157.36 7.31523 157.107 7.06225 156.791 7.06225H153.455C153.139 7.06225 152.886 7.31523 152.886 7.63145V8.78564V8.78037ZM145.75 10.6197C149.297 10.6197 152.886 13.0967 152.886 17.8347C152.886 21.2973 150.035 25.0076 145.787 25.0076C142.003 25.0076 138.804 21.7242 138.804 17.8347C138.804 13.9453 141.987 10.6197 145.75 10.6197Z" fill="#080808"/>
<path d="M171.095 6.48779C165.008 6.48779 160.243 11.5525 160.243 18.0245C160.243 23.9483 165.366 29.1395 171.211 29.1395C175.817 29.1395 179.881 26.2725 181.551 21.8349L181.688 21.4765H177.203L177.129 21.6135C175.996 23.7058 173.788 25.0076 171.364 25.0076C168.565 25.0076 166.199 23.3106 165.082 20.5911C164.929 20.2169 165.208 19.8058 165.614 19.8058H182.099L182.136 19.5845C182.252 18.8414 182.252 18.2247 182.252 17.5712C182.252 11.3575 177.351 6.49307 171.095 6.49307V6.48779ZM165.435 16.2431C165.066 16.2431 164.792 15.8953 164.881 15.5422C165.64 12.4801 168.597 10.625 171.211 10.625C174.262 10.625 176.898 12.712 177.614 15.5369C177.704 15.8953 177.435 16.2484 177.061 16.2484C174.811 16.2484 167.68 16.2484 165.435 16.2484V16.2431Z" fill="#080808"/>
<path d="M213.136 7.05688H209.094C208.904 7.05688 208.725 7.15175 208.619 7.30986L204.582 13.3812C204.466 13.5604 204.203 13.5604 204.087 13.3812L200.018 7.30986C199.913 7.15175 199.734 7.05688 199.544 7.05688H195.507C195.048 7.05688 194.78 7.5681 195.038 7.94757L201.41 17.2496C201.541 17.4446 201.541 17.6976 201.41 17.8926L194.764 27.7217C194.511 28.1012 194.78 28.6124 195.233 28.6124H199.085C199.275 28.6124 199.449 28.5175 199.554 28.3647L204.087 21.6978C204.203 21.5238 204.461 21.5238 204.577 21.6978L209.22 28.37C209.326 28.5228 209.499 28.6124 209.689 28.6124H213.584C214.042 28.6124 214.311 28.1012 214.053 27.7217L207.37 17.8873C207.239 17.6976 207.239 17.4446 207.37 17.2496L213.605 7.94757C213.858 7.5681 213.589 7.06215 213.131 7.06215L213.136 7.05688Z" fill="#080808"/>
<path d="M244.753 8.92774C244.753 9.0595 244.595 9.12274 244.5 9.03315C242.824 7.40989 240.399 6.49287 237.69 6.49287C231.377 6.49287 226.612 11.468 226.612 18.0664C226.612 24.2801 231.529 29.1446 237.806 29.1446C240.621 29.1446 243.114 28.1222 244.8 26.3092C244.895 26.209 245.058 26.2723 245.058 26.4093V28.0431C245.058 28.3593 245.311 28.6123 245.628 28.6123H248.658C248.974 28.6123 249.227 28.3593 249.227 28.0431V0.57432C249.227 0.258102 248.974 0.00512695 248.658 0.00512695H245.322C245.006 0.00512695 244.753 0.258102 244.753 0.57432V8.93301V8.92774ZM245.053 18.0243C245.053 21.8083 241.817 25.0074 237.991 25.0074C234.165 25.0074 231.082 21.7398 231.082 17.8714C231.082 14.003 234.18 10.6195 237.991 10.6195C242.149 10.6195 245.053 13.6657 245.053 18.019V18.0243Z" fill="#080808"/>
<path d="M257.686 7.05688H254.35C254.035 7.05688 253.781 7.31172 253.781 7.62608V28.0379C253.781 28.3523 254.035 28.6071 254.35 28.6071H257.686C258 28.6071 258.255 28.3523 258.255 28.0379V7.62608C258.255 7.31172 258 7.05688 257.686 7.05688Z" fill="#080808"/>
<path d="M256.015 4.57993C257.248 4.57993 258.25 3.71032 258.25 2.64045V2.05018C258.25 0.980313 257.248 0.110718 256.015 0.110718C254.782 0.110718 253.781 0.980313 253.781 2.05018V2.64045C253.781 3.71032 254.782 4.57993 256.015 4.57993Z" fill="#080808"/>
<path d="M280.079 9.18619C280.079 9.32322 279.911 9.38646 279.821 9.28105C278.187 7.45226 275.847 6.48779 272.98 6.48779C266.556 6.48779 261.712 11.5104 261.712 18.172C261.712 24.3225 266.73 29.1395 273.133 29.1395C275.895 29.1395 278.266 28.0802 279.816 26.1882C279.905 26.0775 280.085 26.1355 280.085 26.2778V28.038C280.085 28.3542 280.338 28.6072 280.654 28.6072H283.99C284.306 28.6072 284.559 28.3542 284.559 28.038V7.62618C284.559 7.30996 284.306 7.05699 283.99 7.05699H280.654C280.338 7.05699 280.085 7.30996 280.085 7.62618V9.18619H280.079ZM280.153 17.8716C280.153 21.8085 276.986 25.0076 273.091 25.0076C269.196 25.0076 266.182 21.74 266.182 17.8716C266.182 14.0032 269.281 10.6197 273.091 10.6197C277.117 10.6197 280.153 13.7345 280.153 17.8716Z" fill="#080808"/>
<path d="M293.318 7.51017C293.318 7.2572 293.112 7.05693 292.865 7.05693H289.682C289.365 7.05693 289.112 7.3099 289.112 7.62612V28.038C289.112 28.3542 289.365 28.6072 289.682 28.6072H293.018C293.334 28.6072 293.587 28.3542 293.587 28.038V16.5435C293.587 13.0756 295.284 11.1836 298.493 11.0782L298.746 11.0676V6.47192L298.467 6.48773C296.58 6.59314 295.115 7.04639 294.04 7.86856C293.745 8.09518 293.318 7.88436 293.318 7.51017Z" fill="#080808"/>
<path d="M317.319 7.42054L311.843 21.5186C311.654 22.0034 310.963 22.0034 310.779 21.5186L305.435 7.4258C305.35 7.20445 305.139 7.05688 304.902 7.05688H301.318C300.913 7.05688 300.639 7.46797 300.791 7.84216L308.876 27.7112C308.934 27.8482 308.934 28.0063 308.876 28.1433L306.109 34.8419C305.956 35.2161 306.23 35.6272 306.636 35.6272H310.072C310.304 35.6272 310.51 35.4901 310.599 35.2741L321.957 7.84216C322.11 7.46797 321.836 7.05688 321.43 7.05688H317.846C317.609 7.05688 317.398 7.19918 317.314 7.42054H317.319Z" fill="#080808"/>
</svg>
