<svg width="42" height="19" viewBox="0 0 42 19" fill="none" xmlns="http://www.w3.org/2000/svg">
<path d="M2.53367 0.499512H0.374744C0.169132 0.499512 0 0.668644 0 0.874256V16.1028C0 17.426 1.07449 18.5005 2.3977 18.5005H8.67218C8.88111 18.5005 9.04693 18.3314 9.04693 18.1258V16.1824C9.04693 15.9735 8.87779 15.8077 8.67218 15.8077H3.28647C3.07755 15.8077 2.91173 15.6385 2.91173 15.4329V0.874256C2.91173 0.665328 2.7426 0.499512 2.53699 0.499512H2.53367Z" fill="black"/>
<path d="M21.9489 0.668644L17.8101 6.92986C17.7736 6.98624 17.6907 6.98624 17.6542 6.92986L13.5652 0.668644C13.4956 0.562522 13.3762 0.499512 13.2502 0.499512H10.6767C10.3782 0.499512 10.1958 0.83446 10.365 1.08318L15.8004 9.26787C15.8833 9.39389 15.8833 9.55639 15.8004 9.68241L10.3616 17.9168C10.1958 18.1656 10.3749 18.5005 10.6767 18.5005H13.1805C13.3065 18.5005 13.4259 18.4375 13.4956 18.3314L17.6575 12.0237C17.694 11.9674 17.7769 11.9674 17.8134 12.0237L21.929 18.3314C21.9986 18.4375 22.118 18.5005 22.244 18.5005H24.7711C25.0695 18.5005 25.2486 18.1689 25.0861 17.9168L19.6507 9.68572C19.5677 9.5597 19.5677 9.39389 19.6507 9.26787L25.1259 1.08318C25.2917 0.83446 25.1126 0.499512 24.8142 0.499512H22.2639C22.1379 0.499512 22.0185 0.562522 21.9489 0.668644Z" fill="black"/>
<path d="M33.177 0.499512H27.2507C27.0418 0.499512 26.876 0.668644 26.876 0.874256V16.2985C26.876 17.5156 27.8609 18.5005 29.078 18.5005H32.7956C38.4499 18.5005 41.9652 15.0515 41.9652 9.50001C41.9652 5.13573 38.8844 0.499512 33.1803 0.499512H33.177ZM29.7844 3.57043C29.7844 3.3615 29.9535 3.19568 30.1591 3.19568H32.8155C36.4867 3.19568 39.0502 5.80894 39.0502 9.54975C39.0502 13.2906 36.6757 15.8077 32.6961 15.8077H30.1558C29.9469 15.8077 29.7811 15.6385 29.7811 15.4329V3.57043H29.7844Z" fill="black"/>
</svg>
