<svg width="63" height="31" viewBox="0 0 63 31" fill="none" xmlns="http://www.w3.org/2000/svg">
<rect width="63" height="31" rx="5" fill="#EDF3FE"/>
<g clip-path="url(#clip0_4981_2575)">
<path d="M16.6294 23.0856C20.7475 23.0856 24.086 19.7472 24.086 15.629C24.086 11.5109 20.7475 8.17249 16.6294 8.17249C12.5113 8.17249 9.17285 11.5109 9.17285 15.629C9.17285 19.7472 12.5113 23.0856 16.6294 23.0856Z" stroke="#618BFD" stroke-width="1.36" stroke-miterlimit="10"/>
<path d="M16.6408 23.1208C18.3697 23.1208 19.7712 19.7772 19.7712 15.6525C19.7712 11.5279 18.3697 8.18427 16.6408 8.18427C14.912 8.18427 13.5105 11.5279 13.5105 15.6525C13.5105 19.7772 14.912 23.1208 16.6408 23.1208Z" stroke="#618BFD" stroke-width="1.36" stroke-miterlimit="10"/>
<path d="M9.42432 15.8109H24.015" stroke="#618BFD" stroke-width="1.36" stroke-miterlimit="10"/>
</g>
<path d="M38.7598 8.87109V17.8945H37.2422V13.3691H35.0547V12.1387H37.2422V8.87109H38.7598ZM39.0742 19.7402V20.9707H30.6523V17.1016H32.1699V19.7402H39.0742ZM32.9492 11.332C32.9492 12.8223 33.9473 14.3535 35.8613 14.9824L35.0957 16.1992C33.7148 15.7275 32.7373 14.791 32.1973 13.6152C31.6504 14.9209 30.6182 15.9531 29.1621 16.459L28.3828 15.2285C30.3516 14.5859 31.4043 12.959 31.4043 11.3184V10.9902H28.834V9.75977H35.5059V10.9902H32.9492V11.332ZM44.2552 12.6309C44.2552 14.5449 45.0482 16.4727 46.7708 17.4023L45.9232 18.5234C44.7747 17.915 43.9954 16.8281 43.5579 15.5293C43.1204 16.9307 42.3411 18.127 41.179 18.8105L40.2904 17.6621C42.0404 16.6504 42.8197 14.5859 42.8197 12.6309V12.248H40.7142V11.0176H42.8197V9.29492H44.2552V11.0176H46.3197V12.248H44.2552V12.6309ZM51.1185 8.85742V21.2168H49.6693V8.85742H51.1185ZM48.6029 9.08984V20.6152H47.1673V14.8594H45.554V13.6016H47.1673V9.08984H48.6029Z" fill="#618BFD"/>
<defs>
<clipPath id="clip0_4981_2575">
<rect width="17" height="17" fill="white" transform="translate(8 7)"/>
</clipPath>
</defs>
</svg>
