<svg width="14" height="13" viewBox="0 0 14 13" fill="none" xmlns="http://www.w3.org/2000/svg">
<path d="M1.95711 0.25C1.51165 0.25 1.28857 0.788571 1.60355 1.10355L2.58716 2.08716C1.45392 3.21763 0.75 4.77669 0.75 6.5C0.75 9.94625 3.55375 12.75 7 12.75C10.4462 12.75 13.25 9.94625 13.25 6.5C13.25 3.26435 10.7785 0.595074 7.62411 0.280918C7.28063 0.246709 7 0.529822 7 0.875V0.875C7 1.22018 7.28123 1.4959 7.62374 1.53871C10.0874 1.84668 12 3.95431 12 6.5C12 9.25687 9.75687 11.5 7 11.5C4.24313 11.5 2 9.25687 2 6.5C2 5.12126 2.5628 3.8733 3.46851 2.96851L4.27145 3.77145C4.58643 4.08643 5.125 3.86335 5.125 3.41789V0.75C5.125 0.473858 4.90114 0.25 4.625 0.25H1.95711Z" fill="#4D4E57"/>
</svg>
