<?xml version="1.0" encoding="UTF-8"?>
<svg version="1.1" xmlns="http://www.w3.org/2000/svg" width="24" height="24">
<path d="M0 0 C2.5 2.0625 2.5 2.0625 4 5 C4.04022391 7.3329866 4.04320247 9.66706666 4 12 C5.4166747 13.7511573 5.4166747 13.7511573 7 15 C7 15.99 7 16.98 7 18 C4.86608974 17.54273352 3.10639437 17.05870034 1.1875 16 C-1.14617385 14.80015099 -1.14617385 14.80015099 -4.5625 14.5625 C-8 14 -8 14 -9.9375 12.9375 C-11.69043126 9.74097829 -11.51780725 6.55067826 -11 3 C-8.90047053 -1.19905895 -4.14675611 -0.87607524 0 0 Z M-7.25 3.75 C-9.24571042 5.8057922 -9.24571042 5.8057922 -8.875 8.125 C-8.04449779 10.18333091 -8.04449779 10.18333091 -6 12 C-2.17435335 11.81242938 -2.17435335 11.81242938 1 10 C1.30392154 7.11274535 1.41849029 5.57791516 -0.3125 3.1875 C-3.16902752 1.177351 -4.59525891 1.68520138 -7.25 3.75 Z " fill="#444444" transform="translate(14,3)"/>
</svg>
