<svg width="24" height="24" viewBox="0 0 24 24" fill="none" xmlns="http://www.w3.org/2000/svg">
<circle cx="12.3466" cy="11.6535" r="11.1535" fill="#A4A7B2" stroke="white"/>
<path d="M16.3961 7.61046C16.1454 7.35977 15.7405 7.35977 15.4898 7.61046L12.3465 10.7473L9.20324 7.60403C8.95256 7.35334 8.54759 7.35334 8.2969 7.60403C8.04621 7.85472 8.04621 8.25968 8.2969 8.51037L11.4402 11.6536L8.2969 14.7969C8.04621 15.0476 8.04621 15.4526 8.2969 15.7032C8.54759 15.9539 8.95256 15.9539 9.20324 15.7032L12.3465 12.56L15.4898 15.7032C15.7405 15.9539 16.1454 15.9539 16.3961 15.7032C16.6468 15.4526 16.6468 15.0476 16.3961 14.7969L13.2529 11.6536L16.3961 8.51037C16.6404 8.26611 16.6404 7.85472 16.3961 7.61046Z" fill="white"/>
</svg>
